<?xml version="1.0" encoding="UTF-8" standalone="no"?>
<!-- Created with Inkscape (http://www.inkscape.org/) -->

<svg
   width="841mm"
   height="1189mm"
   viewBox="0 0 841 1189"
   version="1.1"
   id="svg4904"
   inkscape:version="1.2.2 (b0a8486541, 2022-12-01)"
   sodipodi:docname="poster.svg"
   xmlns:inkscape="http://www.inkscape.org/namespaces/inkscape"
   xmlns:sodipodi="http://sodipodi.sourceforge.net/DTD/sodipodi-0.dtd"
   xmlns="http://www.w3.org/2000/svg"
   xmlns:svg="http://www.w3.org/2000/svg">
  <sodipodi:namedview
     id="namedview4906"
     pagecolor="#ffffff"
     bordercolor="#000000"
     borderopacity="0.25"
     inkscape:showpageshadow="2"
     inkscape:pageopacity="0.0"
     inkscape:pagecheckerboard="0"
     inkscape:deskcolor="#d1d1d1"
     inkscape:document-units="mm"
     showgrid="false"
     inkscape:zoom="0.15982478"
     inkscape:cx="1335.8379"
     inkscape:cy="2227.4393"
     inkscape:window-width="1920"
     inkscape:window-height="1022"
     inkscape:window-x="0"
     inkscape:window-y="576"
     inkscape:window-maximized="1"
     inkscape:current-layer="layer1" />
  <defs
     id="defs4901">
    <clipPath
       clipPathUnits="userSpaceOnUse"
       id="clipPath238">
      <path
         d="m 1716.396,114.614 h 634.754 v 72.362 h -634.754 z"
         id="path236" />
    </clipPath>
    <clipPath
       clipPathUnits="userSpaceOnUse"
       id="clipPath370">
      <path
         d="M 0,3401.575 H 2551.181 V 0 H 0 Z"
         id="path368" />
    </clipPath>
    <clipPath
       clipPathUnits="userSpaceOnUse"
       id="clipPath996">
      <g
         id="g1000">
        <path
           d="M 0,3401.575 H 2551.181 V 0 H 0 Z"
           id="path998" />
      </g>
    </clipPath>
    <clipPath
       clipPathUnits="userSpaceOnUse"
       id="clipPath1054">
      <g
         id="g1060">
        <g
           id="g1058">
          <path
             d="M 0,3401.575 H 2551.181 V 0 H 0 Z"
             id="path1056" />
        </g>
      </g>
    </clipPath>
    <clipPath
       clipPathUnits="userSpaceOnUse"
       id="clipPath1024">
      <g
         id="g1030">
        <g
           id="g1028">
          <path
             d="M 0,3401.575 H 2551.181 V 0 H 0 Z"
             id="path1026" />
        </g>
      </g>
    </clipPath>
    <clipPath
       clipPathUnits="userSpaceOnUse"
       id="clipPath1039">
      <g
         id="g1045">
        <g
           id="g1043">
          <path
             d="M 0,3401.575 H 2551.181 V 0 H 0 Z"
             id="path1041" />
        </g>
      </g>
    </clipPath>
    <clipPath
       clipPathUnits="userSpaceOnUse"
       id="clipPath972">
      <g
         id="g976">
        <path
           d="M 0,3401.575 H 2551.181 V 0 H 0 Z"
           id="path974" />
      </g>
    </clipPath>
    <clipPath
       clipPathUnits="userSpaceOnUse"
       id="clipPath1009">
      <g
         id="g1015">
        <g
           id="g1013">
          <path
             d="M 0,3401.575 H 2551.181 V 0 H 0 Z"
             id="path1011" />
        </g>
      </g>
    </clipPath>
    <clipPath
       clipPathUnits="userSpaceOnUse"
       id="clipPath960">
      <g
         id="g964">
        <path
           d="M 0,3401.575 H 2551.181 V 0 H 0 Z"
           id="path962" />
      </g>
    </clipPath>
  </defs>
  <g
     inkscape:label="Layer 1"
     inkscape:groupmode="layer"
     id="layer1">
    <g
       id="g7070"
       transform="matrix(0.95730715,0,0,0.95730715,-4.3202575,33.836605)">
      <text
         xml:space="preserve"
         transform="scale(0.9937503,1.006289)"
         style="font-variant:normal;font-weight:bold;font-stretch:normal;font-size:17.213px;font-family:Roboto;-inkscape-font-specification:Roboto-Bold;writing-mode:lr-tb;fill:#122537;fill-opacity:1;fill-rule:nonzero;stroke:none;stroke-width:0.350573"
         id="text230"
         x="407.29395"
         y="1152.8359"><tspan
           x="407.29395 417.79388 428.29382 435.43719 445.93713 451.79816 461.97107 472.52258 483.02252 488.88354 498.9704"
           y="1152.8359"
           sodipodi:role="line"
           id="tspan228"
           style="stroke-width:0.350573">unrn.edu.ar</tspan></text>
      <g
         id="g232"
         transform="matrix(0.35277777,0,0,-0.35277777,4.3998021,1208.2214)">
        <g
           id="g234"
           clip-path="url(#clipPath238)">
          <g
             id="g240"
             transform="translate(1781.2961,146.2011)">
            <path
               d="m 0,0 c 0,-11.355 -2.575,-18.064 -7.725,-23.226 -5.15,-5.163 -13.392,-8.36 -24.724,-8.36 -11.332,0 -19.574,3.197 -24.724,8.36 -5.15,5.162 -7.727,11.871 -7.727,23.226 v 40.774 h 23.384 V -1.032 c 0,-4.234 0.825,-6.194 2.37,-7.741 1.545,-1.55 3.605,-2.582 6.697,-2.582 3.09,0 5.15,1.032 6.695,2.582 1.547,1.549 2.267,3.613 2.267,7.741 V 40.774 H -0.002 V 0 Z"
               style="fill:#ee223f;fill-opacity:1;fill-rule:nonzero;stroke:none"
               id="path242" />
          </g>
          <g
             id="g244"
             transform="translate(1861.6461,115.7469)">
            <path
               d="m 0,0 h -24.209 l -21.634,39.744 c 0,0 0.515,-7.742 0.515,-12.9 V 0 H -67.99 v 71.229 h 25.237 l 20.604,-39.74 c 0,0 -0.515,7.74 -0.515,12.902 V 71.229 H 0 Z"
               style="fill:#ee223f;fill-opacity:1;fill-rule:nonzero;stroke:none"
               id="path246" />
          </g>
          <g
             id="g248"
             transform="translate(1908.7224,168.0845)">
            <path
               d="m 0,0 c -1.03,0.825 -2.577,1.342 -5.152,1.342 h -5.872 v -12.387 h 5.872 c 2.575,0 4.223,0.518 5.152,1.239 1.136,0.828 2.577,1.86 2.577,4.956 C 2.577,-1.754 1.03,-0.724 0,0 M 30.182,-52.337 H 3.396 l -11.33,23.743 h -2.988 v -23.743 h -23.281 v 71.228 h 30.906 c 8.753,0 15.45,-1.549 20.6,-5.162 5.15,-3.613 8.757,-9.808 8.757,-17.547 0,-14.453 -8.757,-19.613 -11.849,-21.473 z"
               style="fill:#ee223f;fill-opacity:1;fill-rule:nonzero;stroke:none"
               id="path250" />
          </g>
          <g
             id="g252"
             transform="translate(2013.0728,115.7469)">
            <path
               d="m 0,0 h -24.209 l -21.632,39.742 c 0,0 0.517,-7.742 0.517,-12.9 V 0 H -67.99 v 71.229 h 25.239 l 20.602,-39.74 c 0,0 -0.513,7.74 -0.513,12.902 V 71.229 H 0 Z"
               style="fill:#ee223f;fill-opacity:1;fill-rule:nonzero;stroke:none"
               id="path254" />
          </g>
          <g
             id="g256"
             transform="translate(2055.3547,168.2552)">
            <path
               d="M 0,0 V 11.671 H 2.267 V 0.147 c 0,-4.358 2.263,-6.768 6.134,-6.768 3.7,0 6.05,2.238 6.05,6.623 v 11.671 h 2.263 V 0.174 c 0,-5.876 -3.355,-8.888 -8.37,-8.888 C 3.386,-8.716 0,-5.673 0,0"
               style="fill:#122537;fill-opacity:1;fill-rule:nonzero;stroke:none"
               id="path258" />
          </g>
          <g
             id="g260"
             transform="translate(2077.0596,174.6772)">
            <path
               d="m 0,0 h 2.209 v -2.581 c 1.001,1.605 2.521,2.893 5.075,2.893 3.554,0 5.678,-2.407 5.678,-5.929 v -9.204 h -2.209 v 8.66 c 0,2.748 -1.462,4.469 -4.099,4.469 -2.551,0 -4.443,-1.863 -4.443,-4.643 v -8.486 H 0.002 V 0 Z"
               style="fill:#122537;fill-opacity:1;fill-rule:nonzero;stroke:none"
               id="path262" />
          </g>
          <path
             d="m 2094.924,174.678 h 2.207 v -14.821 h -2.207 z m -0.143,5.673 h 2.523 v -2.436 h -2.523 z"
             style="fill:#122537;fill-opacity:1;fill-rule:nonzero;stroke:none"
             id="path264" />
          <g
             id="g266"
             transform="translate(2100.802,174.6772)">
            <path
               d="M 0,0 H 2.434 L 7.425,-12.298 12.443,0 h 2.38 L 8.37,-14.937 H 6.42 Z"
               style="fill:#122537;fill-opacity:1;fill-rule:nonzero;stroke:none"
               id="path268" />
          </g>
          <g
             id="g270"
             transform="translate(2129.9619,168.1389)">
            <path
               d="M 0,0 C -0.23,2.668 -1.835,4.989 -4.73,4.989 -7.254,4.989 -9.233,2.869 -9.547,0 Z m -9.547,-1.777 c 0.314,-3.125 2.61,-4.93 5.216,-4.93 2.064,0 3.439,0.833 4.672,2.093 l 1.378,-1.233 c -1.492,-1.692 -3.268,-2.782 -6.108,-2.782 -4.041,0 -7.396,3.125 -7.396,7.74 0,4.302 2.98,7.739 7.11,7.739 4.387,0 6.908,-3.495 6.908,-7.853 0,-0.203 0,-0.432 -0.026,-0.776 H -9.547 Z"
               style="fill:#122537;fill-opacity:1;fill-rule:nonzero;stroke:none"
               id="path272" />
          </g>
          <g
             id="g274"
             transform="translate(2136.0693,174.6772)">
            <path
               d="m 0,0 h 2.209 v -3.87 c 1.088,2.464 3.239,4.213 6.048,4.128 V -2.12 H 8.085 c -3.239,0 -5.876,-2.325 -5.876,-6.794 v -5.905 H 0 Z"
               style="fill:#122537;fill-opacity:1;fill-rule:nonzero;stroke:none"
               id="path276" />
          </g>
          <g
             id="g278"
             transform="translate(2146.4492,161.7484)">
            <path
               d="m 0,0 1.119,1.576 c 1.605,-1.233 3.384,-1.893 5.131,-1.893 1.808,0 3.07,0.89 3.07,2.35 V 2.091 C 9.32,3.553 7.57,4.157 5.622,4.701 3.328,5.39 0.72,6.134 0.72,8.885 v 0.056 c 0,2.55 2.12,4.246 5.044,4.246 1.837,0 3.814,-0.631 5.334,-1.634 L 10.095,9.886 C 8.718,10.778 7.171,11.322 5.708,11.322 3.957,11.322 2.84,10.405 2.84,9.173 V 9.115 C 2.84,7.71 4.676,7.167 6.656,6.565 8.947,5.874 11.415,4.985 11.415,2.321 V 2.265 C 11.415,-0.544 9.092,-2.18 6.139,-2.18 3.988,-2.182 1.692,-1.348 0,0"
               style="fill:#122537;fill-opacity:1;fill-rule:nonzero;stroke:none"
               id="path280" />
          </g>
          <path
             d="m 2162.161,174.678 h 2.207 v -14.821 h -2.207 z m -0.141,5.673 h 2.523 v -2.436 h -2.523 z"
             style="fill:#122537;fill-opacity:1;fill-rule:nonzero;stroke:none"
             id="path282" />
          <g
             id="g284"
             transform="translate(2181.4885,167.2502)">
            <path
               d="m 0,0 v 0.06 c 0,3.409 -2.612,5.702 -5.363,5.702 -2.866,0 -5.218,-2.122 -5.218,-5.702 V 0 c 0,-3.524 2.378,-5.731 5.218,-5.731 C -2.612,-5.731 0,-3.41 0,0 m -12.846,-0.025 v 0.054 c 0,4.817 3.526,7.713 7.08,7.713 2.753,0 4.529,-1.463 5.677,-3.15 v 8.945 H 2.118 V -7.392 h -2.207 v 2.981 c -1.233,-1.777 -2.924,-3.299 -5.677,-3.299 -3.554,0 -7.08,2.806 -7.08,7.685"
               style="fill:#122537;fill-opacity:1;fill-rule:nonzero;stroke:none"
               id="path286" />
          </g>
          <g
             id="g288"
             transform="translate(2198.3174,165.3012)">
            <path
               d="M 0,0 V 1.378 C -1.117,1.692 -2.494,2.01 -4.329,2.01 -7.08,2.01 -8.658,0.834 -8.658,-0.972 V -1.03 c 0,-1.861 1.75,-2.951 3.727,-2.951 C -2.205,-3.983 0,-2.376 0,0 m -10.894,-1.146 v 0.056 c 0,3.181 2.58,4.848 6.335,4.848 1.922,0 3.184,-0.261 4.528,-0.635 v 0.459 c 0,2.637 -1.603,4.013 -4.387,4.013 -1.745,0 -3.123,-0.401 -4.499,-1.059 l -0.659,1.805 c 1.634,0.774 3.212,1.262 5.392,1.262 2.091,0 3.7,-0.548 4.784,-1.636 1.034,-1.03 1.549,-2.494 1.549,-4.356 v -9.059 h -2.18 v 2.207 c -1.032,-1.348 -2.722,-2.525 -5.332,-2.525 -2.78,0.004 -5.531,1.553 -5.531,4.62"
               style="fill:#122537;fill-opacity:1;fill-rule:nonzero;stroke:none"
               id="path290" />
          </g>
          <g
             id="g292"
             transform="translate(2217.1274,167.2502)">
            <path
               d="m 0,0 v 0.06 c 0,3.409 -2.61,5.702 -5.361,5.702 -2.868,0 -5.214,-2.122 -5.214,-5.702 V 0 c 0,-3.524 2.377,-5.731 5.214,-5.731 C -2.61,-5.731 0,-3.41 0,0 m -12.842,-0.025 v 0.054 c 0,4.817 3.525,7.713 7.08,7.713 2.753,0 4.53,-1.463 5.679,-3.15 v 8.945 H 2.122 V -7.392 h -2.205 v 2.981 c -1.234,-1.777 -2.926,-3.299 -5.679,-3.299 -3.558,0 -7.08,2.806 -7.08,7.685"
               style="fill:#122537;fill-opacity:1;fill-rule:nonzero;stroke:none"
               id="path294" />
          </g>
          <g
             id="g296"
             transform="translate(2233.1567,179.9246)">
            <path
               d="M 0,0 H 2.12 L 14.767,-16.085 V 0 h 2.209 v -20.068 h -1.81 L 2.207,-3.615 V -20.068 H 0 Z"
               style="fill:#122537;fill-opacity:1;fill-rule:nonzero;stroke:none"
               id="path298" />
          </g>
          <g
             id="g300"
             transform="translate(2265.2126,165.3012)">
            <path
               d="M 0,0 V 1.378 C -1.119,1.692 -2.492,2.01 -4.333,2.01 -7.084,2.01 -8.66,0.834 -8.66,-0.972 V -1.03 c 0,-1.861 1.75,-2.951 3.729,-2.951 C -2.209,-3.983 0,-2.376 0,0 m -10.896,-1.146 v 0.056 c 0,3.181 2.582,4.848 6.34,4.848 1.923,0 3.183,-0.261 4.525,-0.635 v 0.459 c 0,2.637 -1.601,4.013 -4.387,4.013 -1.743,0 -3.123,-0.401 -4.5,-1.059 l -0.658,1.805 c 1.632,0.774 3.214,1.262 5.39,1.262 2.091,0 3.696,-0.548 4.786,-1.636 1.034,-1.03 1.545,-2.494 1.545,-4.356 v -9.059 h -2.178 v 2.207 c -1.034,-1.348 -2.72,-2.525 -5.332,-2.525 -2.776,0.004 -5.531,1.553 -5.531,4.62"
               style="fill:#122537;fill-opacity:1;fill-rule:nonzero;stroke:none"
               id="path302" />
          </g>
          <g
             id="g304"
             transform="translate(2271.1226,167.1938)">
            <path
               d="m 0,0 v 0.056 c 0,4.215 3.239,7.739 7.595,7.739 2.81,0 4.531,-1.146 5.938,-2.637 L 12.066,3.613 C 10.898,4.846 9.605,5.849 7.566,5.849 4.561,5.849 2.263,3.326 2.263,0.118 v -0.06 c 0,-3.21 2.355,-5.762 5.45,-5.762 1.923,0 3.359,0.947 4.527,2.207 l 1.406,-1.318 C 12.155,-6.505 10.381,-7.684 7.595,-7.684 3.239,-7.684 0,-4.157 0,0"
               style="fill:#122537;fill-opacity:1;fill-rule:nonzero;stroke:none"
               id="path306" />
          </g>
          <path
             d="m 2288.614,174.678 h 2.205 v -14.821 h -2.205 z m -0.143,5.673 h 2.523 v -2.436 h -2.523 z"
             style="fill:#122537;fill-opacity:1;fill-rule:nonzero;stroke:none"
             id="path308" />
          <g
             id="g310"
             transform="translate(2308.2222,167.1938)">
            <path
               d="m 0,0 v 0.056 c 0,3.183 -2.379,5.793 -5.502,5.793 -3.212,0 -5.421,-2.61 -5.421,-5.731 v -0.06 c 0,-3.181 2.35,-5.762 5.475,-5.762 C -2.234,-5.706 0,-3.098 0,0 m -13.185,0 v 0.056 c 0,4.215 3.237,7.739 7.737,7.739 4.472,0 7.715,-3.495 7.715,-7.679 v -0.06 c 0,-4.213 -3.297,-7.74 -7.769,-7.74 -4.444,0 -7.683,3.498 -7.683,7.684"
               style="fill:#122537;fill-opacity:1;fill-rule:nonzero;stroke:none"
               id="path312" />
          </g>
          <g
             id="g314"
             transform="translate(2314.4753,174.6772)">
            <path
               d="m 0,0 h 2.209 v -2.581 c 1.001,1.605 2.521,2.893 5.073,2.893 3.556,0 5.677,-2.407 5.677,-5.929 v -9.204 h -2.206 v 8.66 c 0,2.748 -1.467,4.469 -4.1,4.469 -2.552,0 -4.442,-1.863 -4.442,-4.643 v -8.486 H 0.002 V 0 Z"
               style="fill:#122537;fill-opacity:1;fill-rule:nonzero;stroke:none"
               id="path316" />
          </g>
          <g
             id="g318"
             transform="translate(2341.916,165.3012)">
            <path
               d="M 0,0 V 1.378 C -1.119,1.692 -2.492,2.01 -4.333,2.01 -7.088,2.01 -8.662,0.834 -8.662,-0.972 V -1.03 c 0,-1.861 1.748,-2.951 3.727,-2.951 C -2.209,-3.983 0,-2.376 0,0 m -10.896,-1.146 v 0.056 c 0,3.181 2.58,4.848 6.34,4.848 1.919,0 3.179,-0.261 4.525,-0.635 v 0.459 c 0,2.637 -1.605,4.013 -4.387,4.013 -1.748,0 -3.123,-0.401 -4.502,-1.059 l -0.66,1.805 c 1.636,0.774 3.214,1.262 5.394,1.262 2.091,0 3.696,-0.548 4.786,-1.636 1.03,-1.03 1.547,-2.494 1.547,-4.356 v -9.059 h -2.18 v 2.207 c -1.034,-1.348 -2.72,-2.525 -5.336,-2.525 -2.776,0.004 -5.527,1.553 -5.527,4.62"
               style="fill:#122537;fill-opacity:1;fill-rule:nonzero;stroke:none"
               id="path320" />
          </g>
          <path
             d="m 2348.941,180.786 h 2.209 v -20.929 h -2.209 z"
             style="fill:#122537;fill-opacity:1;fill-rule:nonzero;stroke:none"
             id="path322" />
          <g
             id="g324"
             transform="translate(2067.2798,132.8443)">
            <path
               d="m 0,0 v 0.056 c 0,3.412 -2.61,5.708 -5.361,5.708 -2.869,0 -5.216,-2.122 -5.216,-5.708 V 0 c 0,-3.526 2.378,-5.733 5.216,-5.733 C -2.606,-5.735 0,-3.415 0,0 m -12.842,-0.031 v 0.058 c 0,4.817 3.527,7.713 7.082,7.713 2.753,0 4.527,-1.463 5.677,-3.155 v 8.944 H 2.122 V -7.398 h -2.207 v 2.98 c -1.235,-1.778 -2.924,-3.297 -5.677,-3.297 -3.553,0.002 -7.08,2.811 -7.08,7.684"
               style="fill:#122537;fill-opacity:1;fill-rule:nonzero;stroke:none"
               id="path326" />
          </g>
          <g
             id="g328"
             transform="translate(2085.2034,133.7309)">
            <path
               d="M 0,0 C -0.228,2.666 -1.837,4.987 -4.73,4.987 -7.253,4.987 -9.231,2.869 -9.547,0 Z m -9.547,-1.775 c 0.316,-3.127 2.608,-4.932 5.216,-4.932 2.064,0 3.439,0.827 4.674,2.095 l 1.376,-1.237 c -1.491,-1.69 -3.268,-2.78 -6.106,-2.78 -4.041,0 -7.396,3.123 -7.396,7.74 0,4.298 2.981,7.741 7.111,7.741 4.384,0 6.908,-3.499 6.908,-7.855 0,-0.203 0,-0.43 -0.029,-0.774 H -9.547 Z"
               style="fill:#122537;fill-opacity:1;fill-rule:nonzero;stroke:none"
               id="path330" />
          </g>
          <g
             id="g332"
             transform="translate(2108.7419,135.767)">
            <path
               d="m 0,0 c 2.18,0 3.384,1.119 3.384,2.842 v 0.053 c 0,1.924 -1.291,2.867 -3.469,2.867 H -4.472 V 0 Z M -8.885,9.75 H 0.287 C 2.84,9.75 4.786,9.061 6.136,7.712 7.282,6.569 7.857,5.044 7.857,3.125 V 3.071 c 0,-3.239 -1.748,-5.276 -4.3,-6.223 l 4.902,-7.167 h -5.16 l -4.3,6.42 H -1.059 -4.47 v -6.42 h -4.415 z"
               style="fill:#122537;fill-opacity:1;fill-rule:nonzero;stroke:none"
               id="path334" />
          </g>
          <g
             id="g336"
             transform="translate(2123.854,147.5786)">
            <path
               d="M 0,0 3.756,-1.632 0.087,-5.075 h -3.324 z m -3.526,-6.767 h 4.358 v -15.365 h -4.358 z"
               style="fill:#122537;fill-opacity:1;fill-rule:nonzero;stroke:none"
               id="path338" />
          </g>
          <g
             id="g340"
             transform="translate(2140.3696,133.0422)">
            <path
               d="m 0,0 v 0.056 c 0,2.265 -1.636,4.242 -4.043,4.242 -2.495,0 -3.984,-1.888 -3.984,-4.18 v -0.06 c 0,-2.265 1.634,-4.24 4.041,-4.24 C -1.489,-4.182 0,-2.29 0,0 m -12.329,0 v 0.056 c 0,4.416 3.555,8.002 8.343,8.002 4.73,0 8.286,-3.502 8.286,-7.942 v -0.06 c 0,-4.414 -3.556,-7.996 -8.343,-7.996 -4.731,0 -8.286,3.502 -8.286,7.94"
               style="fill:#122537;fill-opacity:1;fill-rule:nonzero;stroke:none"
               id="path342" />
          </g>
          <g
             id="g344"
             transform="translate(2156.8877,145.5163)">
            <path
               d="m 0,0 h 4.07 l 9.402,-12.358 V 0 h 4.356 V -20.068 H 14.074 L 4.354,-7.311 V -20.068 H 0 Z"
               style="fill:#122537;fill-opacity:1;fill-rule:nonzero;stroke:none"
               id="path346" />
          </g>
          <g
             id="g348"
             transform="translate(2189.1699,134.3328)">
            <path
               d="M 0,0 C -0.259,1.946 -1.402,3.266 -3.237,3.266 -5.073,3.266 -6.217,1.979 -6.562,0 Z m -10.836,-1.291 v 0.056 c 0,4.387 3.123,8 7.597,8 5.129,0 7.481,-3.983 7.481,-8.343 0,-0.345 -0.029,-0.718 -0.058,-1.144 H -6.507 c 0.43,-1.981 1.808,-3.009 3.754,-3.009 1.462,0 2.494,0.455 3.727,1.576 l 2.495,-2.209 c -1.463,-1.804 -3.498,-2.867 -6.276,-2.867 -4.616,0 -8.029,3.241 -8.029,7.94"
               style="fill:#122537;fill-opacity:1;fill-rule:nonzero;stroke:none"
               id="path350" />
          </g>
          <g
             id="g352"
             transform="translate(2207.8083,133.8764)">
            <path
               d="m 0,0 v 0.056 c 0,2.093 -1.607,3.555 -3.754,3.555 -2.122,0 -3.727,-1.462 -3.727,-3.555 V 0 c 0,-2.153 1.576,-3.555 3.727,-3.555 C -1.607,-3.555 0,-2.093 0,0 m -11.067,-11.469 1.491,3.27 c 1.605,-0.891 3.127,-1.406 5.191,-1.406 2.981,0 4.385,1.433 4.385,4.186 v 0.743 c -1.291,-1.579 -2.695,-2.495 -5.018,-2.495 -3.582,0 -6.823,2.579 -6.823,7.169 v 0.058 c 0,4.587 3.297,7.168 6.823,7.168 2.383,0 3.783,-1.003 4.96,-2.293 V 6.937 H 4.298 V -4.96 c 0,-2.722 -0.658,-4.761 -1.946,-6.047 -1.465,-1.465 -3.644,-2.067 -6.625,-2.067 -2.521,-0.002 -4.842,0.573 -6.794,1.605"
               style="fill:#122537;fill-opacity:1;fill-rule:nonzero;stroke:none"
               id="path354" />
          </g>
          <g
             id="g356"
             transform="translate(2216.0127,140.8103)">
            <path
               d="M 0,0 H 4.356 V -3.092 C 5.243,-0.997 6.652,0.401 9.26,0.292 V -4.267 H 9.03 c -2.891,0 -4.674,-1.723 -4.674,-5.421 v -5.675 H 0 Z"
               style="fill:#122537;fill-opacity:1;fill-rule:nonzero;stroke:none"
               id="path358" />
          </g>
          <g
             id="g360"
             transform="translate(2239.5796,133.0422)">
            <path
               d="m 0,0 v 0.056 c 0,2.265 -1.636,4.242 -4.043,4.242 -2.497,0 -3.986,-1.888 -3.986,-4.18 v -0.06 c 0,-2.265 1.634,-4.24 4.041,-4.24 C -1.493,-4.182 0,-2.29 0,0 m -12.327,0 v 0.056 c 0,4.416 3.553,8.002 8.341,8.002 4.733,0 8.288,-3.502 8.288,-7.942 v -0.06 c 0,-4.414 -3.555,-7.996 -8.344,-7.996 -4.732,0 -8.285,3.502 -8.285,7.94"
               style="fill:#122537;fill-opacity:1;fill-rule:nonzero;stroke:none"
               id="path362" />
          </g>
        </g>
      </g>
      <g
         id="g364"
         transform="matrix(0.35277777,0,0,-0.35277777,4.3998021,1208.2214)">
        <g
           id="g366"
           clip-path="url(#clipPath370)">
          <g
             id="g372"
             transform="translate(192.1885,151.4632)">
            <path
               d="m 0,0 c 0,-17.061 -13.825,-30.886 -30.886,-30.886 -17.058,0 -30.887,13.825 -30.887,30.886 0,17.054 13.829,30.887 30.887,30.887 C -13.825,30.887 0,17.054 0,0"
               style="fill:#122537;fill-opacity:1;fill-rule:nonzero;stroke:none"
               id="path374" />
          </g>
          <g
             id="g376"
             transform="translate(267.2644,151.4632)">
            <path
               d="m 0,0 c 0,-17.061 -13.825,-30.886 -30.887,-30.886 -17.056,0 -30.886,13.825 -30.886,30.886 0,17.054 13.83,30.887 30.886,30.887 C -13.825,30.887 0,17.054 0,0"
               style="fill:#122537;fill-opacity:1;fill-rule:nonzero;stroke:none"
               id="path378" />
          </g>
          <g
             id="g380"
             transform="translate(342.3405,151.4632)">
            <path
               d="m 0,0 c 0,-17.061 -13.825,-30.886 -30.886,-30.886 -17.054,0 -30.887,13.825 -30.887,30.886 0,17.054 13.833,30.887 30.887,30.887 C -13.825,30.887 0,17.054 0,0"
               style="fill:#122537;fill-opacity:1;fill-rule:nonzero;stroke:none"
               id="path382" />
          </g>
          <g
             id="g384"
             transform="translate(417.4165,151.4632)">
            <path
               d="m 0,0 c 0,-17.061 -13.825,-30.886 -30.886,-30.886 -17.054,0 -30.887,13.825 -30.887,30.886 0,17.054 13.833,30.887 30.887,30.887 C -13.825,30.887 0,17.054 0,0"
               style="fill:#122537;fill-opacity:1;fill-rule:nonzero;stroke:none"
               id="path386" />
          </g>
          <g
             id="g388"
             transform="translate(492.257,151.4611)">
            <path
               d="m 0,0 c 0,-16.992 -13.775,-30.767 -30.768,-30.767 -16.994,0 -30.77,13.775 -30.77,30.767 0,16.992 13.776,30.772 30.77,30.772 C -13.775,30.772 0,16.992 0,0"
               style="fill:#122537;fill-opacity:1;fill-rule:nonzero;stroke:none"
               id="path390" />
          </g>
          <g
             id="g392"
             transform="translate(168.6719,166.3769)">
            <path
               d="m 0,0 v -4.802 h -2.853 c -1.046,0 -1.747,-0.219 -2.111,-0.657 -0.364,-0.432 -0.547,-1.089 -0.547,-1.959 v -3.437 h 5.331 l -0.711,-5.388 h -4.62 v -13.796 h -5.562 v 13.796 h -4.636 v 5.388 h 4.636 v 3.96 c 0,2.256 0.629,4.003 1.891,5.247 1.259,1.245 2.938,1.86 5.035,1.86 C -2.365,0.212 -0.98,0.141 0,0"
               style="fill:#ffffff;fill-opacity:1;fill-rule:nonzero;stroke:none"
               id="path394" />
          </g>
          <g
             id="g396"
             transform="translate(244.834,159.9263)">
            <path
               d="m 0,0 c 0.322,-0.325 0.485,-0.707 0.485,-1.164 0,-0.45 -0.163,-0.831 -0.485,-1.156 -0.319,-0.319 -0.707,-0.478 -1.156,-0.478 -0.451,0 -0.839,0.159 -1.157,0.478 -0.319,0.325 -0.482,0.706 -0.482,1.156 0,0.457 0.163,0.839 0.482,1.164 0.318,0.318 0.706,0.477 1.157,0.477 C -0.707,0.477 -0.319,0.318 0,0 m -5.236,-11.683 c 0.893,0.886 1.337,1.96 1.337,3.22 0,1.26 -0.444,2.334 -1.337,3.227 -0.886,0.887 -1.963,1.33 -3.22,1.33 -1.26,0 -2.334,-0.443 -3.224,-1.33 -0.89,-0.893 -1.336,-1.967 -1.336,-3.227 0,-1.26 0.446,-2.334 1.336,-3.22 0.89,-0.893 1.964,-1.337 3.224,-1.337 1.257,0 2.334,0.444 3.22,1.337 m 1.745,8.193 c 1.368,-1.372 2.05,-3.027 2.05,-4.973 0,-1.946 -0.682,-3.601 -2.05,-4.965 -1.364,-1.372 -3.019,-2.05 -4.965,-2.05 -1.946,0 -3.605,0.678 -4.969,2.05 -1.368,1.364 -2.047,3.019 -2.047,4.965 0,1.946 0.679,3.601 2.047,4.973 1.364,1.364 3.023,2.043 4.969,2.043 1.946,0 3.601,-0.679 4.965,-2.043 M -7.095,2.763 C -7.919,2.756 -8.373,2.756 -8.456,2.756 c -0.083,0 -0.54,0 -1.364,0.007 -0.824,0.007 -1.451,0.007 -1.877,0 -0.429,-0.007 -1.001,-0.021 -1.718,-0.049 -0.72,-0.034 -1.329,-0.089 -1.835,-0.18 -0.506,-0.09 -0.928,-0.2 -1.274,-0.332 -0.596,-0.236 -1.115,-0.582 -1.565,-1.032 -0.454,-0.45 -0.797,-0.969 -1.035,-1.565 -0.129,-0.346 -0.239,-0.769 -0.329,-1.274 -0.091,-0.506 -0.149,-1.115 -0.18,-1.836 -0.028,-0.72 -0.045,-1.288 -0.053,-1.717 -0.003,-0.429 -0.003,-1.053 0,-1.877 0.008,-0.824 0.011,-1.281 0.011,-1.364 0,-0.083 -0.003,-0.533 -0.011,-1.364 -0.003,-0.824 -0.003,-1.448 0,-1.877 0.008,-0.429 0.025,-0.997 0.053,-1.717 0.031,-0.72 0.089,-1.33 0.18,-1.836 0.09,-0.505 0.2,-0.928 0.329,-1.274 0.238,-0.595 0.581,-1.115 1.035,-1.566 0.45,-0.449 0.969,-0.796 1.565,-1.031 0.346,-0.132 0.768,-0.242 1.274,-0.333 0.506,-0.089 1.115,-0.145 1.835,-0.173 0.717,-0.034 1.289,-0.048 1.718,-0.055 0.426,-0.007 1.053,-0.007 1.877,0 0.824,0.007 1.281,0.007 1.364,0.007 0.083,0 0.537,0 1.361,-0.007 0.827,-0.007 1.451,-0.007 1.88,0 0.426,0.007 0.997,0.021 1.718,0.055 0.72,0.028 1.329,0.084 1.835,0.173 0.506,0.091 0.928,0.201 1.274,0.333 0.592,0.235 1.115,0.582 1.565,1.031 0.45,0.451 0.796,0.971 1.032,1.566 0.132,0.346 0.242,0.769 0.333,1.274 0.086,0.506 0.145,1.116 0.176,1.836 0.031,0.72 0.045,1.288 0.052,1.717 0.007,0.429 0.007,1.053 0,1.877 -0.007,0.831 -0.007,1.281 -0.007,1.364 0,0.083 0,0.54 0.007,1.364 0.007,0.824 0.007,1.448 0,1.877 -0.007,0.429 -0.021,0.997 -0.052,1.717 -0.031,0.721 -0.09,1.33 -0.176,1.836 C 2.451,-1.164 2.341,-0.741 2.209,-0.395 1.973,0.201 1.627,0.72 1.177,1.17 0.727,1.62 0.204,1.966 -0.388,2.202 c -0.346,0.132 -0.768,0.242 -1.274,0.332 -0.506,0.091 -1.115,0.146 -1.835,0.18 -0.721,0.028 -1.292,0.042 -1.718,0.049 -0.429,0.007 -1.053,0.007 -1.88,0 M 5.221,-8.463 c 0,-2.715 -0.031,-4.599 -0.089,-5.644 -0.118,-2.472 -0.856,-4.384 -2.21,-5.734 -1.354,-1.351 -3.265,-2.092 -5.734,-2.21 -1.045,-0.055 -2.926,-0.089 -5.644,-0.089 -2.722,0 -4.602,0.034 -5.645,0.089 -2.472,0.118 -4.383,0.859 -5.733,2.21 -1.358,1.35 -2.092,3.262 -2.21,5.734 -0.062,1.045 -0.09,2.929 -0.09,5.644 0,2.722 0.028,4.598 0.09,5.644 0.118,2.472 0.852,4.384 2.21,5.734 1.35,1.358 3.261,2.092 5.733,2.209 1.043,0.063 2.923,0.091 5.645,0.091 2.718,0 4.599,-0.028 5.644,-0.091 2.469,-0.117 4.38,-0.851 5.734,-2.209 1.354,-1.35 2.092,-3.262 2.21,-5.734 0.058,-1.046 0.089,-2.922 0.089,-5.644"
               style="fill:#ffffff;fill-opacity:1;fill-rule:nonzero;stroke:none"
               id="path398" />
          </g>
          <g
             id="g400"
             transform="translate(327.1056,161.1564)">
            <path
               d="m 0,0 c -0.888,-1.297 -1.958,-2.402 -3.216,-3.321 0.011,-0.185 0.019,-0.463 0.019,-0.826 0,-1.723 -0.251,-3.445 -0.753,-5.16 -0.506,-1.714 -1.271,-3.36 -2.294,-4.935 -1.027,-1.576 -2.248,-2.966 -3.669,-4.179 -1.414,-1.212 -3.12,-2.178 -5.121,-2.896 -2,-0.726 -4.14,-1.089 -6.418,-1.089 -3.584,0 -6.87,0.958 -9.847,2.881 0.463,-0.054 0.981,-0.077 1.548,-0.077 2.978,0 5.635,0.911 7.963,2.741 -1.39,0.024 -2.634,0.456 -3.734,1.283 -1.097,0.826 -1.854,1.884 -2.263,3.166 0.436,-0.069 0.842,-0.1 1.213,-0.1 0.567,0 1.131,0.07 1.687,0.216 -1.483,0.309 -2.711,1.043 -3.684,2.217 -0.973,1.174 -1.46,2.533 -1.46,4.077 v 0.086 c 0.9,-0.51 1.865,-0.78 2.9,-0.819 -0.873,0.58 -1.568,1.344 -2.085,2.286 -0.518,0.935 -0.776,1.962 -0.776,3.059 0,1.166 0.289,2.247 0.876,3.236 1.599,-1.969 3.549,-3.553 5.847,-4.735 2.298,-1.189 4.757,-1.846 7.376,-1.977 -0.104,0.502 -0.154,0.996 -0.154,1.468 0,1.776 0.625,3.29 1.877,4.541 1.251,1.252 2.761,1.877 4.533,1.877 1.854,0 3.418,-0.68 4.688,-2.024 1.444,0.278 2.804,0.788 4.071,1.545 C -1.363,1.019 -2.305,-0.162 -3.695,-0.996 -2.464,-0.865 -1.232,-0.533 0,0"
               style="fill:#ffffff;fill-opacity:1;fill-rule:nonzero;stroke:none"
               id="path402" />
          </g>
        </g>
      </g>
      <text
         xml:space="preserve"
         transform="scale(0.993751,1.0062883)"
         style="font-variant:normal;font-weight:bold;font-stretch:normal;font-size:20.5438px;font-family:Roboto;-inkscape-font-specification:Roboto-Bold;writing-mode:lr-tb;fill:#122537;fill-opacity:1;fill-rule:nonzero;stroke:none;stroke-width:0.350573"
         id="text406"
         x="184.37413"
         y="1153.8105"><tspan
           x="184.37413 203.78804 216.31978 228.85152 237.37721 243.84853 256.48297 269.01471 281.14587 293.90356 302.0636"
           y="1153.8105"
           sodipodi:role="line"
           id="tspan404"
           style="stroke-width:0.350573">@unrionegro</tspan></text>
      <path
         d="m 372.712,141.317 h 6.058 V 160.8 h -6.058 z"
         style="fill:#ffffff;fill-opacity:1;fill-rule:nonzero;stroke:none"
         id="path416"
         clip-path="url(#clipPath996)"
         transform="matrix(0.35277777,0,0,-0.35277777,4.3998021,1208.2214)" />
      <path
         d="m 375.7555,163.4719 c 1.935,0 3.509,1.575 3.509,3.513 0,1.937 -1.574,3.51 -3.509,3.51 -1.942,0 -3.51,-1.573 -3.51,-3.51 0,-1.938 1.568,-3.513 3.51,-3.513"
         style="fill:#ffffff;fill-opacity:1;fill-rule:nonzero;stroke:none"
         id="path420"
         clip-path="url(#clipPath1054)"
         transform="matrix(0.35277777,0,0,-0.35277777,4.3998021,1208.2214)" />
      <path
         d="m 401.4642,152.0203 c 0,5.247 -1.133,9.281 -7.26,9.281 -2.945,0 -4.923,-1.614 -5.731,-3.146 h -0.083 v 2.661 h -5.808 v -19.483 h 6.054 v 9.639 c 0,2.541 0.48,5.004 3.632,5.004 3.102,0 3.147,-2.908 3.147,-5.167 v -9.476 h 6.049 z"
         style="fill:#ffffff;fill-opacity:1;fill-rule:nonzero;stroke:none"
         id="path424"
         clip-path="url(#clipPath1024)"
         transform="matrix(0.35277777,0,0,-0.35277777,4.3998021,1208.2214)" />
      <path
         d="m 466.6304,151.7911 -8.32,-4.495 -0.004,6.921 v 2.104 l 3.753,-2.045 z m 9.955,6.096 c 0,0 -0.299,2.215 -1.221,3.188 -1.172,1.278 -2.485,1.286 -3.089,1.36 -4.314,0.323 -10.779,0.323 -10.779,0.323 h -0.014 c 0,0 -6.469,0 -10.779,-0.323 -0.603,-0.074 -1.916,-0.082 -3.089,-1.36 -0.921,-0.973 -1.223,-3.192 -1.223,-3.192 0,0 -0.307,-2.594 -0.307,-5.197 v -0.312 -2.124 c 0,-2.602 0.307,-5.201 0.307,-5.201 0,0 0.302,-2.215 1.223,-3.188 1.173,-1.278 2.716,-1.239 3.398,-1.371 2.466,-0.248 10.477,-0.327 10.477,-0.327 0,0 6.472,0.015 10.786,0.338 0.604,0.074 1.917,0.082 3.089,1.36 0.922,0.973 1.221,3.188 1.221,3.188 0,0 0.309,2.599 0.309,5.201 v 1.989 0.447 c 0,2.603 -0.309,5.201 -0.309,5.201"
         style="fill:#ffffff;fill-opacity:1;fill-rule:nonzero;stroke:none"
         id="path428"
         clip-path="url(#clipPath1039)"
         transform="matrix(0.35277777,0,0,-0.35277777,4.3998021,1208.2214)" />
      <path
         d="M 1483.69,101.722 H 1069.192 V 204.196 H 1483.69 Z"
         style="fill:none;stroke:#ee223f;stroke-width:5;stroke-linecap:butt;stroke-linejoin:miter;stroke-miterlimit:10;stroke-dasharray:none;stroke-opacity:1"
         id="path430"
         clip-path="url(#clipPath972)"
         transform="matrix(0.35277777,0,0,-0.35277777,4.3998021,1208.2214)" />
      <path
         d="m 126.6702,283.8545 h 2237.554"
         style="fill:none;stroke:#122537;stroke-width:3;stroke-linecap:butt;stroke-linejoin:miter;stroke-miterlimit:10;stroke-dasharray:none;stroke-opacity:1"
         id="path434"
         clip-path="url(#clipPath1009)"
         transform="matrix(0.35277777,0,0,-0.35277777,4.3998021,1208.2214)" />
    </g>
    <path
       d="M 2591.131,2786.86 H -49.813 v 651.63 h 2640.944 z"
       style="fill:#ee223f;fill-opacity:1;fill-rule:nonzero;stroke:none"
       id="path436"
       clip-path="url(#clipPath960)"
       transform="matrix(0.32965125,0,0,-0.35277777,0,1200)" />
    <text
       xml:space="preserve"
       style="font-style:normal;font-variant:normal;font-weight:900;font-stretch:normal;font-size:62.2251px;font-family:Fabrikat;-inkscape-font-specification:'Fabrikat, Heavy';font-variant-ligatures:normal;font-variant-position:super;font-variant-caps:normal;font-variant-numeric:normal;font-variant-east-asian:normal;text-align:center;text-anchor:middle;fill:#ffffff;fill-opacity:1;stroke:none;stroke-width:3.80817;stroke-linecap:round;stroke-linejoin:round;paint-order:stroke markers fill"
       x="109.16798"
       y="84.14653"
       id="text1441"><tspan
         sodipodi:role="line"
         id="tspan1439"
         style="font-style:normal;font-variant:normal;font-weight:900;font-stretch:normal;font-size:62.2251px;font-family:Fabrikat;-inkscape-font-specification:'Fabrikat, Heavy';font-variant-ligatures:normal;font-variant-caps:normal;font-variant-numeric:normal;font-variant-east-asian:normal;fill:#ffffff;fill-opacity:1;stroke:none;stroke-width:3.80817"
         x="109.16798"
         y="84.14653">Título</tspan><tspan
         sodipodi:role="line"
         style="font-style:normal;font-variant:normal;font-weight:900;font-stretch:normal;font-size:62.2251px;font-family:Fabrikat;-inkscape-font-specification:'Fabrikat, Heavy';font-variant-ligatures:normal;font-variant-caps:normal;font-variant-numeric:normal;font-variant-east-asian:normal;fill:#ffffff;fill-opacity:1;stroke:none;stroke-width:3.80817"
         x="109.16798"
         y="161.9279"
         id="tspan7174" /></text>
  </g>
</svg>
