<?xml version="1.0" encoding="UTF-8" standalone="no"?>
<!-- Created with Inkscape (http://www.inkscape.org/) -->

<svg
   width="1920"
   height="1080"
   viewBox="0 0 508.00001 285.75"
   version="1.1"
   id="svg5"
   xml:space="preserve"
   inkscape:version="1.2.2 (b0a8486541, 2022-12-01)"
   sodipodi:docname="fondo_D.svg"
   inkscape:export-filename="fondo_D7.png"
   inkscape:export-xdpi="96"
   inkscape:export-ydpi="96"
   xmlns:inkscape="http://www.inkscape.org/namespaces/inkscape"
   xmlns:sodipodi="http://sodipodi.sourceforge.net/DTD/sodipodi-0.dtd"
   xmlns="http://www.w3.org/2000/svg"
   xmlns:svg="http://www.w3.org/2000/svg"><sodipodi:namedview
     id="namedview7"
     pagecolor="#ffffff"
     bordercolor="#000000"
     borderopacity="0.25"
     inkscape:showpageshadow="2"
     inkscape:pageopacity="0.0"
     inkscape:pagecheckerboard="0"
     inkscape:deskcolor="#d1d1d1"
     inkscape:document-units="mm"
     showgrid="false"
     inkscape:zoom="0.37638538"
     inkscape:cx="1184.9557"
     inkscape:cy="563.25248"
     inkscape:window-width="1920"
     inkscape:window-height="1022"
     inkscape:window-x="0"
     inkscape:window-y="576"
     inkscape:window-maximized="1"
     inkscape:current-layer="layer1" /><defs
     id="defs2" /><g
     inkscape:label="Layer 1"
     inkscape:groupmode="layer"
     id="layer1"><rect
       style="fill:#eb2141;fill-opacity:1;stroke-width:9.49042;stroke-linecap:round;stroke-linejoin:round;paint-order:stroke markers fill"
       id="rect530"
       width="509.42062"
       height="285.75"
       x="-0.71031189"
       y="-4.4686477e-14" /><path
       id="path3185"
       style="fill:#ffffff;fill-opacity:1;stroke-width:0.234171"
       d="M 0.034106445 0 L 0 0.034106445 L 0 8.3684814 C 1.4004979 8.0159155 2.9643887 7.6179455 3.5594727 7.459493 L 4.4545085 7.2212646 L 4.5692301 7.3354696 L 4.609021 7.1799235 L 4.7774862 7.1354818 L 4.652946 7.0104248 L 4.9516357 5.8513224 C 5.1622255 5.0349822 5.6027945 3.2474917 5.9309041 1.8789551 L 6.3815226 0 L 0.034106445 0 z M 8.2733968 0 L 8.5446981 0.27130127 C 10.959505 2.6861058 12.975585 4.6212749 13.025045 4.571814 C 13.053607 4.5432583 13.700607 1.8671068 14.18053 0 L 8.2733968 0 z M 15.672428 0 C 15.502925 0.6544879 15.463462 0.78290644 15.223877 1.7285767 L 14.296285 5.3888184 L 17.047021 8.0506714 L 19.798275 10.712524 L 23.38772 9.8097371 L 26.977165 8.9059163 L 27.865999 5.3583293 L 28.754834 1.8097087 L 26.945125 0 L 15.672428 0 z M 29.793014 0 L 30.467908 0.68626302 C 33.245285 3.5108762 35.583063 5.8235054 35.662423 5.8249674 C 35.724834 5.82604 36.493594 2.8984826 37.237004 0 L 29.793014 0 z M 42.68525 0 C 41.212219 0.35945025 39.872565 0.71008158 39.807906 0.76842855 C 39.736906 0.83166848 39.31812 2.2708936 38.87618 3.9666829 L 38.071578 7.0496989 L 40.545329 9.5322347 L 43.018563 12.013737 L 46.043701 11.267013 C 47.70741 10.856217 49.158271 10.42983 49.268311 10.319784 C 49.37835 10.209749 49.806664 8.7508193 50.219674 7.0781209 L 50.970532 4.0369629 L 48.465259 1.6221232 L 46.782674 0 L 42.68525 0 z M 51.25992 0 L 53.717135 2.5042399 C 56.195202 5.0300424 58.288224 7.0972435 58.368014 7.0987915 C 58.491065 7.1008866 59.456257 3.3506282 60.261438 0 L 51.25992 0 z M 74.191337 0 L 73.025 0.29352214 L 76.97618 4.3315186 C 79.149248 6.5525013 80.991744 8.3705508 81.070504 8.3720988 C 81.149304 8.3732988 81.814287 5.9760019 82.548966 3.0437419 C 82.845754 1.8591659 83.057706 0.88826633 83.246082 0 L 74.191337 0 z M 87.036031 0 C 87.00097 0.15293364 86.818783 0.84261935 86.816406 0.86919759 C 86.812037 0.91231746 88.646772 0.48349051 90.629093 0 L 87.036031 0 z M 111.04077 0 C 110.82351 0.94315453 110.50867 2.2191542 110.54674 2.2572266 C 110.60854 2.3190065 112.26596 1.9673064 114.23024 1.4758789 C 116.19451 0.98441439 118.18283 0.48883926 118.64857 0.37413737 L 119.49503 0.16484782 L 119.33018 0 L 111.04077 0 z M 134.97057 0 C 134.91896 0.20442493 134.91848 0.1942502 134.86515 0.40669352 L 133.96857 3.9806356 L 134.67808 3.7687622 C 135.06841 3.6520253 136.76485 3.2158455 138.44788 2.8003459 L 141.50764 2.0453532 L 139.46229 0 L 134.97057 0 z M 159.00373 0 C 158.77334 0.64168636 157.65296 5.2013039 157.71906 5.2673787 C 157.78596 5.3342787 163.20889 4.0051916 163.31923 3.8948527 C 163.36643 3.8476927 162.45447 2.8590444 161.29351 1.6980876 C 160.31576 0.7203287 159.71402 0.1966215 159.43678 0 L 159.00373 0 z M 171.24639 0 C 171.28002 0.0075540658 171.32997 -0.0042088091 171.36525 0 L 171.24639 0 z M 193.1448 0 C 193.2609 0.17049999 193.43335 0.35137824 193.74941 0.63510335 C 194.53602 1.3413246 194.72237 1.4030102 195.49246 1.2138794 C 195.90952 1.1113995 196.12843 1.0504776 196.28363 0.90175374 C 196.43882 0.75304192 196.53058 0.51674823 196.69497 0.062011719 C 196.70433 0.036120191 196.70632 0.024537146 196.71512 0 L 193.1448 0 z M 218.17945 0.29868978 C 218.00603 0.24109371 217.83211 0.24973333 217.63168 0.31625977 C 217.32998 0.41642364 217.06308 0.50780192 217.03895 0.51986491 C 217.01455 0.5320449 216.89661 0.81561248 216.77695 1.1508341 C 216.61193 1.6131387 216.68552 1.8866769 217.08236 2.2835815 C 217.61906 2.820266 218.22199 2.8600355 218.6466 2.4515299 C 218.78815 2.3153691 218.90909 2.1293793 219.00214 1.8954915 C 219.21873 1.3510701 219.16614 1.1210606 218.72463 0.67954508 C 218.52561 0.4805203 218.35287 0.35628584 218.17945 0.29868978 z M 106.25708 0.30799154 L 101.66718 1.4490072 C 99.143083 2.0765095 97.058944 2.6076597 97.036454 2.6298136 C 97.013954 2.6518736 98.556752 4.2312711 100.46467 6.1391602 L 103.93371 9.6081991 L 104.20708 8.5012899 C 104.35751 7.8926638 104.88045 5.8003495 105.36876 3.8514445 L 106.25708 0.30799154 z M 7.2191976 0.56947428 L 6.8786499 1.9332153 C 6.6912201 2.6834376 6.2616159 4.3699265 5.9241862 5.6807902 L 5.3107869 8.0641073 L 5.4823527 8.235673 L 5.3541951 8.7674235 C 5.2412353 9.2349417 4.8403731 10.80668 4.4632935 12.260234 C 4.0862238 13.713813 3.7970854 14.922504 3.8209554 14.946375 C 3.8528554 14.978304 9.0572032 13.692852 10.535791 13.289111 L 10.714591 13.467912 L 13.097909 12.854513 C 14.408777 12.517085 16.095254 12.087462 16.845483 11.900049 L 18.209224 11.559501 L 12.714469 6.0642293 L 7.2191976 0.56947428 z M 69.038163 1.9895426 L 66.134465 2.7042277 L 63.229732 3.418396 L 62.553805 6.1861857 L 61.877877 8.955009 L 64.020382 11.180713 L 66.16237 13.407967 L 68.945146 12.696899 C 70.537164 12.290076 71.235435 12.199833 71.654024 11.715047 C 72.072584 11.230273 72.211363 10.351051 72.686003 8.3643473 L 73.212069 6.1634481 L 71.125374 4.0767537 L 69.038163 1.9895426 z M 182.38525 2.3326742 L 181.9212 4.0602173 C 181.12075 7.0405493 181.0309 6.8678695 183.11544 6.358785 C 184.3654 6.0535153 185.05479 5.9176314 185.27758 5.7040446 C 185.56403 5.4294329 185.0795 5.0263917 184.02236 3.9692668 L 182.38525 2.3326742 z M 128.60094 3.0535604 L 126.57367 3.5667074 C 125.45837 3.8488371 123.71492 4.2719287 122.7 4.5072184 L 120.85464 4.9345825 L 122.20598 6.3794556 C 122.94885 7.1738628 124.25968 8.4846869 125.11949 9.2929728 L 126.68322 10.762651 L 127.64182 6.9081055 L 128.60094 3.0535604 z M 240.8654 3.1548462 C 240.76971 3.1546216 240.6647 3.2157326 240.54242 3.3382975 C 240.29788 3.5828353 240.29847 3.7590108 240.54346 3.9279256 C 240.7361 4.0603445 241.00107 4.060593 241.13257 3.9289591 L 241.13309 3.9284424 C 241.26459 3.7969365 241.26417 3.5319339 241.13205 3.3393311 C 241.04758 3.2164647 240.9611 3.1550708 240.8654 3.1548462 z M 30.490645 3.3827393 L 29.179097 8.6465007 C 28.457858 11.541861 27.709576 14.532449 27.516667 15.29209 L 27.165784 16.673401 L 33.234664 15.164966 C 36.572431 14.335441 39.557341 13.582521 39.867851 13.491166 L 40.432674 13.324251 L 35.461918 8.3534953 L 30.490645 3.3827393 z M 91.594409 4.8994425 L 89.245199 5.4735677 C 87.95342 5.7891834 86.860003 6.0836722 86.815373 6.1283081 C 86.770673 6.1729081 86.476252 7.2663532 86.160632 8.558134 L 85.586507 10.907345 L 87.41637 12.827641 L 89.245199 14.748454 L 91.550484 14.163993 C 92.818353 13.842236 93.947649 13.486121 94.060409 13.373344 C 94.173128 13.260629 94.529318 12.131266 94.851058 10.86342 L 95.436035 8.558134 L 93.515222 6.7287882 L 91.594409 4.8994425 z M 205.59159 5.5267944 C 205.41079 5.7075903 204.92368 7.9842844 205.04071 8.1013143 C 205.17168 8.2322832 207.38873 7.7831586 207.5863 7.5855835 C 207.6374 7.5345235 207.22321 7.0369733 206.66594 6.4797078 C 206.10868 5.9224424 205.62492 5.4934555 205.59159 5.5267944 z M 150.85694 5.8869792 C 150.81214 5.8388492 149.40979 6.1485184 147.74034 6.575826 L 144.70486 7.3530396 L 145.82831 8.5720866 C 146.44643 9.2425916 147.49529 10.291459 148.15892 10.902694 L 149.36556 12.014254 L 150.15208 8.994283 C 150.58461 7.333344 150.90166 5.9351361 150.85694 5.8869792 z M 53.676827 6.4362996 L 53.417928 7.5571615 C 53.275308 8.1735881 52.63809 10.751485 52.002511 13.286011 C 51.366901 15.820525 50.890764 17.938238 50.944694 17.992183 C 50.998594 18.046163 53.612411 17.444803 56.752608 16.655831 L 62.46182 15.221293 L 58.069324 10.828796 L 53.676827 6.4362996 z M 114.39198 7.7338949 L 112.50786 8.200533 L 112.50734 8.2010498 C 111.47106 8.4575762 110.54714 8.7370392 110.45527 8.8237508 C 110.36277 8.9099007 110.0631 9.8939258 109.78916 11.010697 L 109.29152 13.041064 L 110.88367 14.540715 L 112.47634 16.040365 L 114.3248 15.615584 C 115.34156 15.382148 116.27865 15.096947 116.40788 14.981514 C 116.53703 14.865997 116.86281 13.912824 117.13187 12.863814 L 117.62124 10.956437 L 116.00687 9.3456828 L 114.39198 7.7338949 z M 4.2633057 8.2454915 C 4.2329058 8.2147655 1.7233874 8.8252642 0 9.2294108 L 0 22.301998 C 0.20330976 22.47826 0.68841892 22.943015 0.69711507 22.921598 C 0.94067479 22.32155 4.3418256 8.3248422 4.2633057 8.2454915 z M 173.12638 8.6625203 C 173.06488 8.6024404 172.05346 8.7971129 170.87898 9.0945353 C 169.7045 9.3919697 168.68611 9.6874956 168.61658 9.7518595 C 168.54698 9.8161995 169.29566 10.674331 170.28005 11.65872 L 172.07012 13.448792 L 172.30369 12.464355 C 172.43219 11.923114 172.69485 10.870869 172.88764 10.125997 C 173.0804 9.3811243 173.18796 8.7225943 173.12638 8.6625203 z M 228.79534 8.7121297 C 228.67923 8.7666246 228.60948 8.9727904 228.55918 9.3425822 C 228.49468 9.8160967 228.5322 9.835801 229.10901 9.6299032 C 229.39661 9.5273013 229.54365 9.4643586 229.57048 9.3787557 C 229.59728 9.2932158 229.50399 9.1846047 229.30952 8.9901489 C 229.07396 8.7545858 228.91144 8.6576348 228.79534 8.7121297 z M 76.964811 9.5296509 C 76.851121 9.6423668 74.593908 18.779907 74.585628 19.161104 C 74.578628 19.488625 75.446392 19.354192 78.805009 18.508948 C 81.130477 17.923729 83.385096 17.359058 83.815556 17.253727 L 84.597937 17.062524 L 80.806954 13.271025 C 78.721796 11.185874 76.992691 9.5020389 76.964811 9.5296509 z M 137.41797 10.593152 L 135.64598 11.0231 L 133.874 11.454081 L 133.57841 12.622485 C 133.01687 14.841201 132.98165 14.681525 134.3427 16.098242 L 135.58811 17.394287 L 137.26759 16.972091 L 138.94656 16.549377 L 139.40131 14.88488 L 139.85555 13.219865 L 138.63702 11.906767 L 137.41797 10.593152 z M 25.990662 11.231356 C 25.680802 11.283026 22.649442 12.014977 19.255155 12.857613 L 13.083956 14.389819 L 15.551506 16.946769 C 16.908534 18.353105 19.17788 20.622433 20.594609 21.989872 L 23.170162 24.476025 L 24.862048 17.807182 C 26.432567 11.615092 26.513691 11.144108 25.990662 11.231356 z M 195.58238 11.246342 L 194.19228 11.592057 C 193.42773 11.781968 192.74355 11.988131 192.67144 12.04991 C 192.59914 12.11169 193.03358 12.655964 193.63728 13.259656 C 194.24098 13.86336 194.78886 14.301219 194.85322 14.231689 C 194.91802 14.1626 195.10828 13.462532 195.27645 12.676229 L 195.58238 11.246342 z M 100.19905 12.368237 L 99.218233 16.338538 C 98.678504 18.522427 98.197828 20.479607 98.150598 20.687626 C 98.085298 20.975191 98.338339 20.99436 99.206348 20.768758 C 99.834214 20.605546 101.78707 20.121079 103.54562 19.691821 L 106.74284 18.911507 L 103.47069 15.639872 L 100.19905 12.368237 z M 160.02951 13.432255 L 158.80684 13.746448 L 158.80633 13.746965 C 158.13401 13.919986 157.55401 14.082691 157.51648 14.108183 C 157.47928 14.134013 157.29988 14.721893 157.11806 15.414563 L 156.78733 16.674434 L 157.80174 17.688326 L 158.81666 18.703251 L 160.07137 18.416447 L 161.3271 18.129643 L 161.70021 16.797424 L 162.07331 15.465206 L 161.05115 14.44873 L 160.02951 13.432255 z M 48.590833 13.908712 C 48.443083 13.908274 46.80586 14.291108 44.952812 14.759823 C 43.099744 15.228548 40.579805 15.850206 39.352637 16.141134 C 38.125488 16.432049 37.059523 16.718074 36.984823 16.777271 C 36.910023 16.83637 38.865259 18.902133 41.329777 21.366654 L 45.81064 25.847001 L 45.978072 25.283211 C 46.906791 22.146685 48.798992 13.909346 48.590833 13.908712 z M 217.84768 13.963489 L 217.09993 14.172262 C 216.68901 14.287169 216.33195 14.396266 216.30618 14.415141 C 216.28008 14.433781 216.52423 14.71485 216.8493 15.039909 C 217.26868 15.459296 217.49782 15.58712 217.63116 15.384074 C 217.71116 15.262219 217.75671 15.021772 217.78826 14.653369 L 217.84768 13.963489 z M 11.067542 15.032674 L 7.7245931 15.837793 C 5.8862449 16.281028 4.2678833 16.749095 4.1279134 16.877006 C 3.9880336 17.005015 3.5138573 18.57695 3.0747477 20.370333 L 2.2763468 23.631116 L 4.9268311 26.365833 L 7.5762817 29.101066 L 9.715686 28.556913 C 10.892134 28.2577 12.454003 27.865003 13.186792 27.684098 L 14.519527 27.355436 L 15.386658 23.876579 L 16.253788 20.397721 L 13.660665 17.714681 L 11.067542 15.032674 z M 123.38472 15.420764 L 123.1284 16.544727 C 122.98748 17.16287 122.59595 18.738384 122.25765 20.046322 C 121.91937 21.35426 121.74634 22.423773 121.8737 22.422921 C 122.21485 22.420521 128.43529 20.877564 128.54513 20.767725 C 128.59663 20.716185 127.4568 19.492849 126.01195 18.047994 L 123.38472 15.420764 z M 182.44881 16.465662 C 182.33086 16.467236 182.20071 16.48849 182.04522 16.524056 C 181.10827 16.738386 181.10611 16.739463 180.76571 17.749821 C 180.50197 18.532675 180.54002 18.670844 181.19204 19.322852 C 181.82331 19.954119 182.01288 20.015316 182.81623 19.840649 C 183.25539 19.74512 183.48588 19.688028 183.6415 19.549711 C 183.79715 19.411393 183.87799 19.191268 184.01978 18.770431 C 184.29356 17.957855 184.26161 17.846304 183.5428 17.128153 C 183.04752 16.633253 182.80266 16.460938 182.44881 16.465662 z M 71.231311 16.521989 L 67.151973 17.557068 C 64.908476 18.126482 62.540008 18.716705 61.888729 18.869132 L 60.704822 19.146635 L 64.541797 23.07146 C 66.652455 25.230029 68.435409 26.996975 68.503829 26.998352 C 68.572229 26.999552 69.213782 24.643263 69.929582 21.761462 L 71.231311 16.521989 z M 33.411914 18.156514 L 30.412614 18.891353 L 30.412097 18.89187 C 28.762459 19.296123 27.373201 19.660104 27.325981 19.702157 C 27.278481 19.743827 26.913757 21.132459 26.515177 22.787756 L 25.790674 25.797392 L 28.123865 28.2205 L 30.457572 30.644124 L 33.414498 29.91342 C 35.040926 29.511823 36.466627 29.088034 36.583297 28.971358 C 36.699907 28.854743 37.125042 27.423918 37.527942 25.792224 L 38.26123 22.825997 L 35.836056 20.491256 L 33.411914 18.156514 z M 146.73213 18.699634 C 146.65605 18.679995 146.61205 18.708808 146.58433 18.773531 C 146.51033 18.946333 146.18103 20.206213 145.85208 21.57336 L 145.25367 24.058997 L 146.49752 23.718449 C 147.18128 23.530939 148.40376 23.209162 149.21466 23.003764 L 150.68899 22.630143 L 148.70358 20.544999 C 147.47659 19.255893 146.96038 18.75855 146.73213 18.699634 z M 205.1575 19.325435 C 204.63156 19.408055 204.52373 19.506296 204.43507 19.98276 C 204.21337 21.174229 205.47737 21.746436 206.10628 21.004403 C 206.19608 20.898389 206.27387 20.765587 206.33159 20.60391 C 206.6037 19.8416 206.00674 19.192054 205.1575 19.325435 z M 93.50437 19.33422 C 93.45797 19.28767 91.464744 19.736931 89.074666 20.332092 C 86.684589 20.927267 84.703981 21.42599 84.673901 21.440552 C 84.643401 21.454812 86.129981 22.977252 87.977059 24.824325 L 91.334993 28.182776 L 92.462056 23.800614 C 93.081866 21.390624 93.55074 19.38072 93.50437 19.33422 z M 56.37537 20.986833 L 53.752791 21.611084 L 53.752275 21.611601 C 52.309666 21.954962 51.037904 22.372228 50.925574 22.539193 C 50.813344 22.706195 50.446663 23.984381 50.111153 25.378813 L 49.500854 27.914058 L 51.563261 29.96923 L 53.625667 32.024919 L 56.12629 31.38103 C 57.501819 31.027153 58.744529 30.668763 58.887878 30.584696 C 59.031218 30.500617 59.448577 29.274881 59.814437 27.860832 L 60.479513 25.289412 L 58.427441 23.138639 L 56.37537 20.986833 z M 169.88524 21.330998 L 169.37881 23.407357 L 168.87186 25.485266 L 170.8304 24.984521 C 171.9074 24.709191 172.81708 24.455623 172.85146 24.421248 C 172.88586 24.386888 172.23207 23.677319 171.39936 22.8446 L 169.88524 21.330998 z M 228.32715 22.042582 C 228.27902 22.041656 228.23142 22.077189 228.19641 22.149552 C 228.12631 22.293877 228.12943 22.461737 228.20312 22.522139 C 228.31413 22.613039 228.41567 22.593245 228.47081 22.514905 L 228.47184 22.514388 C 228.52704 22.435788 228.53561 22.298459 228.46151 22.15472 C 228.42366 22.081162 228.37528 22.043508 228.32715 22.042582 z M 115.46375 22.177458 C 115.23377 22.179858 113.59226 22.554336 111.81643 23.010999 C 110.0406 23.467637 108.569 23.859259 108.54635 23.88123 C 108.52365 23.90316 109.75123 25.166718 111.27383 26.689327 L 114.04213 29.45815 L 114.96249 25.815995 C 115.70129 22.890717 115.7996 22.174741 115.46375 22.177458 z M 18.278471 22.259623 L 18.11259 22.824963 C 18.02159 23.135827 17.497989 25.205559 16.948319 27.424166 C 16.39864 29.642773 15.750677 32.258756 15.508097 33.237248 C 15.108818 34.847824 15.115455 35.008303 15.578894 34.931718 C 15.860454 34.885168 18.473534 34.246365 21.386292 33.512166 C 24.299049 32.777944 26.968876 32.123235 27.318746 32.056958 L 27.954883 31.936035 L 23.116935 27.098088 L 18.278471 22.259623 z M 79.221521 23.863143 L 76.817017 24.439852 L 74.411995 25.017594 L 73.824434 27.37404 L 73.23739 29.731002 L 74.959249 31.544328 L 76.681108 33.358171 L 78.996212 32.779911 C 80.26964 32.461798 81.367176 32.146814 81.434306 32.079696 C 81.501406 32.012556 81.818563 30.923545 82.139172 29.660205 L 82.721566 27.363188 L 80.971802 25.613424 L 79.221521 23.863143 z M 0 24.11429 L 0 31.492135 C 1.98587 30.998853 4.284753 30.435391 5.0286336 30.222445 L 5.8673421 29.981632 L 0.44596761 24.560258 L 0 24.11429 z M 193.09261 24.404712 L 192.85438 25.422221 C 192.7232 25.981862 192.69174 26.516351 192.78462 26.609229 C 192.87741 26.702078 193.41145 26.670188 193.97111 26.538949 L 194.98861 26.30072 L 194.04087 25.352974 L 193.09261 24.404712 z M 138.23962 24.781433 L 135.28425 25.466146 C 133.65888 25.842676 132.30589 26.16437 132.27668 26.179797 C 132.24788 26.195637 133.24616 27.230406 134.49567 28.479915 L 136.76788 30.752128 L 137.50375 27.766781 L 138.23962 24.781433 z M 41.265181 25.640295 C 41.191482 25.714015 38.50167 36.404653 38.50566 36.608101 C 38.50766 36.74961 49.32207 34.132269 49.509639 33.944698 C 49.558539 33.895838 47.736786 31.994592 45.461308 29.719116 C 43.18581 27.443627 41.297401 25.608076 41.265181 25.640295 z M 101.84908 26.693978 L 99.974776 27.167851 L 99.973743 27.168884 C 98.94266 27.429238 98.070516 27.655326 98.035876 27.671179 C 98.001276 27.687019 97.751028 28.567027 97.479838 29.627649 L 96.986845 31.556213 L 98.533004 33.10599 L 100.07813 34.654732 L 101.91884 34.194295 C 102.93131 33.940887 103.7989 33.694517 103.84637 33.647042 C 103.89387 33.599522 104.15302 32.702399 104.42205 31.653365 L 104.91143 29.746505 L 103.37974 28.2205 L 101.84908 26.693978 z M 160.57108 27.509949 L 159.80678 27.685132 C 159.38666 27.781762 158.44337 27.991866 157.71079 28.152287 C 156.97818 28.312697 156.31961 28.494279 156.24576 28.554329 C 156.17226 28.614889 156.83413 29.385595 157.71647 30.26792 C 158.59881 31.150269 159.37671 31.816264 159.44556 31.747416 C 159.51446 31.678566 159.79535 30.697099 160.07033 29.566154 L 160.57108 27.509949 z M 216.41056 27.706836 C 216.3289 27.704799 216.26538 27.762483 216.21471 27.880469 C 216.13421 28.067869 216.0888 28.241845 216.11394 28.267008 C 216.13904 28.292108 216.36408 28.297811 216.61365 28.279411 C 216.80299 28.265521 216.9013 28.242693 216.91596 28.186393 C 216.93056 28.130093 216.8613 28.040747 216.7139 27.893388 C 216.59163 27.771119 216.49223 27.708873 216.41056 27.706836 z M 64.406405 28.937252 C 64.340705 29.094871 63.78285 31.251987 63.16617 33.730241 L 62.044275 38.235909 L 63.950102 37.761003 C 64.998021 37.499917 67.026638 36.995966 68.457837 36.641174 C 70.555125 36.121282 71.376495 35.91069 71.566174 35.718233 C 71.679994 35.602715 71.566346 35.493815 71.364636 35.328593 C 71.129206 35.135733 69.494025 33.554606 67.731266 31.814596 C 65.242449 29.35797 64.499125 28.71477 64.406405 28.937252 z M 124.57793 29.602327 L 123.1992 29.928923 L 123.19816 29.929956 C 122.44004 30.109473 121.74893 30.313798 121.66234 30.383158 C 121.57604 30.452858 121.32119 31.188237 121.09493 32.018201 L 120.68359 33.527669 L 121.98894 34.739998 L 123.29428 35.951811 L 124.7867 35.597827 L 126.2786 35.243844 L 126.69924 33.699752 L 127.12092 32.15566 L 125.84968 30.879252 L 124.57793 29.602327 z M 14.079244 29.766142 L 7.6491455 31.365527 C 4.112459 32.244866 1.1594021 33.014766 1.0872721 33.076534 C 1.0151722 33.138314 3.1673186 35.399455 5.8699259 38.102067 L 10.783838 43.015979 L 10.990027 42.166935 C 11.103357 41.699782 11.845049 38.718631 12.637988 35.542017 L 14.079244 29.766142 z M 182.79969 30.348535 C 182.73719 30.286025 182.14062 30.383124 181.47316 30.564026 L 180.25928 30.892688 L 181.14088 31.936035 C 181.62578 32.51019 182.06216 32.99375 182.11085 33.009871 C 182.25485 33.057521 182.92389 30.472729 182.79969 30.348535 z M 87.765186 31.432707 L 87.441174 32.65072 C 86.501035 36.181543 85.731278 39.458814 85.819568 39.550557 C 85.918768 39.652306 93.622811 37.791381 93.78859 37.62561 C 93.83549 37.5787 92.498991 36.166513 90.819263 34.486784 L 87.765186 31.432707 z M 147.06079 32.600594 C 146.87092 32.623104 146.63797 32.672029 146.32957 32.738053 L 146.3306 32.73702 L 145.08107 33.004187 L 144.74724 34.234603 L 144.41392 35.465019 L 145.35547 36.411731 L 146.29701 37.358443 L 147.50883 37.023063 L 148.72115 36.687166 L 149.04982 35.478455 C 149.37867 34.271582 149.37764 34.269421 148.47879 33.370573 C 147.8121 32.703876 147.63042 32.533065 147.06079 32.600594 z M 35.626766 32.916337 C 35.210415 32.932337 34.444749 33.162799 33.154049 33.485811 L 31.403768 33.924028 L 31.281295 33.801038 L 28.039115 34.618042 L 24.796936 35.435046 L 26.926522 37.655066 C 28.097891 38.876244 30.06028 40.838614 31.286979 42.015523 L 33.517334 44.154928 L 34.320903 40.899829 L 35.124471 37.644214 L 35.012333 37.532076 L 35.607129 35.182349 C 36.04356 33.458205 36.320685 32.889671 35.626766 32.916337 z M 205.32545 33.020207 L 204.64746 33.095654 C 203.7817 33.191794 203.79531 33.159189 204.38391 33.747811 C 204.68322 34.047122 204.80878 34.157236 204.91204 34.054769 C 204.97404 33.993229 205.02745 33.854787 205.10583 33.635156 L 205.32545 33.020207 z M 110.94672 34.651632 C 110.81285 34.78549 109.4632 40.251857 109.4481 40.721545 C 109.4371 41.058546 110.03619 40.98773 112.49753 40.361361 C 114.18218 39.932628 115.64845 39.55962 115.75521 39.532471 C 115.86195 39.505301 114.84296 38.376822 113.49075 37.024613 C 112.13856 35.672418 110.99385 34.604499 110.94672 34.651632 z M 170.2232 35.476904 C 170.01604 35.400672 169.80489 35.412811 169.50438 35.481555 L 169.5049 35.482072 C 168.56589 35.696817 168.61729 35.642913 168.39334 36.643241 C 168.23617 37.345246 168.30758 37.612225 168.77729 38.081913 C 169.24113 38.545753 169.52104 38.624498 170.20615 38.483439 C 170.60663 38.400939 170.82345 38.344797 170.97251 38.214205 C 171.12159 38.083602 171.20284 37.878752 171.33114 37.49797 C 171.57447 36.775773 171.52994 36.612972 170.91773 36.00142 C 170.63361 35.717529 170.43036 35.553136 170.2232 35.476904 z M 0 35.515662 L 0 46.40647 C 0.64338032 46.218759 1.7036553 45.946344 1.7554484 45.892806 C 1.8574383 45.787523 2.3041863 44.238085 2.7476359 42.449089 L 3.5532715 39.19554 L 1.0392131 36.591565 L 0 35.515662 z M 58.237789 35.615397 C 58.085619 35.612997 55.859241 36.127452 53.290804 36.760547 C 50.722377 37.393667 48.561677 37.962255 48.489547 38.024036 C 48.417247 38.085696 50.075168 39.853557 52.174076 41.952478 L 55.990898 45.768783 L 56.226025 44.785897 C 56.355295 44.245423 56.922718 41.96252 57.487447 39.712305 C 58.052167 37.462089 58.389859 35.618407 58.237789 35.615397 z M 21.070549 36.904724 L 18.225244 37.631295 C 16.660326 38.030977 15.312501 38.42558 15.229561 38.50721 C 15.146561 38.58885 14.750658 39.983126 14.350028 41.605729 L 13.621908 44.555937 L 15.871383 46.805412 L 18.120858 49.054887 L 21.1646 48.303512 L 24.208341 47.551619 L 24.556124 46.255575 C 24.747404 45.542713 25.099662 44.16489 25.339022 43.193746 L 25.774654 41.427962 L 23.42286 39.166602 L 21.070549 36.904724 z M 134.19594 37.4835 C 133.79493 38.942319 132.9277 42.498079 132.96398 42.534355 C 133.00798 42.578345 137.96518 41.407146 138.03447 41.336495 C 138.05167 41.318945 137.20856 40.396228 136.16068 39.285974 C 135.11278 38.17572 134.22868 37.364594 134.19594 37.4835 z M 80.864832 38.220406 L 76.772575 39.217761 C 74.521837 39.766034 72.619636 40.26289 72.544926 40.322087 C 72.470226 40.381307 73.814609 41.8362 75.532857 43.554447 C 77.251066 45.272659 78.701123 46.634382 78.754883 46.580619 C 78.834983 46.500439 80.037721 41.767124 80.7005 38.924756 L 80.864832 38.220406 z M 192.80012 38.32996 C 192.24835 38.38687 192.17786 38.444995 192.07923 38.925273 C 191.96066 39.502778 192.85526 40.030201 193.34117 39.669413 C 193.90377 39.251611 193.50216 38.257493 192.80012 38.32996 z M 43.665552 39.958285 L 41.158728 40.60734 L 38.847758 41.205754 L 38.671541 41.029537 L 38.417293 42.155566 C 38.277513 42.77482 37.987038 43.94517 37.771338 44.756441 L 37.379114 46.231287 L 39.434802 48.287492 L 41.490491 50.34318 L 43.986979 49.735982 C 45.290628 49.419124 46.333713 49.143285 46.476233 49.080725 L 46.4783 49.083309 L 46.478817 49.079175 C 46.485817 49.075475 46.552781 49.058904 46.554781 49.056954 C 46.555879 49.05372 46.508019 49.002819 46.502071 48.993392 L 47.127356 46.56615 L 47.776412 44.048474 L 45.720723 42.003121 L 43.665552 39.958285 z M 157.43845 40.508639 C 157.40375 40.543368 157.18566 41.349635 156.95373 42.30026 C 156.48474 44.222796 156.41282 44.172007 158.74897 43.559615 L 160.22846 43.172042 L 158.86524 41.808818 C 158.11541 41.058985 157.47316 40.47391 157.43845 40.508639 z M 102.66505 41.137541 C 102.38983 41.169813 102.01007 41.246932 101.59225 41.360783 C 100.75658 41.588469 99.207147 41.971989 98.149048 42.213444 L 96.225651 42.652177 L 98.728857 45.245817 C 100.10562 46.672016 101.29886 47.839964 101.38089 47.841524 C 101.51763 47.843924 103.10754 41.723034 103.1105 41.182499 C 103.11086 41.11766 102.94028 41.105268 102.66505 41.137541 z M 5.7670898 41.246061 L 4.8198608 45.089237 C 4.2990814 47.202757 3.612989 49.95069 3.2948893 51.195325 C 2.9767796 52.439959 2.7658074 53.5053 2.8256673 53.563656 C 2.8859673 53.621786 3.8380616 53.441352 4.9413005 53.162646 C 6.0445494 52.883953 8.722648 52.219226 10.892875 51.685734 C 13.063053 51.152243 14.884083 50.671091 14.938623 50.616549 C 14.993223 50.561959 12.951407 48.430892 10.401949 45.881437 L 5.7670898 41.246061 z M 66.537024 42.838729 L 64.334574 43.396834 L 64.333541 43.397868 C 63.122522 43.704942 62.102512 44.022437 62.067013 44.103251 C 62.031513 44.184161 61.754829 45.183072 61.451029 46.322754 L 60.898092 48.394462 L 62.673694 50.165413 L 64.449813 51.935848 L 66.652262 51.369991 L 68.854712 50.805168 L 69.417468 48.542773 L 69.979191 46.280896 L 68.257849 44.559554 L 66.537024 42.838729 z M 180.63704 43.653149 C 180.5028 43.787372 180.11239 45.584569 180.22156 45.565694 C 180.26766 45.557194 180.74253 45.440723 181.27679 45.305245 L 182.24882 45.059265 L 181.49435 44.304789 C 181.07953 43.889972 180.69347 43.596706 180.63704 43.653149 z M 125.44712 43.792676 C 125.40102 43.745886 124.22194 43.989294 122.82661 44.333728 C 121.43127 44.678163 120.22741 45.007651 120.15184 45.065983 C 120.07624 45.124353 120.92659 46.084139 122.04113 47.198669 C 123.15566 48.313212 124.10928 49.183488 124.15986 49.132918 C 124.30984 48.982939 125.5386 43.885444 125.44712 43.792676 z M 28.959989 44.306856 L 28.764653 45.166752 C 28.657053 45.639572 28.082644 47.986435 27.488245 50.381938 C 26.893865 52.77744 26.430757 54.829333 26.459367 54.941866 C 26.502367 55.110915 30.520697 54.192177 36.028292 52.754403 L 37.122282 52.469149 L 33.040877 48.387744 L 28.959989 44.306856 z M 89.250366 45.743978 L 87.556413 46.16049 L 87.557446 46.159456 C 86.625807 46.388701 85.799106 46.637095 85.720866 46.711877 C 85.642466 46.786577 85.360134 47.636406 85.093514 48.599618 L 84.608272 50.350932 L 86.062964 51.808207 L 87.517139 53.265483 L 89.371289 52.805562 L 91.226473 52.344609 L 91.738586 50.451184 L 92.2507 48.557243 L 90.75105 47.151127 L 89.250366 45.743978 z M 147.9212 46.415255 L 146.13165 46.835901 C 145.14747 47.067193 144.244 47.340346 144.12299 47.442582 C 143.96268 47.578048 144.2962 48.02249 145.35547 49.081759 C 146.2835 50.009792 146.63863 50.437147 146.88561 50.169031 C 147.07771 49.960501 147.20494 49.331698 147.48557 48.189823 L 147.9212 46.415255 z M 204.00822 46.494836 C 203.94036 46.512038 203.87976 46.572919 203.83562 46.675704 C 203.75522 46.863104 203.71039 47.038203 203.73692 47.064827 C 203.76352 47.091387 203.93867 47.047192 204.12604 46.966642 C 204.17734 46.944582 204.21874 46.918378 204.24903 46.889128 C 204.33983 46.801638 204.33403 46.687286 204.22423 46.577519 C 204.1511 46.504388 204.07608 46.477635 204.00822 46.494836 z M 52.077441 47.588826 C 52.018541 47.647686 51.653975 48.96231 51.267155 50.510095 L 50.563839 53.323877 L 50.690963 53.450484 C 50.414213 54.126936 49.999069 56.565297 50.194869 56.561922 C 50.343389 56.559522 51.128266 56.380791 51.939465 56.165047 L 53.104252 55.854989 L 53.271167 56.020353 L 55.993998 55.324788 C 57.491437 54.941873 58.810749 54.584545 58.926119 54.531038 C 59.053479 54.472058 57.77016 53.068639 55.659652 50.95813 L 55.660685 50.957613 C 53.748957 49.045885 52.136381 47.529886 52.077441 47.588826 z M 112.04846 48.571712 L 110.5886 48.964453 L 109.12822 49.357194 L 108.8285 50.532833 C 108.34797 52.417302 108.33422 52.361793 109.59176 53.515597 L 110.74104 54.570312 L 112.18023 54.22408 L 113.61994 53.877332 L 114.02146 52.411271 L 114.42247 50.945728 L 113.23547 49.75872 L 112.04846 48.571712 z M 1.0769368 49.060055 C 0.91819571 49.027909 0.51053671 49.084038 0 49.17581 L 0 54.340869 C 0.58738845 51.974208 1.1992752 49.49663 1.2361003 49.277096 C 1.2548002 49.165623 1.2225887 49.089549 1.0769368 49.060055 z M 169.64443 49.350993 C 169.44138 49.360817 169.17705 49.399758 168.9008 49.465198 C 168.34829 49.596021 167.87099 49.714705 167.83988 49.728231 C 167.80878 49.741761 168.2054 50.174883 168.72148 50.690963 L 169.65993 51.629407 L 169.89867 50.611381 C 170.02985 50.051728 170.08482 49.511329 170.02115 49.410421 C 169.9893 49.360034 169.84747 49.341169 169.64443 49.350993 z M 75.271375 50.436715 L 74.402177 53.86958 C 73.924007 55.757839 73.49557 57.527419 73.44978 57.80164 C 73.37628 58.241571 73.759212 58.204247 76.706429 57.486414 C 78.543567 57.039 80.300571 56.597922 80.6111 56.506628 L 81.175924 56.341264 L 78.223649 53.388989 L 75.271375 50.436715 z M 23.309688 51.566361 C 23.063599 51.631801 20.579529 52.251829 17.789612 52.944572 C 14.999695 53.637339 12.660493 54.257386 12.590963 54.321749 C 12.521763 54.386459 14.369458 56.343646 16.696655 58.670837 L 20.928438 62.902104 L 21.18682 61.781242 C 21.32943 61.164827 21.966332 58.587652 22.601721 56.053943 C 23.54511 52.292072 23.675058 51.46922 23.309688 51.566361 z M 134.57783 51.579797 C 134.4074 51.600208 134.20196 51.644701 133.93601 51.706405 C 133.3199 51.849328 132.78003 52.003713 132.73608 52.049019 C 132.69208 52.094349 132.53562 52.59556 132.3883 53.162646 C 132.13755 54.128028 132.17164 54.250422 132.92212 55.090694 L 133.7231 55.988314 L 134.92096 55.662236 L 136.11831 55.33564 L 136.38134 54.184806 C 136.63171 53.088297 136.60634 52.996464 135.85011 52.240222 C 135.28475 51.674869 135.08912 51.518567 134.57783 51.579797 z M 192.17018 52.057804 C 191.75283 52.139934 191.7683 52.466358 192.19964 52.683089 C 192.26984 52.718309 192.33111 52.708734 192.38154 52.658285 C 192.43194 52.607835 192.47143 52.51608 192.49729 52.384916 C 192.56849 52.023142 192.53195 51.986616 192.17018 52.057804 z M 98.47771 53.509912 L 98.205375 54.617855 C 98.055975 55.227518 97.699112 56.640461 97.412142 57.757198 L 96.89021 59.787565 L 99.458529 59.153495 C 100.87088 58.804919 102.29646 58.461726 102.62681 58.390234 L 103.22781 58.26001 L 100.85276 55.884961 L 98.47771 53.509912 z M 46.049902 54.212195 L 42.592749 55.077775 C 40.691061 55.553703 38.491218 56.102633 37.704159 56.297856 C 36.917089 56.493091 36.271684 56.651839 36.269104 56.649255 L 39.897823 60.278491 C 42.65891 63.039582 43.384078 63.715554 43.607157 63.64366 C 43.639057 63.63396 43.660504 63.607717 43.676404 63.570797 C 43.756704 63.383811 44.323646 61.201033 44.936275 58.720964 L 46.049902 54.212195 z M 157.67513 54.410632 C 157.49433 54.3419 157.32097 54.351235 157.10927 54.421484 C 155.87911 54.829795 155.63293 55.786837 156.52791 56.681812 C 157.11689 57.270795 157.7704 57.303756 158.23789 56.837358 C 158.39372 56.681883 158.52908 56.471245 158.63424 56.206905 C 158.87722 55.596231 158.82916 55.411183 158.28698 54.869002 C 158.04417 54.626195 157.85594 54.479364 157.67513 54.410632 z M 8.7286662 55.88031 L 5.7862101 56.599129 L 5.7862101 56.599646 C 4.1677417 56.995138 2.8101067 57.38657 2.7698568 57.470394 C 2.7295568 57.554234 2.3833243 58.848728 2.0003947 60.346187 L 1.3037964 63.068502 L 3.5811768 65.350533 L 5.8580404 67.633081 L 8.7291829 66.899276 L 11.600326 66.16547 L 12.323279 63.272107 L 13.046749 60.37926 L 10.887708 58.129268 L 8.7286662 55.88031 z M 121.78947 56.569157 C 121.73307 56.625577 121.42267 57.715001 121.09907 58.990198 L 120.51047 61.308919 L 121.62823 61.020048 C 122.24312 60.861015 123.35795 60.574923 124.10509 60.384428 L 125.46314 60.037679 L 123.67721 58.252258 C 122.69518 57.270232 121.84582 56.512811 121.78947 56.569157 z M 68.097135 57.237333 C 68.047435 57.194073 66.236756 57.612634 64.073608 58.166475 L 60.140515 59.173132 L 61.599341 60.725492 C 62.40154 61.579035 63.763394 62.940376 64.625513 63.751147 L 66.192859 65.224959 L 67.190214 61.271195 C 67.738703 59.09625 68.146165 57.281188 68.097135 57.237333 z M 180.16575 57.284359 C 179.63196 57.400487 179.52174 57.961918 179.96628 58.299284 C 180.22545 58.495909 180.49143 58.490914 180.69646 58.285848 C 181.06733 57.91423 180.67505 57.173629 180.16575 57.284359 z M 31.266825 58.791243 L 28.916581 59.363818 C 27.624013 59.678593 26.504864 59.997176 26.427844 60.070752 C 26.351344 60.144842 26.001627 61.290124 25.651147 62.615816 L 25.013977 65.026005 L 26.981816 67.001078 L 28.949654 68.976152 L 31.322119 68.374121 C 32.626938 68.043005 33.780054 67.686103 33.884753 67.581405 C 33.989423 67.476732 34.344479 66.315622 34.672819 65.0012 L 35.269682 62.611682 L 33.267737 60.701204 L 31.266825 58.791243 z M 144.93379 59.375187 L 144.74 60.236633 C 144.63338 60.710417 144.45882 61.471511 144.35243 61.928003 L 144.15864 62.758443 L 145.81642 62.336764 L 147.47369 61.915601 L 146.204 60.645394 L 144.93379 59.375187 z M 90.53866 59.912105 L 87.357975 60.682601 C 85.608397 61.106241 84.118316 61.504152 84.047066 61.566785 C 83.975766 61.629415 85.026055 62.789158 86.380774 64.143888 L 88.843673 66.606787 L 89.267936 65.0012 C 89.500986 64.11801 89.881803 62.61192 90.114913 61.654118 L 90.53866 59.912105 z M 54.074736 61.633964 L 51.947217 62.180701 L 49.820732 62.726921 L 49.642448 63.524805 C 49.544448 63.963651 49.320227 64.908902 49.144287 65.625968 L 48.823893 66.930282 L 50.459452 68.64904 L 52.094495 70.368831 L 54.182739 69.800907 C 55.331358 69.48818 56.325233 69.1283 56.390873 69.001473 C 56.456573 68.874671 56.72707 67.927786 56.99187 66.897725 L 57.472978 65.025488 L 55.773857 63.329468 L 54.074736 61.633964 z M 168.19077 62.499028 L 167.95306 63.291744 L 167.71483 64.083944 L 168.42228 64.004879 C 168.79443 63.963449 169.03374 63.920634 169.15195 63.847266 C 169.34898 63.724936 169.20958 63.517797 168.78608 63.09434 L 168.19077 62.499028 z M 112.79622 62.692814 C 112.74082 62.693752 111.57778 62.965103 110.21188 63.295878 L 107.72882 63.897392 L 108.59699 64.862708 C 109.07447 65.393446 109.94477 66.263223 110.53072 66.795923 L 111.59577 67.764339 L 112.24638 65.22806 C 112.60431 63.832934 112.8517 62.691778 112.79622 62.692814 z M 16.531807 63.544958 C 16.463708 63.613078 13.985158 73.415932 13.957288 73.727283 C 13.952288 73.776633 15.917255 73.329026 18.321362 72.732511 C 20.72549 72.136021 23.078714 71.559603 23.551534 71.451969 L 24.410913 71.256116 L 20.513477 67.358679 C 18.369729 65.214927 16.578067 63.498691 16.531807 63.544958 z M 76.70953 64.70096 L 75.016093 65.118506 C 74.084464 65.347788 73.285647 65.572044 73.241007 65.616667 C 73.196408 65.661387 72.972116 66.459621 72.742847 67.391235 L 72.325818 69.084672 L 73.624963 70.477352 L 74.924109 71.870549 L 76.589124 71.464889 C 77.504763 71.241956 78.34517 70.968203 78.45671 70.856657 C 78.56821 70.74516 78.857005 69.907966 79.098014 68.996822 L 79.535714 67.340592 L 78.12288 66.020776 L 76.70953 64.70096 z M 135.14007 65.497294 C 135.09147 65.446604 134.31691 65.583072 133.41821 65.800635 C 132.51947 66.018146 131.72524 66.247015 131.65398 66.309648 C 131.58248 66.372158 132.13829 67.037364 132.88905 67.78811 C 133.6398 68.538869 134.28343 69.073004 134.31945 68.975118 C 134.56823 68.298618 135.21141 65.572076 135.14007 65.497294 z M 39.814624 66.202677 L 39.606368 67.049654 C 39.491818 67.515528 38.993078 69.500199 38.497909 71.460754 C 38.002739 73.421309 37.642904 75.071115 37.698474 75.126681 C 37.754074 75.18225 39.40686 74.825416 41.371118 74.333964 C 43.335396 73.842524 45.323197 73.346911 45.788936 73.232222 L 46.635396 73.02345 L 43.224752 69.612805 L 39.814624 66.202677 z M 0 67.027433 L 0 69.918213 C 0.72372959 69.733008 1.9376346 69.442106 2.1580078 69.379744 C 2.2264555 69.360416 1.2627417 68.332926 0 67.027433 z M 99.507104 67.53748 L 98.28444 67.851672 L 98.283923 67.852189 C 97.611474 68.025271 96.984307 68.235421 96.890727 68.320378 C 96.796627 68.404948 96.564693 69.086042 96.375513 69.834497 L 96.031348 71.195654 L 97.020435 72.185258 C 98.088094 73.252911 98.132967 73.262028 99.846102 72.795557 L 100.94784 72.4948 L 101.33335 71.117106 L 101.71937 69.739929 L 100.61298 68.639221 L 99.507104 67.53748 z M 157.38368 68.257849 C 157.33818 68.210449 156.97387 68.245551 156.57442 68.337431 C 155.51276 68.580324 155.5003 68.642544 156.33568 69.47793 L 157.09687 70.239124 L 157.28136 69.291895 C 157.38298 68.770637 157.42943 68.305043 157.38368 68.257849 z M 62.981169 69.501701 C 62.723119 70.138122 61.184408 76.514576 61.267578 76.604626 C 61.322978 76.665306 63.005286 76.306549 65.005334 75.806226 L 68.641805 74.896204 L 65.849727 72.104643 C 64.314219 70.56914 63.023399 69.397625 62.981169 69.501701 z M 10.751282 70.564168 C 10.600012 70.560468 8.1558626 71.14146 5.3206055 71.854529 L 0.16639811 73.151607 L 4.1170614 77.189604 C 6.2900492 79.410659 8.1321184 81.229141 8.2108683 81.230701 C 8.2896682 81.231901 8.9556956 78.834087 9.6903646 75.901827 C 10.425033 72.96953 10.902492 70.567532 10.751282 70.564168 z M 121.82771 70.572953 C 121.67837 70.589601 121.50199 70.630904 121.27477 70.688708 L 120.3172 70.931588 L 120.06141 71.919641 C 119.81318 72.877321 119.83253 72.93155 120.68669 73.698344 C 121.4733 74.404552 121.65913 74.466251 122.42922 74.27712 C 122.84628 74.17464 123.06519 74.114235 123.22039 73.965511 C 123.37558 73.8168 123.46787 73.57999 123.63225 73.125252 C 123.9641 72.207139 123.95098 72.164475 123.10153 71.315027 C 122.48193 70.695423 122.27572 70.523009 121.82771 70.572953 z M 179.68567 70.923836 C 179.31227 70.828786 179.25883 70.969769 179.55545 71.266451 C 179.66402 71.375024 179.77326 71.400077 179.8345 71.342932 C 179.855 71.323922 179.86939 71.29599 179.87739 71.2587 C 179.90979 71.109623 179.82348 70.958942 179.68567 70.923836 z M 86.026274 72.744397 C 85.907584 72.863083 84.586885 78.260658 84.658915 78.332686 C 84.730915 78.404706 90.129011 77.084556 90.247721 76.965845 C 90.299421 76.914175 89.391749 75.921769 88.23079 74.760811 C 87.069821 73.599842 86.077874 72.692791 86.026274 72.744397 z M 33.397961 73.166077 L 28.808061 74.306576 C 26.283993 74.934091 24.200332 75.465746 24.177852 75.487899 C 24.155352 75.509959 25.698169 77.089344 27.606067 78.997245 L 31.075106 82.466284 L 31.348474 81.359375 C 31.498904 80.75076 32.021871 78.658448 32.51016 76.70953 L 33.397961 73.166077 z M 144.62993 73.431177 C 143.8863 73.548036 143.97982 73.468594 143.71371 74.214075 C 143.5487 74.676378 143.62274 74.949413 144.01963 75.346305 C 144.55632 75.883002 145.15874 75.923276 145.58336 75.514771 C 145.7249 75.378611 145.84636 75.192103 145.93941 74.958215 C 146.27903 74.104501 145.57452 73.282795 144.62993 73.431177 z M 109.32253 75.395398 L 108.85847 77.122941 C 108.05802 80.103285 107.96817 79.930593 110.05271 79.421509 C 111.30266 79.116238 111.99206 78.980884 112.21486 78.767285 C 112.5013 78.492673 112.01626 78.089632 110.95912 77.032507 L 109.32253 75.395398 z M 55.72063 75.924565 L 53.046375 76.584989 C 51.575436 76.948397 49.835803 77.367851 49.181494 77.517232 L 47.992419 77.78905 L 49.345308 79.235474 C 50.089238 80.03094 51.401624 81.343324 52.262443 82.152608 L 53.827722 83.624353 L 54.773918 79.774459 L 55.72063 75.924565 z M 167.80268 76.21757 C 167.70698 76.217348 167.60197 76.278469 167.4797 76.401021 C 167.23518 76.645547 167.23575 76.821735 167.48073 76.990649 C 167.67335 77.123092 167.93782 77.123341 168.06933 76.991683 L 168.06984 76.991166 C 168.20134 76.859673 168.20094 76.594659 168.06881 76.402055 C 167.98434 76.279189 167.89838 76.217792 167.80268 76.21757 z M 18.735291 77.757528 L 16.386597 78.331653 C 15.094808 78.647257 14.001401 78.941758 13.956771 78.986393 C 13.912171 79.030993 13.617103 80.124438 13.301514 81.416219 L 12.727905 83.764913 L 14.559318 85.68831 L 16.390731 87.610673 L 18.873267 86.972986 L 21.356319 86.334265 L 21.96145 83.869816 L 22.566064 81.405884 L 20.650936 79.581189 L 18.735291 77.757528 z M 132.50251 78.615873 C 132.41821 78.700193 132.33175 79.033606 131.97902 80.640039 L 131.81108 81.406401 L 133.15828 81.036397 C 133.8992 80.832718 134.53037 80.641527 134.56078 80.6111 C 134.59108 80.58076 134.15997 80.099697 133.6027 79.542432 C 133.04543 78.985166 132.55024 78.568142 132.50251 78.615873 z M 0 78.668066 L 0 80.503097 L 0.35398356 79.02205 L 0 78.668066 z M 77.55754 78.906812 C 77.450692 78.914732 77.31064 78.950087 77.13431 79.008614 C 76.89617 79.087694 76.755977 79.13859 76.660437 79.175012 C 76.313987 79.044543 75.770803 79.177272 74.228544 79.58584 L 71.850911 80.216292 L 72.97229 81.432756 C 73.589079 82.10192 74.644387 83.157251 75.317367 83.777832 L 76.541064 84.906445 L 77.111056 82.553617 C 77.474485 81.052954 77.582751 80.486665 77.456771 80.088652 C 77.544671 80.065982 77.60461 79.927288 77.7012 79.656637 C 77.89902 79.102479 77.878083 78.883051 77.55754 78.906812 z M 41.533382 80.592497 L 39.649259 81.058618 L 39.648743 81.059135 C 38.612464 81.315663 37.688541 81.595641 37.596672 81.682353 C 37.504172 81.768503 37.204502 82.752526 36.930562 83.869299 L 36.432918 85.899666 L 38.024552 87.3988 L 39.61722 88.897933 L 41.465686 88.473669 C 42.482415 88.240233 43.42005 87.955032 43.54928 87.8396 C 43.67841 87.724082 44.004217 86.770945 44.273267 85.721899 L 44.762642 83.814522 L 43.147754 82.203768 L 41.533382 80.592497 z M 100.06108 81.730929 C 99.996776 81.671949 98.984716 81.864887 97.812118 82.16036 C 96.639499 82.45582 95.622871 82.750737 95.553341 82.8151 C 95.483741 82.87944 96.234017 83.738138 97.219906 84.724028 L 99.012561 86.516683 L 99.13245 85.906901 C 99.19875 85.571374 99.461568 84.518718 99.715877 83.567509 C 99.970204 82.616276 100.12536 81.790039 100.06108 81.730929 z M 155.7321 81.77537 C 155.61588 81.829973 155.54623 82.036037 155.49594 82.405823 C 155.43144 82.879349 155.46896 82.89903 156.04577 82.693144 C 156.33336 82.590543 156.48093 82.527599 156.50776 82.441996 C 156.53456 82.356456 156.44076 82.247328 156.24628 82.052873 C 156.01072 81.817309 155.84831 81.720767 155.7321 81.77537 z M 4.1062093 82.38877 C 3.9917894 82.500509 1.7342128 91.638136 1.7259928 92.022807 C 1.7189928 92.355202 2.5422437 92.229621 5.8229004 91.396488 C 8.0808481 90.823077 10.336595 90.2566 10.835514 90.137134 L 11.742436 89.919059 L 7.9499023 86.128593 L 7.9493856 86.12911 C 5.8634177 84.044519 4.1342993 82.361364 4.1062093 82.38877 z M 64.449296 83.480693 L 62.729504 83.880151 L 61.009196 84.27961 L 60.827295 85.08783 C 60.727005 85.532173 60.552412 86.291714 60.439722 86.776099 C 60.238072 87.642741 60.254957 87.677546 61.482035 88.954777 L 62.728988 90.252889 L 64.408472 89.831209 L 66.087956 89.407979 L 66.541158 87.741931 L 66.99436 86.075883 L 65.722087 84.778288 L 64.449296 83.480693 z M 122.18427 84.466679 C 121.96341 84.430206 121.54836 84.556514 120.86704 84.731262 C 119.97136 84.960982 119.21658 85.164219 119.19169 85.183948 C 119.16609 85.203078 119.71851 85.791397 120.41901 86.491878 L 121.69283 87.765702 L 122.00392 86.534253 C 122.38118 85.040468 122.55238 84.527467 122.18427 84.466679 z M 27.370422 85.467651 C 27.087203 85.750853 25.224078 93.825489 25.443408 93.81908 C 25.582708 93.81538 27.538558 93.351787 29.789396 92.789685 L 33.881653 91.768042 L 30.679264 88.565137 C 28.917706 86.803582 27.428402 85.40966 27.370422 85.467651 z M 86.966785 86.494979 L 85.743604 86.809688 L 85.74412 86.809172 C 85.207331 86.947306 84.911335 87.030638 84.727645 87.084607 L 84.623775 86.980737 L 84.585018 87.123364 C 84.574018 87.127064 84.472846 87.15291 84.470296 87.15437 C 84.468296 87.15557 84.544145 87.233714 84.551945 87.244804 L 84.278577 88.254561 L 83.933378 89.528385 L 84.945203 90.545378 L 85.957027 91.561853 L 87.156954 91.287968 C 87.658433 91.173425 88.031885 91.071876 88.238025 91.003748 L 88.322774 91.088497 L 88.35533 90.96499 C 88.36863 90.95889 88.428945 90.943052 88.432845 90.939152 C 88.436845 90.935452 88.395485 90.886031 88.381685 90.864221 L 88.660221 89.802787 L 88.997668 88.516561 L 87.982227 87.506287 L 86.966785 86.494979 z M 144.77101 87.030347 L 144.03049 87.237569 C 143.62328 87.351381 143.26872 87.459505 143.24294 87.478381 C 143.21684 87.497021 143.4615 87.778078 143.78657 88.103149 C 144.20713 88.523718 144.41287 88.661874 144.53485 88.464884 C 144.60805 88.346686 144.65116 88.10786 144.69246 87.736764 L 144.77101 87.030347 z M 50.526115 88.278849 L 50.2698 89.403328 C 50.12888 90.021472 49.736845 91.596985 49.398535 92.904924 C 49.060255 94.21285 48.887073 95.281695 49.014062 95.280489 C 49.337942 95.278089 55.591989 93.720873 55.695308 93.617542 C 55.742008 93.570872 54.597687 92.350934 53.152828 90.906079 L 50.526115 88.278849 z M 109.37575 89.518567 C 109.2566 89.518948 109.12505 89.538918 108.96803 89.572827 C 108.05372 89.77022 108.05489 89.769242 107.69937 90.82443 C 107.4204 91.652482 107.44473 91.728074 108.21303 92.404696 C 108.90241 93.011861 109.13921 93.086035 109.84032 92.913708 C 110.23099 92.817689 110.43995 92.756533 110.58601 92.615535 C 110.73209 92.474538 110.81568 92.253307 110.95602 91.836772 C 111.23115 91.02015 111.1989 90.910733 110.47646 90.188293 C 109.98001 89.691849 109.73322 89.517422 109.37575 89.518567 z M 73.80118 91.384603 C 73.6454 91.541966 72.482846 96.597126 72.580066 96.694356 C 72.662566 96.776756 75.955759 96.022639 77.650557 95.533187 C 77.746357 95.505527 76.933595 94.547001 75.844466 93.402568 C 74.755247 92.258207 73.83557 91.349874 73.80118 91.384603 z M 20.644735 92.193339 C 20.598635 92.146549 18.605625 92.595016 16.215548 93.190177 C 13.82549 93.785365 11.844863 94.284076 11.814783 94.298637 C 11.784283 94.312897 13.273593 95.838066 15.124141 97.688611 L 18.488794 101.05326 L 19.608622 96.665934 C 20.224672 94.252767 20.690855 92.240107 20.644735 92.193339 z M 132.09426 92.388676 C 131.56833 92.471296 131.46048 92.569549 131.37183 93.046 C 131.15013 94.23747 132.41415 94.809652 133.04304 94.067643 C 133.13284 93.961629 133.21011 93.829344 133.26783 93.667668 C 133.53997 92.905333 132.94351 92.255281 132.09426 92.388676 z M 96.822514 94.393722 L 96.315568 96.470597 L 95.809139 98.54799 L 97.767159 98.047762 C 98.844158 97.772452 99.753854 97.518859 99.788224 97.484489 C 99.822624 97.450089 99.169362 96.740039 98.336633 95.907324 L 96.822514 94.393722 z M 42.603601 95.03606 C 42.374281 95.03846 40.733647 95.412951 38.957829 95.8696 C 37.182011 96.326239 35.710394 96.717852 35.687744 96.739832 C 35.665044 96.761732 36.895596 98.028297 38.421944 99.554647 L 41.196969 102.33019 L 42.109058 98.681832 C 42.840017 95.756676 42.937811 95.033331 42.603601 95.03606 z M 155.26391 95.105306 C 155.216 95.10438 155.16869 95.139907 155.13368 95.212276 C 154.9969 95.4942 155.19096 95.763308 155.40602 95.590031 L 155.4055 95.589514 C 155.4773 95.531754 155.47347 95.364054 155.39827 95.216927 C 155.36042 95.143363 155.31182 95.106232 155.26391 95.105306 z M 6.3546509 96.71296 L 3.9522135 97.288118 L 1.5497762 97.864311 L 0.97565104 100.23884 L 0.40255941 102.61286 L 2.1145996 104.41688 L 3.8266398 106.22039 L 6.1582804 105.62146 C 7.4407492 105.29212 8.536234 104.97622 8.5932739 104.91918 C 8.6504739 104.86218 8.959444 103.78161 9.2800537 102.51829 L 9.8629639 100.22127 L 8.1090658 98.467375 L 6.3546509 96.71296 z M 120.02988 97.467952 L 119.79114 98.485461 C 119.65995 99.045108 119.62009 99.587516 119.70277 99.690556 C 119.78547 99.793646 120.32303 99.765127 120.89701 99.628027 L 121.94088 99.378947 L 120.98538 98.42345 L 120.02988 97.467952 z M 65.059595 97.704114 C 64.881485 97.745914 63.552378 98.057698 62.10577 98.397095 C 60.659171 98.736444 59.450226 99.025906 59.420146 99.040466 C 59.390046 99.054966 60.384181 100.08562 61.62983 101.33128 L 63.894808 103.59626 L 64.639465 100.61246 C 65.104885 98.745869 65.262095 97.656534 65.059595 97.704114 z M 28.989962 99.55258 L 27.115658 100.02594 L 27.114624 100.02697 C 26.083535 100.28734 25.211905 100.5129 25.177275 100.52875 C 25.142675 100.54455 24.892396 101.42512 24.621236 102.48573 L 24.128243 104.4143 L 25.674402 105.96356 L 27.219527 107.51282 L 28.963607 107.06478 C 29.922436 106.81835 30.789447 106.58551 30.891654 106.5475 C 30.993524 106.5096 31.298089 105.6092 31.568099 104.54556 L 32.059025 102.61131 L 30.524752 101.0822 L 28.989962 99.55258 z M 86.999341 100.56595 C 86.62302 100.61496 86.110805 100.7102 85.553951 100.83984 C 84.440242 101.09932 83.467122 101.359 83.391292 101.41707 C 83.315392 101.47507 83.97553 102.24418 84.857869 103.12652 C 85.740189 104.00884 86.507689 104.68528 86.563708 104.62927 C 86.722348 104.47062 87.68786 100.79566 87.63031 100.56957 C 87.61616 100.51419 87.375662 100.51695 86.999341 100.56595 z M 143.34732 100.77008 C 143.26566 100.76804 143.20162 100.82623 143.15095 100.94423 C 143.07035 101.13161 143.02557 101.30561 143.0507 101.33077 C 143.0758 101.35587 143.30033 101.36157 143.54989 101.34317 C 143.73922 101.32927 143.83806 101.30593 143.85272 101.24963 C 143.86732 101.19333 143.7981 101.10399 143.65066 100.95663 C 143.5284 100.83436 143.42899 100.77211 143.34732 100.77008 z M 52.022664 102.40667 L 50.490975 102.75859 C 49.648356 102.95197 48.892571 103.16429 48.811491 103.22987 C 48.730791 103.29577 48.477498 104.03141 48.248218 104.8644 L 47.831706 106.37852 L 49.130851 107.59137 L 50.430514 108.80369 L 51.940499 108.43472 L 53.450484 108.06576 L 53.879399 106.44518 L 54.307796 104.82409 L 53.16523 103.61538 L 52.022664 102.40667 z M 109.73697 103.41126 C 109.67447 103.34876 109.07553 103.44345 108.40579 103.6221 C 107.73607 103.80073 107.14973 103.98209 107.10251 104.02414 C 107.05561 104.06654 107.47336 104.55776 108.03062 105.11503 C 108.58788 105.67229 109.07033 106.10104 109.1029 106.06846 C 109.26323 105.90814 109.83553 103.50981 109.73697 103.41126 z M 14.906584 104.29079 L 14.582056 105.50881 C 13.641427 109.04157 12.871049 112.31775 12.960449 112.40864 C 13.056149 112.50674 20.778754 110.6344 20.938774 110.47439 C 20.980574 110.43259 19.640389 109.02461 17.960661 107.34487 L 14.906584 104.29079 z M 74.198055 105.4592 C 74.006743 105.48212 73.771518 105.53154 73.460116 105.59821 C 72.767316 105.74651 72.170388 105.99026 72.134098 106.13977 C 71.590669 108.37653 71.589786 108.36842 72.538725 109.31736 L 73.437895 110.21653 L 74.650224 109.88115 L 75.862036 109.54525 L 76.191215 108.33706 C 76.520055 107.13019 76.518523 107.12751 75.619674 106.22866 C 74.952167 105.56114 74.77199 105.39043 74.198055 105.4592 z M 132.26273 106.08345 L 131.58473 106.15838 C 130.71897 106.25448 130.73207 106.22242 131.32067 106.81105 C 131.61998 107.11036 131.74554 107.21995 131.8488 107.11749 C 131.9107 107.05599 131.96472 106.91803 132.0431 106.6984 L 132.26273 106.08345 z M 38.072095 107.5831 C 37.832265 108.18907 36.513302 113.58346 36.560042 113.76722 C 36.591142 113.88927 37.9855 113.64124 39.659078 113.21531 C 41.332656 112.78937 42.78932 112.41874 42.89609 112.39159 C 43.00283 112.36439 41.977604 111.22869 40.617676 109.86875 C 39.257727 108.50882 38.112665 107.48064 38.072095 107.5831 z M 97.3646 108.33551 C 97.157436 108.25927 96.946275 108.27091 96.64578 108.33964 C 95.706761 108.5544 95.75817 108.50099 95.53422 109.50133 C 95.377061 110.20334 95.449044 110.47083 95.918693 110.94052 C 96.382533 111.40435 96.662447 111.48307 97.347546 111.34204 C 97.748026 111.25954 97.965345 111.20342 98.114425 111.07281 C 98.263484 110.94221 98.344252 110.73733 98.472542 110.35657 C 98.715872 109.63436 98.67127 109.47165 98.059131 108.86002 C 97.775001 108.57614 97.571763 108.41174 97.3646 108.33551 z M 61.337341 110.34159 C 60.545222 113.22468 60.107081 115.37105 60.310531 115.37125 C 60.53928 115.37147 65.110294 114.26309 65.179484 114.19045 C 65.194484 114.17475 64.349828 113.25384 63.302079 112.14354 C 62.2544 111.03319 61.370171 110.22242 61.337341 110.34159 z M 8.0077799 111.08573 L 5.4901042 111.70584 C 4.1052856 112.04716 2.2631263 112.49432 1.3962972 112.69906 C 0.68910009 112.86612 0.25322207 113.0004 0 113.09129 L 0 113.56051 C 0.34851736 114.00738 1.2851381 115.02342 2.6742554 116.41253 C 4.3924637 118.13075 5.8397566 119.4947 5.8905965 119.44387 C 5.9413965 119.39307 6.4385592 117.4919 6.9954386 115.21881 L 8.0077799 111.08573 z M 119.64386 111.27486 C 119.14782 111.26486 118.84931 112.03866 119.18084 112.47479 C 119.54293 112.95114 120.01707 113.08762 120.30428 112.87063 C 120.40008 112.79823 120.47459 112.6861 120.51771 112.53473 C 120.65122 112.06594 120.10918 111.28399 119.64386 111.27486 z M 84.623775 113.28404 L 84.132849 115.06068 C 83.57714 117.0735 83.519809 117.03513 86.078467 116.36292 L 87.364693 116.02496 L 85.994234 114.6545 L 84.623775 113.28404 z M 30.249316 114.0535 C 30.248776 113.93065 28.704203 114.2128 26.817485 114.68086 L 23.387203 115.53248 L 25.880591 118.11424 C 27.251639 119.53455 28.44026 120.69858 28.52229 120.70013 C 28.65841 120.70213 30.251546 114.57138 30.249316 114.0535 z M 107.77895 116.51175 C 107.64472 116.64597 107.2543 118.44317 107.36347 118.4243 C 107.40957 118.4153 107.88392 118.29934 108.41819 118.16385 L 109.38971 117.91735 L 108.63575 117.16339 C 108.22095 116.74858 107.83539 116.4553 107.77895 116.51175 z M 52.588521 116.65128 C 52.542421 116.60448 51.363328 116.84787 49.968009 117.19233 C 48.572671 117.53674 47.368797 117.86624 47.293237 117.92458 C 47.217637 117.98298 48.067979 118.94273 49.182528 120.05727 C 50.297057 121.1718 51.250691 122.0421 51.301261 121.99152 C 51.451231 121.84155 52.680011 116.74404 52.588521 116.65128 z M 16.382463 118.59328 L 14.691093 119.01031 L 14.690576 119.01082 C 13.760297 119.24036 12.936093 119.49097 12.859163 119.5679 C 12.782263 119.6448 12.501025 120.49553 12.234395 121.45874 L 11.74967 123.21005 L 13.203845 124.66784 L 14.659054 126.12357 L 16.512687 125.66365 L 18.367871 125.20321 L 18.879985 123.30979 L 19.392615 121.41584 L 17.88728 120.00456 L 16.382463 118.59328 z M 75.062602 119.27386 L 73.273047 119.6945 C 72.288868 119.92578 71.384877 120.19844 71.263867 120.30067 C 71.103537 120.43615 71.438095 120.88055 72.497384 121.93984 C 73.425403 122.86786 73.780006 123.29575 74.027006 123.02763 C 74.219096 122.81909 74.345823 122.18979 74.626453 121.04791 L 75.062602 119.27386 z M 130.93516 119.45007 C 130.90719 119.4495 130.86292 119.5301 130.79305 119.6914 C 130.69645 119.91491 130.70067 120.09931 130.80287 120.1012 C 130.82814 120.1017 130.85161 120.09105 130.87315 120.07071 L 130.87315 120.07019 C 130.93811 120.00885 130.98195 119.86448 130.97805 119.69554 C 130.97455 119.53254 130.96313 119.45065 130.93516 119.45007 z M 39.189856 121.43031 L 37.729997 121.82254 L 36.269621 122.2158 L 35.969897 123.39143 C 35.489448 125.27581 35.475093 125.22039 36.732642 126.3742 L 37.882442 127.42891 L 39.321631 127.08268 L 40.761336 126.73542 L 41.162862 125.26987 L 41.563871 123.80433 L 40.376864 122.61732 L 39.189856 121.43031 z M 96.785824 122.20959 C 96.582669 122.21954 96.318449 122.2584 96.0422 122.3238 C 95.48968 122.45462 95.011876 122.5728 94.980766 122.58632 C 94.949666 122.59982 95.346803 123.03296 95.862882 123.54905 L 96.801326 124.48749 L 97.039555 123.4705 C 97.170725 122.91084 97.226305 122.36983 97.162545 122.26902 C 97.130695 122.21864 96.988978 122.19965 96.785824 122.20959 z M 2.4060547 123.2886 L 1.4557251 127.12816 C 0.9332956 129.24005 0.5065258 131.0131 0.5069458 131.06849 C 0.5075858 131.14319 5.5269828 129.95211 8.1323201 129.25878 C 8.23809 129.23058 6.9932923 127.87585 5.365564 126.24811 L 2.4060547 123.2886 z M 61.580737 124.43168 C 61.420538 124.45206 61.231936 124.49728 60.991109 124.55984 C 60.42401 124.70714 59.928404 124.85601 59.889884 124.89108 C 59.851484 124.92638 59.696472 125.46547 59.545203 126.08894 C 59.281503 127.17594 59.303461 127.25641 60.07902 128.03198 C 60.866909 128.81986 60.918552 128.83177 62.07373 128.51722 L 63.259705 128.19424 L 63.527389 127.03617 C 63.791668 125.89225 63.783874 125.86842 62.908305 125.08487 C 62.287148 124.52899 62.061334 124.37055 61.580737 124.43168 z M 119.31158 124.91641 C 119.04924 124.96811 118.94346 125.07382 119.01392 125.21406 C 119.17669 125.53779 119.40054 125.62717 119.53689 125.47555 C 119.58239 125.42495 119.61768 125.34732 119.63818 125.243 C 119.70938 124.88121 119.67341 124.84523 119.31158 124.91641 z M 25.618591 126.368 L 25.346773 127.47646 C 25.197383 128.08613 24.8406 129.49879 24.55354 130.6158 C 23.950531 132.96234 23.551449 132.82598 27.822074 131.73821 L 30.345951 131.09536 L 27.982271 128.73116 L 25.618591 126.368 z M 84.816012 127.26872 C 84.635317 127.20009 84.462371 127.20983 84.250671 127.28009 C 83.020503 127.6884 82.774332 128.64543 83.669312 129.54041 C 84.258291 130.12939 84.912322 130.16236 85.379801 129.69596 C 85.535641 129.5405 85.670473 129.32933 85.775643 129.06499 C 86.018533 128.4544 85.970557 128.26927 85.428377 127.72709 C 85.185568 127.48428 84.996706 127.33734 84.816012 127.26872 z M 48.930863 129.42776 C 48.874464 129.48416 48.563529 130.57362 48.23995 131.8488 L 47.651872 134.16752 L 48.769633 133.87865 C 49.384512 133.71963 50.499345 133.43302 51.246484 133.24251 L 52.604541 132.89628 L 50.81912 131.11086 C 49.837081 130.12882 48.987213 129.37142 48.930863 129.42776 z M 107.30663 130.14244 C 106.77283 130.25857 106.66261 130.82002 107.10716 131.15737 C 107.36632 131.35401 107.63231 131.34902 107.83735 131.14393 C 108.20884 130.77243 107.81618 130.03166 107.30663 130.14244 z M 72.122729 132.28133 L 71.698983 133.94945 C 71.354373 135.30546 71.35444 135.59394 71.6995 135.4925 C 71.932909 135.4239 72.688627 135.23811 73.378467 135.07961 L 74.632654 134.79126 L 73.37795 133.53655 L 72.122729 132.28133 z M 17.684192 132.75314 L 14.50144 133.5319 C 12.750632 133.96024 11.259724 134.36274 11.188464 134.42539 C 11.117164 134.48799 12.167453 135.64726 13.522172 137.00197 L 15.985071 139.46539 L 16.409334 137.8598 C 16.642374 136.97661 17.024098 135.4665 17.258378 134.50393 L 17.684192 132.75314 z M 95.32183 135.34729 L 95.132178 136.14001 L 94.943042 136.93221 L 95.607601 136.85831 C 95.962751 136.81891 96.190766 136.77637 96.301615 136.70277 C 96.486375 136.58001 96.34528 136.37074 95.92231 135.94777 L 95.32183 135.34729 z M 39.936064 135.54987 C 39.879564 135.54971 38.721819 135.82635 37.363611 136.16482 L 34.893994 136.78028 L 35.750273 137.73268 C 36.221172 138.25683 37.0862 139.12185 37.672119 139.65452 L 38.73717 140.62346 L 39.388293 138.08615 C 39.746243 136.69102 39.992584 135.55004 39.936064 135.54987 z M 3.852478 137.56111 L 2.157491 137.97762 C 1.225562 138.20657 0.42651879 138.43012 0.38188883 138.47475 C 0.34765748 138.50898 0.16667295 139.19574 0 139.83798 L 0 142.47657 L 0.86299642 143.34009 L 2.2587769 144.73535 L 3.9770182 144.26148 L 5.6947428 143.78761 L 6.1686157 142.06988 L 6.6424886 140.35164 L 5.2472249 138.95586 L 3.852478 137.56111 z M 62.28147 138.3559 C 62.23287 138.3052 61.457823 138.44166 60.559094 138.65924 C 59.660365 138.87676 58.866121 139.10508 58.794861 139.16773 C 58.723361 139.23023 59.279168 139.89647 60.029928 140.64723 C 60.780677 141.39797 61.424828 141.9316 61.460848 141.83372 C 61.709628 141.15722 62.35281 138.4307 62.28147 138.3559 z M 26.648503 140.39608 L 25.425321 140.71079 C 24.752642 140.88389 24.124701 141.0945 24.031091 141.1795 C 23.936991 141.2641 23.705047 141.94566 23.515877 142.69413 L 23.172229 144.05477 L 24.161316 145.04386 C 25.228015 146.11055 25.274526 146.12115 26.975614 145.65778 L 28.067537 145.36012 L 28.457178 143.97416 L 28.846818 142.5882 L 27.74766 141.49214 L 26.648503 140.39608 z M 84.25894 141.10715 C 84.124166 141.11178 83.945478 141.14402 83.71582 141.19655 C 82.665201 141.43686 82.644486 141.50446 83.390776 142.25075 C 83.869335 142.72931 84.052088 142.90803 84.195378 142.72979 C 84.281378 142.62281 84.353072 142.38732 84.466162 142.01097 C 84.671377 141.32807 84.663262 141.09325 84.25894 141.10715 z M 48.969104 143.43104 C 48.819766 143.44769 48.643393 143.48951 48.416166 143.54731 L 47.459119 143.79019 L 47.202804 144.77824 C 46.954594 145.73591 46.973929 145.78964 47.828088 146.55643 C 48.614688 147.26266 48.800528 147.32486 49.570618 147.13572 C 49.987657 147.03324 50.206584 146.97232 50.361784 146.8236 C 50.516964 146.67488 50.609255 146.43808 50.773645 145.98334 C 51.105505 145.0652 51.092894 145.0231 50.243445 144.17363 C 49.623848 143.55404 49.417119 143.3811 48.969104 143.43104 z M 106.8281 143.78295 C 106.45471 143.68796 106.40074 143.82896 106.69736 144.12557 C 106.80593 144.23414 106.91467 144.25971 106.9759 144.20257 C 106.9964 144.18357 107.01131 144.15512 107.01931 144.11782 C 107.05171 143.96876 106.96597 143.81805 106.8281 143.78295 z M 13.167155 145.60248 C 13.051515 145.71812 11.726636 151.11865 11.796696 151.1887 C 11.863596 151.2556 17.287048 149.9265 17.397388 149.81618 C 17.444388 149.76918 16.533157 148.78038 15.372188 147.61941 L 15.371672 147.61993 C 14.210703 146.45896 13.218775 145.55087 13.167155 145.60248 z M 72.257605 146.22053 C 72.084074 146.16304 71.910255 146.17158 71.709835 146.2381 C 71.408135 146.33827 71.140719 146.42912 71.116589 146.44119 C 71.092189 146.45339 70.974776 146.73743 70.855107 147.07268 C 70.690097 147.53496 70.763575 147.8085 71.160514 148.20542 C 71.697194 148.74209 72.299634 148.78136 72.724243 148.37286 C 72.865783 148.23668 72.987761 148.05071 73.080811 147.81682 C 73.29738 147.27242 73.244828 147.04237 72.803308 146.60087 C 72.604283 146.40184 72.431136 146.27802 72.257605 146.22053 z M 36.463924 148.254 L 35.99987 149.98154 C 35.199411 152.9619 35.109574 152.78919 37.194112 152.28011 C 38.444071 151.97484 39.133464 151.83896 39.356254 151.62537 C 39.642704 151.35075 39.158162 150.94773 38.101034 149.89059 L 36.463924 148.254 z M 94.944076 149.07566 C 94.848484 149.07551 94.743884 149.13668 94.621615 149.25911 C 94.377085 149.50364 94.377228 149.6793 94.622648 149.84822 C 94.815288 149.98065 95.08024 149.98154 95.211759 149.84925 C 95.342916 149.71763 95.342295 149.45259 95.210726 149.26014 C 95.126251 149.13728 95.039667 149.0758 94.944076 149.07566 z M 59.669743 151.44864 C 59.488963 151.62943 59.001852 153.90615 59.118872 154.02316 C 59.249842 154.15413 61.466883 153.705 61.664453 153.50743 C 61.715553 153.45633 61.301355 152.95778 60.744096 152.40052 C 60.186836 151.84325 59.703183 151.41521 59.669743 151.44864 z M 4.935616 151.8083 C 4.8908161 151.7603 3.487962 152.06984 1.8184937 152.49715 L 0 152.96276 L 0 154.58695 C 0.62519705 155.25843 1.5999231 156.23769 2.2370728 156.82454 L 3.4442342 157.93558 L 4.2302327 154.91509 C 4.6627723 153.25414 4.980326 151.85647 4.935616 151.8083 z M 27.204024 154.58385 C 27.142524 154.52375 26.131612 154.7179 24.957133 155.01534 C 23.782654 155.31277 22.764795 155.60934 22.695256 155.6737 C 22.625656 155.738 23.374331 156.59566 24.35872 157.58005 L 26.148275 159.3696 L 26.381852 158.3862 C 26.510352 157.84497 26.773016 156.79218 26.965796 156.04732 C 27.158546 155.30247 27.265614 154.64393 27.204024 154.58385 z M 82.873494 154.63397 C 82.757391 154.68847 82.687638 154.89464 82.637333 155.26442 C 82.572833 155.73793 82.610351 155.75712 83.18717 155.55123 C 83.47476 155.44862 83.621811 155.38619 83.648641 155.3006 C 83.675441 155.2149 83.582155 155.10645 83.387675 154.91199 C 83.152115 154.67643 82.989598 154.57947 82.873494 154.63397 z M 49.660535 157.16818 L 48.270439 157.5139 C 47.505859 157.70382 46.821204 157.90946 46.749084 157.97124 C 46.676785 158.03304 47.112251 158.57728 47.715951 159.18098 C 48.31965 159.78469 48.86702 160.22306 48.93138 160.15353 C 48.99618 160.08443 49.186937 159.38439 49.355127 158.59807 L 49.660535 157.16818 z M 14.107666 159.3541 L 12.885518 159.66777 L 12.885002 159.66829 C 12.212682 159.8413 11.632191 160.00452 11.594641 160.03003 C 11.557441 160.05583 11.378046 160.64375 11.196216 161.33641 L 10.866003 162.59576 L 11.880412 163.60965 L 12.894303 164.62458 L 14.150041 164.33777 L 15.405261 164.05149 L 15.778365 162.71927 L 16.150952 161.38653 L 15.129309 160.37057 L 14.107666 159.3541 z M 71.925842 159.88533 L 71.178601 160.09359 C 70.767681 160.2085 70.410094 160.31812 70.384334 160.33698 C 70.358234 160.35558 70.602911 160.63617 70.92797 160.96123 C 71.34735 161.38062 71.575978 161.50846 71.709318 161.3054 C 71.789418 161.18355 71.834854 160.94257 71.866414 160.57418 L 71.925842 159.88533 z M 36.526969 162.38699 C 36.409022 162.38848 36.278866 162.4093 36.123376 162.44486 C 35.186417 162.65918 35.184784 162.66079 34.844385 163.67115 C 34.580645 164.454 34.618189 164.59267 35.270199 165.24469 C 35.901468 165.87595 36.091566 165.93665 36.894906 165.76198 C 37.334075 165.66648 37.563525 165.60936 37.719145 165.47104 C 37.874795 165.33273 37.956143 165.11311 38.097933 164.69227 C 38.371713 163.87971 38.339769 163.76814 37.620959 163.05 C 37.125682 162.55509 36.880813 162.38251 36.526969 162.38699 z M 0.81080322 164.62096 C 0.73471846 164.60132 0.6907261 164.63013 0.66300863 164.69486 C 0.59605494 164.85122 0.29561295 166.01804 0 167.22855 L 0 169.79739 L 0.57515869 169.63977 C 1.258908 169.45226 2.4818931 169.13099 3.2928223 168.92561 L 4.7671509 168.55199 L 2.7822591 166.46632 C 1.5552603 165.17724 1.0390575 164.67988 0.81080322 164.62096 z M 59.235661 165.24728 C 58.709721 165.32988 58.601874 165.42816 58.513224 165.9046 C 58.291515 167.09609 59.555541 167.66826 60.18444 166.92625 C 60.27424 166.82024 60.352039 166.68742 60.409749 166.52575 C 60.681879 165.76342 60.0849 165.11389 59.235661 165.24728 z M 23.963912 167.25232 L 23.456966 169.3292 L 22.950537 171.40659 L 24.909074 170.90585 C 25.986083 170.63052 26.894726 170.37695 26.929106 170.34257 C 26.963506 170.30817 26.310761 169.59865 25.478031 168.76593 L 23.963912 167.25232 z M 82.405306 167.96442 C 82.357286 167.96354 82.310091 167.99878 82.275081 168.07088 C 82.204981 168.21521 82.208099 168.38307 82.281799 168.44347 C 82.392809 168.53437 82.494333 168.51475 82.549483 168.43675 L 82.55 168.43623 C 82.6052 168.35763 82.613881 168.21979 82.540181 168.07605 C 82.502332 168.00249 82.453326 167.96531 82.405306 167.96442 z M 47.170764 170.32655 L 46.932019 171.34355 C 46.800839 171.90321 46.769933 172.43769 46.862773 172.53055 C 46.955573 172.62345 47.489604 172.59199 48.049264 172.46079 L 49.066256 172.22205 L 48.119027 171.27482 L 47.170764 170.32655 z M 14.648718 173.43127 L 13.884941 173.60697 C 13.464811 173.70347 12.521534 173.91371 11.788944 174.07413 C 11.056345 174.23454 10.397758 174.41507 10.323918 174.47514 C 10.250418 174.53574 10.91229 175.30742 11.794629 176.18976 C 12.676958 177.07209 13.454882 177.73811 13.523722 177.66926 C 13.592522 177.60046 13.874027 176.61843 14.149007 175.48748 L 14.648718 173.43127 z M 70.488721 173.62868 C 70.407058 173.62665 70.343532 173.68432 70.292867 173.80231 C 70.212267 173.98972 70.166958 174.16369 70.192098 174.18885 C 70.217198 174.21395 70.442249 174.21965 70.691809 174.20125 C 70.881189 174.18735 70.979456 174.16402 70.994116 174.10772 L 70.994633 174.10772 C 71.009233 174.05142 70.939401 173.96206 70.792061 173.81471 C 70.669786 173.69244 70.570383 173.63071 70.488721 173.62868 z M 36.877852 176.27038 C 36.815352 176.20788 36.218261 176.30448 35.550802 176.48535 L 34.337439 176.81401 L 35.219039 177.85788 C 35.703928 178.43204 36.140246 178.91569 36.189006 178.93171 C 36.333005 178.97941 37.002062 176.39458 36.877852 176.27038 z M 1.1394653 178.5214 C 0.94969287 178.54389 0.71700526 178.59288 0.40876058 178.65886 L 0.40824382 178.65938 L 0 178.74671 L 0 182.90253 L 0.37568766 183.27977 L 1.5869832 182.94491 L 2.7987956 182.60849 L 3.1279744 181.4003 C 3.4568141 180.19343 3.455789 180.19075 2.5569499 179.2919 C 1.890358 178.62531 1.7087827 178.45393 1.1394653 178.5214 z M 59.403609 178.94153 L 58.725614 179.01646 C 57.859865 179.11256 57.872968 179.08051 58.461548 179.66914 C 58.760858 179.96845 58.886928 180.07804 58.990198 179.97558 C 59.052098 179.91408 59.105614 179.77556 59.183984 179.55597 L 59.403609 178.94153 z M 24.301359 181.39875 C 24.094198 181.32252 23.883035 181.33466 23.58254 181.4034 C 22.643521 181.61815 22.695456 181.56371 22.471497 182.56405 C 22.314327 183.26606 22.385733 183.53408 22.855452 184.00376 C 23.319292 184.4676 23.599207 184.54631 24.284306 184.40528 C 24.684785 184.32278 24.901597 184.26666 25.050667 184.13605 C 25.199737 184.00545 25.281529 183.80005 25.409819 183.4193 C 25.653158 182.69708 25.6081 182.53484 24.99589 181.92326 C 24.711761 181.63938 24.50852 181.47498 24.301359 181.39875 z M 46.878276 184.2518 C 46.326516 184.3087 46.256009 184.36684 46.157389 184.84712 C 46.038829 185.42464 46.933418 185.95206 47.419328 185.59126 C 47.981937 185.17346 47.580335 184.17933 46.878276 184.2518 z M 11.517126 186.42996 C 11.482426 186.46466 11.263795 187.27096 11.031885 188.22159 C 10.562895 190.14413 10.491473 190.09385 12.827641 189.48146 L 14.307137 189.09337 L 12.943913 187.73014 C 12.194094 186.98032 11.551856 186.39525 11.517126 186.42996 z M 34.71571 189.57448 C 34.581471 189.7087 34.191062 191.50642 34.300232 191.48754 C 34.346332 191.47854 34.821215 191.36205 35.355465 191.22657 L 36.326465 190.98059 L 35.572506 190.22663 C 35.157696 189.81182 34.77215 189.51805 34.71571 189.57448 z M 1.9993612 192.3371 L 0.21032308 192.75723 C 0.10731304 192.78143 0.10046109 192.79591 0 192.82079 L 0 195.55344 C 0.46663223 196.0127 0.78527108 196.28463 0.96376546 196.09087 C 1.1558553 195.88233 1.2830991 195.2525 1.5637288 194.11063 L 1.9993612 192.3371 z M 58.086377 192.41565 C 58.018402 192.43274 57.957903 192.49377 57.913778 192.59651 C 57.833178 192.78393 57.789092 192.95961 57.815592 192.98615 C 57.842192 193.01275 58.017326 192.96857 58.204716 192.88797 C 58.256116 192.86587 58.296939 192.84007 58.327189 192.81097 L 58.327706 192.81097 C 58.418506 192.72347 58.412701 192.60862 58.302901 192.49884 C 58.229776 192.42572 58.154352 192.39855 58.086377 192.41565 z M 23.722583 195.27284 C 23.519538 195.28266 23.255209 195.32112 22.978959 195.38652 C 22.42646 195.51734 21.949142 195.63552 21.918042 195.64904 C 21.886942 195.66254 22.283562 196.09672 22.799642 196.61281 L 23.737569 197.55073 L 23.976831 196.53322 C 24.108001 195.97355 24.163074 195.43307 24.099304 195.33226 C 24.067454 195.28188 23.925628 195.26301 23.722583 195.27284 z M 46.24834 197.97965 C 45.83099 198.06175 45.846466 198.38716 46.277795 198.6039 C 46.347995 198.6391 46.409257 198.63053 46.459696 198.58013 C 46.510196 198.52973 46.549265 198.43742 46.574935 198.30624 C 46.646135 197.94444 46.610159 197.90845 46.24834 197.97965 z M 11.753288 200.33196 C 11.572483 200.26344 11.399131 200.27307 11.187431 200.34333 C 9.9572722 200.75163 9.711599 201.70816 10.606588 202.60314 C 11.195567 203.19212 11.848565 203.22561 12.316044 202.7592 C 12.471884 202.60373 12.607242 202.39309 12.712402 202.12875 C 12.955362 201.51809 12.907316 201.33251 12.365137 200.79033 C 12.122327 200.54753 11.934093 200.40047 11.753288 200.33196 z M 34.243905 203.20517 C 33.710105 203.32118 33.599367 203.88326 34.043917 204.22061 C 34.303077 204.41725 34.569085 204.41277 34.774105 204.20769 C 35.145604 203.83619 34.753404 203.0944 34.243905 203.20517 z M 0 206.28508 L 0 208.23173 L 1.5518433 207.83744 L 0.28215332 206.56724 L 0 206.28508 z M 22.268925 208.42087 L 22.030697 209.21307 L 21.792985 210.00579 L 22.500952 209.92672 C 22.873112 209.88532 23.112393 209.84196 23.230623 209.76859 C 23.427643 209.64625 23.287697 209.43965 22.864237 209.01618 L 22.268925 208.42087 z M 11.461833 214.17969 C 11.416433 214.13229 11.052059 214.16737 10.65258 214.25927 C 9.5909512 214.50215 9.5784659 214.56439 10.413835 215.39977 L 11.175028 216.16097 L 11.36003 215.21322 C 11.46165 214.69194 11.507503 214.22688 11.461833 214.17969 z M 33.764347 216.84516 C 33.390948 216.75016 33.336986 216.89113 33.633606 217.18778 C 33.742186 217.29636 33.850902 217.32176 33.912142 217.26477 L 33.912142 217.26426 C 33.932642 217.24526 33.947967 217.21784 33.956067 217.18054 C 33.988467 217.03137 33.902167 216.88026 33.764347 216.84516 z M 0 220.07184 L 0 220.90745 C 0.0047267108 220.89615 0.012981203 220.89159 0.017569987 220.88006 C 0.13331798 220.5891 0.094991827 220.31819 0 220.07184 z M 21.880835 222.13941 C 21.78514 222.13921 21.680127 222.2002 21.557857 222.32286 C 21.313318 222.56739 21.313901 222.74359 21.558891 222.91249 C 21.751521 223.04492 22.016482 223.04539 22.148002 222.91353 L 22.148002 222.91301 C 22.279502 222.7815 22.279088 222.5165 22.146969 222.3239 C 22.062489 222.20104 21.97653 222.13961 21.880835 222.13941 z M 9.8107707 227.69721 C 9.6946683 227.75171 9.6243926 227.95737 9.5740926 228.32715 C 9.5095927 228.80067 9.5476376 228.82035 10.124447 228.61447 C 10.412046 228.51186 10.559087 228.44943 10.585917 228.36384 C 10.612717 228.27824 10.518924 228.16917 10.324434 227.97472 C 10.088875 227.73915 9.926873 227.64272 9.8107707 227.69721 z M 9.3420654 241.02663 C 9.2940493 241.02575 9.2468458 241.061 9.2118408 241.13309 C 9.075041 241.415 9.2686094 241.68464 9.4836589 241.51136 C 9.5554588 241.45356 9.5520241 241.28547 9.4764242 241.13825 C 9.4385742 241.06469 9.3900816 241.02751 9.3420654 241.02663 z " /><rect
       style="fill:#eb2141;fill-opacity:1;stroke-width:1.32292;stroke-linecap:round;stroke-linejoin:round;paint-order:stroke markers fill"
       id="rect791"
       width="84.355034"
       height="29.52426"
       x="75.919525"
       y="-100.52308" /><rect
       style="fill:#1b2437;fill-opacity:1;stroke-width:1.32292;stroke-linecap:round;stroke-linejoin:round;paint-order:stroke markers fill"
       id="rect1680"
       width="154.65089"
       height="42.880474"
       x="203.85799"
       y="-100.52308" /></g></svg>
