<?xml version="1.0" standalone="no"?>
<svg xmlns="http://www.w3.org/2000/svg" xmlns:xlink="http://www.w3.org/1999/xlink" height="200px" width="200px">
  <defs>
    <pattern id="doodad" width="42" height="42" viewBox="0 0 40 40" patternUnits="userSpaceOnUse" patternTransform="">
      <rect width="100%" height="100%" fill="rgba(235, 33, 65,1)"/>
      <path d="M 6 20a 14 14 0 0 0 28 0a 14 14 0 0 0-28 0m4.5 0a 9.5 9.5 0 0 1 19 0a 9.5 9.5 0 0 1-19 0zM 6 20a 14 14 0 0 0 28 0a 14 14 0 0 0-28 0m4.5 0a 9.5 9.5 0 0 1 19 0a 9.5 9.5 0 0 1-19 0z" fill="rgba(93, 138, 163,1)"/>
      <path d="M 20 6a 14 14 0 0 0 0 28a 14 14 0 0 0 0-28zM-10-10h 60v 60h-60z" fill="rgba(27, 36, 55,1)"/>
    </pattern>
  </defs>
  <rect fill="url(#doodad)" height="200%" width="200%"/>
</svg>
