<?xml version="1.0" encoding="UTF-8" standalone="no"?>
<!-- Created with Inkscape (http://www.inkscape.org/) -->

<svg
   width="195.14168mm"
   height="167.69974mm"
   viewBox="0 0 195.14168 167.69974"
   version="1.1"
   id="svg5"
   xml:space="preserve"
   inkscape:version="1.2.2 (b0a8486541, 2022-12-01)"
   sodipodi:docname="patron_2.svg"
   xmlns:inkscape="http://www.inkscape.org/namespaces/inkscape"
   xmlns:sodipodi="http://sodipodi.sourceforge.net/DTD/sodipodi-0.dtd"
   xmlns="http://www.w3.org/2000/svg"
   xmlns:svg="http://www.w3.org/2000/svg"><sodipodi:namedview
     id="namedview7"
     pagecolor="#ffffff"
     bordercolor="#000000"
     borderopacity="0.25"
     inkscape:showpageshadow="2"
     inkscape:pageopacity="0.0"
     inkscape:pagecheckerboard="0"
     inkscape:deskcolor="#d1d1d1"
     inkscape:document-units="mm"
     showgrid="false"
     inkscape:zoom="0.75277076"
     inkscape:cx="211.21968"
     inkscape:cy="455.65"
     inkscape:window-width="1862"
     inkscape:window-height="1011"
     inkscape:window-x="58"
     inkscape:window-y="491"
     inkscape:window-maximized="1"
     inkscape:current-layer="layer1" /><defs
     id="defs2" /><g
     inkscape:label="Layer 1"
     inkscape:groupmode="layer"
     id="layer1"><rect
       style="fill:#1b2437;fill-opacity:1;stroke-width:3.814;stroke-linejoin:round"
       id="rect931"
       width="195.14168"
       height="167.69308"
       x="0"
       y="0" /><path
       style="fill:#eb2141;stroke-width:0.221125;fill-opacity:1"
       d="m 3e-5,163.72735 v -3.96574 l 1.029914,0.59679 c 0.566453,0.32823 2.078029,1.22486 3.359058,1.99251 l 2.329144,1.39572 0.0017,1.97323 0.0017,1.97323 H 3.360773 0 Z m 7.155194,2.04095 c 0,-2.23523 -0.429724,-2.23002 3.252361,-0.0394 3.582995,2.13166 3.588125,1.9642 -0.06017,1.9642 H 7.155222 Z m 7.42132,-2.15611 0.05911,-4.08763 3.12613,-1.87948 c 2.676559,-1.60919 3.191055,-1.84391 3.577597,-1.63215 0.994322,0.54472 5.673052,3.39782 5.931263,3.6169 0.208331,0.17675 0.261501,1.18031 0.216824,4.09234 l -0.05919,3.85816 -6.455419,0.0597 -6.45542,0.0597 z m 13.610613,0.11605 v -3.96485 l 0.704678,0.44525 c 0.387573,0.24489 3.290305,1.99256 6.450516,3.88372 3.160211,1.89115 5.786492,3.47497 5.836182,3.51959 0.04969,0.0446 -2.853045,0.0811 -6.450516,0.0811 h -6.54086 z m 14.111632,3.88513 c 0.212039,-0.18708 5.841619,-3.5448 6.148816,-3.6674 0.289774,-0.11566 0.337837,0.1413 0.337837,1.80614 v 1.94098 h -3.288498 c -1.808673,0 -3.247843,-0.0359 -3.198155,-0.0797 z m 6.920302,-5.89917 v -5.9789 l 0.81309,0.53103 c 0.447199,0.29207 3.15479,1.93235 6.016867,3.64508 2.862078,1.71272 5.380021,3.23912 5.595431,3.392 0.345505,0.24521 -0.0091,0.5202 -3.009106,2.33382 l -3.400759,2.05586 h -3.007762 -3.007761 z m 13.635241,2.03243 c 3.612852,-2.17055 6.584343,-3.94601 6.603315,-3.94546 0.01897,4.5e-4 0.06748,1.77646 0.107805,3.94646 l 0.07331,3.94546 h -6.676629 -6.676626 z m 7.961232,3.51797 c 1.958457,-1.24209 5.687944,-3.40521 5.871002,-3.40521 0.202808,0 6.037635,3.42628 6.300616,3.6998 0.0708,0.0736 -2.790259,0.13352 -6.357916,0.13305 -6.456596,-9e-4 -6.483536,-0.003 -5.813702,-0.42764 z m 9.994579,-1.62989 c -3.005888,-1.80301 -3.378145,-2.08854 -3.035537,-2.32838 0.706966,-0.4949 12.181641,-7.33986 12.304301,-7.33986 0.066,0 0.11993,2.63849 0.11993,5.86331 v 5.86331 l -2.98133,-0.002 -2.981331,-0.002 -3.426033,-2.05502 z m 10.084934,0.0851 0.0626,-1.97323 3.25237,-1.97439 c 1.78879,-1.08591 3.34993,-1.9485 3.46918,-1.91685 0.11925,0.0317 1.65599,0.91571 3.414983,1.9646 l 3.19815,1.90705 v 1.98303 1.98302 h -6.729983 -6.72999 z m 13.830973,0.0484 c 0,-2.23523 -0.42972,-2.23002 3.25236,-0.0394 3.583,2.13166 3.58813,1.9642 -0.0602,1.9642 h -3.1922 z m 7.46817,1.63462 c -0.0589,-0.1596 -0.0802,-1.99883 -0.0474,-4.08718 l 0.0597,-3.79701 3.14395,-1.87761 3.14395,-1.87762 1.19253,0.69508 c 0.65589,0.3823 2.09074,1.24308 3.18854,1.91285 l 1.99602,1.21777 0.0638,3.95854 c 0.0351,2.17719 0.0232,4.00056 -0.0265,4.05194 -0.0497,0.0514 -2.9067,0.0934 -6.34891,0.0934 -4.90209,0 -6.28177,-0.0629 -6.36563,-0.29017 z m 13.56377,-3.67468 v -3.96485 l 0.70467,0.4421 c 0.38758,0.24315 3.29031,1.99134 6.45052,3.88486 3.16021,1.89353 5.78649,3.47876 5.83618,3.52275 0.0497,0.044 -2.85304,0.08 -6.45052,0.08 h -6.54085 z m 14.11163,3.88513 c 0.21204,-0.18708 5.84162,-3.5448 6.14881,-3.6674 0.28978,-0.11566 0.33784,0.1413 0.33784,1.80614 v 1.94098 h -3.2885 c -1.80867,0 -3.24784,-0.0359 -3.19815,-0.0797 z m 6.9203,-5.87476 v -5.95448 l 4.17386,2.52486 c 2.29563,1.38867 5.17449,3.12388 6.39747,3.85601 1.22299,0.73213 2.14991,1.40448 2.05983,1.49411 -0.0901,0.0896 -1.61818,1.03394 -3.39577,2.09847 l -3.232,1.93551 h -3.0017 -3.00169 z m 13.62905,2.00802 c 3.61634,-2.17055 6.59065,-3.94638 6.60958,-3.94628 0.0189,1e-4 0.0652,1.77601 0.10271,3.94646 l 0.0683,3.94628 h -6.67788 -6.67787 z m 7.42095,3.86516 c 0.34284,-0.30851 6.24079,-3.7524 6.42631,-3.7524 0.21589,0 6.0132,3.41006 6.29425,3.70237 0.0694,0.0722 -2.7846,0.13133 -6.34232,0.13133 -3.55772,0 -6.42793,-0.0366 -6.37824,-0.0813 z m 10.54105,-1.97708 c -3.00589,-1.80301 -3.37814,-2.08854 -3.03554,-2.32838 0.70697,-0.4949 12.18165,-7.33986 12.30431,-7.33986 0.066,0 0.11993,2.63849 0.11993,5.86331 v 5.86331 l -2.98134,-0.002 -2.98133,-0.002 -3.42603,-2.05502 z m 10.11709,0.0939 0.0305,-1.9645 2.05983,-1.26308 c 1.1329,-0.6947 2.62086,-1.59403 3.30656,-1.99851 l 1.24673,-0.73536 v 3.96301 3.96301 h -3.33705 -3.33705 z M 38.703124,165.1193 35.667587,163.26929 v -3.90073 -3.90072 l 2.927125,-1.77721 c 1.609919,-0.97746 3.073481,-1.77721 3.252361,-1.77721 0.17888,0 1.642442,0.79975 3.252361,1.77721 l 2.927124,1.77721 v 3.8998 3.8998 l -3.124248,1.87455 c -1.718335,1.03101 -3.133112,1.86393 -3.143949,1.85094 -0.01084,-0.013 -1.385692,-0.85612 -3.055237,-1.87363 z m 97.570826,0 -3.03553,-1.85001 v -3.90073 -3.90072 l 2.92712,-1.77721 c 1.60992,-0.97746 3.07348,-1.77596 3.25236,-1.77444 0.17888,0.002 1.64244,0.80209 3.25236,1.77905 l 2.92713,1.77629 v 3.89659 3.89659 l -3.10908,1.87592 c -1.70999,1.03176 -3.12477,1.86529 -3.14395,1.8523 -0.0192,-0.013 -1.40086,-0.85612 -3.07041,-1.87363 z M 7.101018,163.1227 c -3.309277,-1.99735 -6.016566,-3.68887 -6.016196,-3.75893 5.55e-4,-0.10538 11.61714,-7.18088 12.180423,-7.41892 0.09783,-0.0413 0.177876,3.28213 0.177876,7.38551 0,4.10337 -0.07318,7.4524 -0.162618,7.44228 -0.08944,-0.0101 -2.870208,-1.65259 -6.179485,-3.64994 z m 63.150006,-3.77355 c 0,-4.11371 0.07872,-7.44565 0.17494,-7.4043 0.560844,0.24099 12.181822,7.31299 12.182819,7.41391 0.0011,0.10575 -11.659293,7.19111 -12.169404,7.39469 -0.104258,0.0416 -0.188355,-3.26432 -0.188355,-7.4043 z m 37.510566,5.624 c -1.60992,-0.98478 -4.31751,-2.62047 -6.01687,-3.63487 -1.69936,-1.01439 -3.089443,-1.9023 -3.089073,-1.97312 6.5e-4,-0.10631 11.612493,-7.1803 12.180423,-7.42031 0.0978,-0.0413 0.17788,3.28213 0.17788,7.38551 0,4.10337 -0.0732,7.45452 -0.16262,7.44699 -0.0894,-0.008 -1.47982,-0.81942 -3.08974,-1.8042 z m 60.06026,-5.62449 v -7.47996 l 1.02992,0.59769 c 3.59403,2.08571 11.32619,6.79046 11.32749,6.89237 0.001,0.10571 -11.6583,7.19086 -12.16905,7.39469 -0.10426,0.0416 -0.18836,-3.26453 -0.18836,-7.40479 z m -137.791688,0.6399 c -2.265812,-1.36805 -4.973402,-2.99137 -6.016868,-3.60736 -1.043466,-0.616 -1.89721,-1.15442 -1.89721,-1.19649 0,-0.0421 1.829453,-1.17034 4.065451,-2.50725 2.235998,-1.33692 4.943588,-2.97098 6.016867,-3.63126 l 1.951417,-1.20049 0.05951,3.73643 c 0.03273,2.05505 0.03273,5.34685 0,7.31512 l -0.05951,3.57868 z m 29.596483,0.74286 -2.927124,-1.76881 -0.0594,-3.74263 -0.0594,-3.74263 2.010818,-1.22508 c 1.10595,-0.67379 2.504658,-1.50932 3.108238,-1.85672 l 1.097418,-0.63164 3.022239,1.82337 3.022239,1.82337 v 3.77016 3.77016 l -2.927125,1.76634 c -1.609919,0.97148 -3.024696,1.77006 -3.143949,1.77462 -0.119253,0.005 -1.53403,-0.78767 -3.143949,-1.76051 z m 31.656312,-5.57067 v -7.36458 l 0.48785,0.32228 c 0.26832,0.17725 3.01217,1.83514 6.09743,3.6842 3.897703,2.33597 5.518823,3.4193 5.312193,3.54994 -0.16356,0.10341 -2.44394,1.47674 -5.067513,3.05185 -2.62357,1.57512 -5.23359,3.14668 -5.80005,3.49236 l -1.02991,0.62853 z m 34.553633,3.7767 c -3.23623,-1.94412 -5.88633,-3.63624 -5.88911,-3.76027 -0.003,-0.12403 2.64505,-1.81289 5.88406,-3.75302 l 5.88911,-3.5275 0.0595,3.71096 c 0.0327,2.04103 0.0327,5.32053 0,7.28778 l -0.0595,3.57681 z m 31.36088,1.79397 -2.92712,-1.76881 -0.0594,-3.73687 -0.0594,-3.73686 2.0108,-1.22799 c 1.10593,-0.6754 2.50463,-1.51352 3.10821,-1.86249 l 1.09742,-0.63449 3.02224,1.82337 3.02224,1.82337 v 3.77016 3.77016 l -2.92713,1.76634 c -1.60992,0.97148 -3.02469,1.77006 -3.14395,1.77462 -0.11925,0.005 -1.53403,-0.78767 -3.14395,-1.76051 z m 31.65632,-5.55424 v -7.33826 l 1.13832,0.68324 c 0.62608,0.37579 2.0388,1.21505 3.13939,1.86504 l 2.00105,1.18179 v 3.60819 3.60819 l -2.00105,1.18179 c -1.10059,0.64999 -2.51331,1.48925 -3.13939,1.86504 l -1.13832,0.68324 z M 3e-5,155.18618 c 0,-1.94206 0.07318,-3.48952 0.162618,-3.4388 1.175591,0.66666 5.691631,3.39381 5.691631,3.43705 0,0.0319 -1.0001,0.64606 -2.222446,1.36485 -1.222346,0.71879 -2.539552,1.50063 -2.927125,1.73741 L 3e-5,158.71718 v -3.53101 z m 14.527212,-4.16771 v -7.24038 l 0.720923,0.40003 c 1.920835,1.06585 11.204059,6.72007 11.201661,6.82269 -0.0015,0.0645 -2.172457,1.4136 -4.824335,2.99811 -2.651878,1.5845 -5.333844,3.19119 -5.959923,3.57042 l -1.138326,0.6895 v -7.24038 z m 36.209617,4.58378 c -2.325438,-1.41509 -4.991121,-3.03384 -5.923737,-3.5972 l -1.695668,-1.0243 4.622792,-2.76171 c 2.542536,-1.51894 5.232611,-3.13393 5.977944,-3.58886 l 1.35515,-0.82715 v 7.20929 c 0,3.96512 -0.02439,7.19885 -0.05421,7.18607 -0.02981,-0.0128 -1.956837,-1.18104 -4.282275,-2.59614 z m 29.92172,0.83139 -2.927125,-1.77629 v -3.67731 -3.67731 l 2.968772,-1.76673 2.96877,-1.76674 2.993891,1.79992 2.99389,1.79993 0.0595,3.60112 0.0595,3.60111 -3.06368,1.82514 c -1.685029,1.00383 -3.077787,1.82251 -3.09502,1.81929 -0.01724,-0.003 -1.34854,-0.80517 -2.958458,-1.78213 z m 31.439491,-5.41517 v -7.24038 l 0.72263,0.40003 c 1.92522,1.06577 11.20235,6.71481 11.19995,6.8199 -0.002,0.066 -2.17245,1.41639 -4.82433,3.0009 -2.65188,1.58451 -5.33384,3.1912 -5.95992,3.57043 l -1.13833,0.6895 z m 36.20962,4.5759 c -2.32544,-1.41802 -4.99616,-3.04054 -5.93493,-3.60561 l -1.70686,-1.0274 1.27321,-0.73877 c 0.70027,-0.40632 3.39538,-2.01269 5.98913,-3.56971 l 4.71593,-2.83095 v 7.19984 c 0,3.95992 -0.0244,7.18881 -0.0542,7.17533 -0.0298,-0.0135 -1.95684,-1.18472 -4.28227,-2.60273 z m 29.92172,0.83927 -2.92713,-1.77629 v -3.67513 -3.67513 l 2.9629,-1.77562 2.96289,-1.77562 2.99977,1.79364 2.99976,1.79363 0.0595,3.61411 0.0595,3.61411 -3.06369,1.82514 c -1.68502,1.00383 -3.07778,1.82251 -3.09502,1.81929 -0.0172,-0.003 -1.34853,-0.80517 -2.95845,-1.78213 z m -174.38616,-4.45162 -2.769914,-1.69374 0.05961,-3.52277 0.05961,-3.52278 2.901991,-1.74384 2.901991,-1.74383 1.109254,0.66999 c 0.61009,0.3685 1.915418,1.14926 2.900729,1.73501 l 1.791475,1.06501 -0.05688,3.59565 -0.05688,3.59564 -2.7103,1.64414 c -1.490666,0.90427 -2.856657,1.63764 -3.035537,1.6297 -0.17888,-0.008 -1.571698,-0.77663 -3.095149,-1.70818 z m 31.715925,-5.2512 v -6.98055 l 5.691632,3.40046 c 3.130397,1.87026 5.762045,3.46613 5.848104,3.54639 0.136135,0.12694 -11.067315,7.01425 -11.409954,7.01425 -0.07138,0 -0.129782,-3.14125 -0.129782,-6.98055 z m 34.512464,3.56473 c -4.570692,-2.73141 -5.65104,-3.46533 -5.420601,-3.68241 0.46579,-0.43878 11.052411,-6.70006 11.152499,-6.59596 0.05025,0.0523 0.06552,3.15383 0.03393,6.89235 l -0.05743,6.79732 z m 31.342461,1.67659 -2.769893,-1.69238 0.0596,-3.51852 0.0596,-3.51851 2.901993,-1.74384 2.90199,-1.74383 1.10926,0.66999 c 0.61009,0.3685 1.91541,1.14926 2.90072,1.73501 l 1.79148,1.06501 -0.0569,3.59565 -0.0569,3.59564 -2.71031,1.64414 c -1.49066,0.90427 -2.85665,1.63511 -3.03553,1.62408 -0.17888,-0.011 -1.57169,-0.78164 -3.09513,-1.71244 z m 31.7159,-5.24132 v -6.98055 l 5.69163,3.40046 c 3.1304,1.87026 5.7629,3.46701 5.84999,3.54835 0.1342,0.12531 -11.08559,7.01229 -11.42393,7.01229 -0.0647,0 -0.11769,-3.14125 -0.11769,-6.98055 z m 34.51407,3.56997 c -3.13874,-1.87739 -5.62679,-3.49435 -5.52901,-3.59325 0.35856,-0.36267 11.1648,-6.78866 11.25622,-6.69357 0.052,0.054 0.0686,3.15869 0.037,6.89925 l -0.0574,6.80101 z m -142.66062,-2.58517 -2.878472,-1.70795 0.05976,-3.41842 0.05976,-3.41842 2.7103,-1.63354 c 1.490666,-0.89845 2.82352,-1.6353 2.961902,-1.63745 0.138379,-0.002 1.480047,0.73183 2.981482,1.63106 l 2.729884,1.63496 -0.05436,3.46108 -0.05436,3.46107 -2.710301,1.66005 c -1.490665,0.91302 -2.759086,1.66352 -2.818713,1.66777 -0.05963,0.004 -1.403725,-0.76084 -2.986883,-1.70021 z m 31.607659,-5.04102 c 0,-3.72826 0.05324,-6.77866 0.118312,-6.77866 0.06507,0 2.6033,1.49177 5.640508,3.31504 4.325085,2.5964 5.462774,3.3726 5.248084,3.58058 -0.206317,0.19987 -5.85283,3.61856 -10.844286,6.56569 -0.08944,0.0528 -0.162618,-2.95438 -0.162618,-6.68265 z m 37.185328,5.00715 c -1.55029,-0.93534 -4.07094,-2.46253 -5.60145,-3.39375 l -2.78273,-1.69313 1.15655,-0.68459 c 0.63611,-0.37652 3.14666,-1.88582 5.579,-3.35401 2.43235,-1.46819 4.45842,-2.63202 4.50238,-2.5863 0.044,0.0457 0.0541,3.08221 0.0224,6.74776 l -0.0575,6.66464 z m 28.669463,0.006 -2.77003,-1.69246 0.0597,-3.41202 0.0597,-3.41202 2.7103,-1.63354 c 1.49067,-0.89845 2.82352,-1.6353 2.96191,-1.63745 0.13837,-0.002 1.48004,0.73183 2.98148,1.63106 l 2.72988,1.63496 -0.0544,3.46108 -0.0544,3.46106 -2.7103,1.66005 c -1.49066,0.91302 -2.80787,1.65367 -2.92712,1.64588 -0.11925,-0.008 -1.46334,-0.77576 -2.98685,-1.70661 z m 31.71604,-5.00377 c 0,-3.7332 0.0548,-6.78763 0.12186,-6.78763 0.32304,0 11.11516,6.64658 11.02861,6.79222 -0.0548,0.0922 -2.22015,1.4306 -4.81194,2.97427 -2.59179,1.54367 -5.07824,3.03214 -5.52544,3.30772 l -0.81309,0.50105 z m 34.86028,3.58958 c -2.82907,-1.70378 -5.34126,-3.23882 -5.58267,-3.4112 -0.4075,-0.29099 -0.0395,-0.55122 5.14376,-3.63711 l 5.58266,-3.32371 0.0599,3.38009 c 0.0329,1.85904 0.0329,4.88974 0,6.73489 l -0.0599,3.35482 z m -142.924906,-2.79555 -2.718895,-1.6056 -0.0068,-3.4259 -0.0068,-3.42591 2.727159,-1.60598 2.727161,-1.60598 2.801098,1.64921 2.8011,1.64921 6.5e-4,3.30407 6.51e-4,3.30406 -2.803329,1.68421 -2.803329,1.68421 -2.718896,-1.6056 z m 31.525728,-5.02277 c 0,-3.6546 0.07318,-6.60371 0.162618,-6.55358 0.08944,0.0501 2.587988,1.54281 5.552326,3.31708 4.550141,2.72342 5.326971,3.26222 4.986951,3.45894 -0.22151,0.12816 -2.72006,1.6256 -5.552324,3.32765 l -5.149571,3.09463 z m 66.053678,5.02788 -2.72747,-1.61071 -0.007,-3.42215 -0.007,-3.42215 2.71231,-1.61358 c 1.49176,-0.88747 2.78686,-1.58007 2.87799,-1.53911 0.0911,0.041 1.35975,0.78484 2.81915,1.65306 l 2.65347,1.57858 -0.0566,3.33399 -0.0567,3.33399 -2.74055,1.6594 -2.74055,1.6594 z m 31.51715,-5.02324 v -6.63861 l 0.48785,0.26608 c 0.26832,0.14634 2.76453,1.63635 5.54712,3.31114 l 5.05927,3.04506 -1.15643,0.68804 c -0.63604,0.37842 -3.13225,1.87578 -5.54712,3.32747 l -4.39069,2.63942 z m -160.932475,3.20562 -5.361213,-3.2261 4.819152,-2.89384 c 2.650534,-1.59162 5.136258,-3.08715 5.523831,-3.32341 l 0.704678,-0.42956 v 6.56211 c 0,3.60917 -0.07318,6.55645 -0.162618,6.54951 -0.08944,-0.007 -2.575164,-1.46435 -5.52383,-3.23871 z m 97.731675,0.0931 c -2.86021,-1.72415 -5.22272,-3.21572 -5.25003,-3.31459 -0.0422,-0.15284 2.12537,-1.49321 9.52015,-5.88701 l 1.25548,-0.74597 v 6.5529 c 0,3.6041 -0.0732,6.54764 -0.16262,6.5412 -0.0894,-0.006 -2.50278,-1.42238 -5.36298,-3.14653 z M 1.08415,134.18658 v -6.46096 l 0.505221,0.3443 c 0.277872,0.18936 2.497608,1.53447 4.932748,2.98912 2.435139,1.45466 4.606763,2.77323 4.82583,2.93016 0.36058,0.2583 0.257901,0.36995 -1.08412,1.17875 -0.815334,0.49139 -2.994773,1.8052 -4.843198,2.91958 -1.848425,1.11438 -3.580307,2.14626 -3.848627,2.29308 l -0.487854,0.26693 z m 34.29432,3.26344 c -4.648303,-2.80675 -5.222741,-3.21474 -4.875094,-3.46254 0.216746,-0.15449 2.613818,-1.61092 5.326829,-3.23651 l 4.932747,-2.95563 v 6.41817 c 0,3.52999 -0.02595,6.41816 -0.05765,6.41816 -0.03171,0 -2.428783,-1.43174 -5.326829,-3.18165 z m 31.620193,1.64529 -2.493476,-1.5169 -0.05986,-3.29599 -0.05986,-3.29598 2.532123,-1.5293 c 1.39267,-0.84112 2.652377,-1.5293 2.799349,-1.5293 0.146974,0 1.400546,0.68448 2.78572,1.52107 l 2.518494,1.52107 -0.0061,3.30864 -0.0061,3.30864 -2.59529,1.5222 c -1.427409,0.83722 -2.668684,1.51783 -2.758388,1.51248 -0.08971,-0.005 -1.285171,-0.69233 -2.656583,-1.52663 z m 31.656314,-4.89614 c 0,-5.30807 0.0509,-6.41229 0.28893,-6.26375 0.15891,0.0992 2.550223,1.54439 5.314033,3.21157 2.7638,1.66717 4.95109,3.10396 4.86064,3.19286 -0.17649,0.17346 -8.87414,5.4462 -9.867343,5.98183 l -0.59626,0.32157 z m 34.475023,3.3631 c -2.80245,-1.67884 -5.16727,-3.12487 -5.25515,-3.2134 -0.0879,-0.0885 2.20503,-1.58434 5.09537,-3.32404 l 5.25515,-3.16309 0.0601,3.24159 c 0.033,1.78288 0.033,4.6523 0,6.37649 l -0.0601,3.1349 z m 31.43949,1.52313 -2.49348,-1.52738 -0.0599,-3.28579 -0.0599,-3.28579 2.53212,-1.5293 c 1.39267,-0.84112 2.65237,-1.5293 2.79935,-1.5293 0.14697,0 1.40054,0.68448 2.78572,1.52107 l 2.51849,1.52107 -0.006,3.30864 -0.006,3.30864 -2.59529,1.5222 c -1.42741,0.83722 -2.66868,1.51796 -2.75839,1.51276 -0.0897,-0.005 -1.28517,-0.69676 -2.65658,-1.53682 z M 22.116084,130.13403 c 0,-3.40463 0.05967,-6.19024 0.132601,-6.19024 0.07293,0 1.609671,0.89416 3.414978,1.98703 1.805308,1.09286 4.037355,2.43747 4.960107,2.98803 0.922749,0.55055 1.678922,1.06568 1.680386,1.14474 0.0015,0.079 -0.851086,0.6499 -1.894552,1.26856 -1.043466,0.61866 -3.33638,1.99498 -5.095366,3.05848 l -3.198154,1.93364 z m 37.510561,5.01583 c -1.013652,-0.60972 -3.333394,-2.00069 -5.154981,-3.09105 l -3.311976,-1.98246 0.710088,-0.44644 c 2.845538,-1.78904 9.543977,-5.70667 9.620786,-5.62678 0.05202,0.0541 0.0686,2.83369 0.03684,6.17685 l -0.05775,6.07847 z m 28.403952,-0.35469 -2.49348,-1.51194 -0.06,-3.18271 -0.06,-3.18271 2.4621,-1.48701 c 1.35415,-0.81785 2.58956,-1.48701 2.74536,-1.48701 0.1558,0 1.3948,0.67132 2.75332,1.49181 l 2.47004,1.49181 -0.06,3.17722 -0.06,3.17722 -2.56889,1.53255 c -1.41289,0.8429 -2.58374,1.52358 -2.60189,1.51262 -0.0182,-0.011 -1.15506,-0.70029 -2.52647,-1.53185 z m 31.656313,-4.67077 c 0,-3.39933 0.0548,-6.18061 0.12188,-6.18061 0.29249,0 10.05972,5.99287 10.0127,6.14348 -0.0287,0.0921 -2.32078,1.52874 -5.09342,3.19257 l -5.04116,3.02516 z m 34.36729,3.13237 c -2.74245,-1.64693 -5.00904,-3.07148 -5.03687,-3.16567 -0.0587,-0.19861 9.90145,-6.2363 10.0437,-6.08835 0.0522,0.0543 0.069,2.83244 0.0372,6.1736 l -0.0577,6.07484 z m 31.54722,1.5384 -2.49347,-1.51194 -0.06,-3.17791 -0.06,-3.17791 2.47004,-1.49181 c 1.35853,-0.82049 2.59752,-1.49181 2.75332,-1.49181 0.1558,0 1.39121,0.66916 2.74537,1.48701 l 2.46209,1.48701 -0.06,3.17602 -0.06,3.17603 -2.49348,1.52569 c -1.37141,0.83913 -2.54226,1.52252 -2.60189,1.51863 -0.0596,-0.004 -1.23047,-0.68745 -2.60189,-1.51901 z m -174.218127,-4.3763 -2.385065,-1.41463 -0.06024,-3.08039 -0.06024,-3.08039 1.469596,-0.88842 c 0.808278,-0.48863 1.963546,-1.17337 2.567263,-1.52165 l 1.097667,-0.63324 2.534136,1.53052 2.534136,1.53052 v 3.00427 3.00428 l -2.456263,1.48348 c -1.350945,0.81592 -2.546188,1.48277 -2.656095,1.48189 -0.109907,-8.8e-4 -1.273111,-0.63819 -2.584895,-1.41624 z m 31.764724,-4.55274 c 0,-3.30449 0.07318,-5.96727 0.162618,-5.91728 1.013479,0.5664 9.531876,5.68256 9.665826,5.8053 0.134183,0.12296 -8.612499,5.60066 -9.652496,6.04497 -0.09677,0.0414 -0.175948,-2.6285 -0.175948,-5.93299 z m 37.076914,4.79591 c -1.013653,-0.62514 -3.111426,-1.8929 -4.661718,-2.81724 -1.550292,-0.92434 -2.898228,-1.76058 -2.995415,-1.85831 -0.138,-0.13878 6.910185,-4.55982 9.337519,-5.85705 l 0.487854,-0.26073 v 5.984 c 0,3.2912 -0.07318,5.97544 -0.162618,5.96497 -0.08944,-0.0105 -0.99197,-0.5305 -2.005622,-1.15564 z m 28.723509,-0.2586 -2.37938,-1.43326 -0.0602,-3.0509 -0.0602,-3.0509 2.4702,-1.4919 c 1.3586,-0.82054 2.54529,-1.4919 2.63708,-1.4919 0.0918,0 1.27847,0.67136 2.63708,1.4919 l 2.4702,1.4919 -0.0602,3.04502 -0.0602,3.04502 -2.38506,1.43439 c -1.31179,0.78892 -2.4852,1.43653 -2.60758,1.43915 -0.12238,0.003 -1.29323,-0.64022 -2.60188,-1.42852 z m 31.77041,-4.53731 c 0,-3.30449 0.0732,-5.96727 0.16261,-5.91728 0.99963,0.55866 9.53114,5.6818 9.66355,5.80293 0.13231,0.12103 -8.60833,5.59748 -9.65181,6.04734 -0.0959,0.0414 -0.17435,-2.6285 -0.17435,-5.93299 z m 37.07691,4.79591 c -1.01365,-0.62514 -3.11143,-1.8929 -4.66172,-2.81724 -1.55029,-0.92434 -2.89919,-1.76158 -2.99756,-1.86054 -0.13857,-0.13941 6.62522,-4.37641 9.33966,-5.8506 l 0.48786,-0.26495 v 5.984 c 0,3.2912 -0.0732,5.97544 -0.16262,5.96497 -0.0894,-0.0105 -0.99197,-0.5305 -2.00562,-1.15564 z M 2.818743,125.87879 0.108442,124.25962 v -2.56653 -2.56652 l 2.710301,-1.63699 2.7103,-1.63699 0.0605,2.91804 c 0.03327,1.60493 0.03327,4.22514 0,5.82269 l -0.0605,2.90464 z m 29.536135,0.18122 -2.445411,-1.48499 0.06035,-2.94348 0.06035,-2.94348 2.414871,-1.44887 2.414872,-1.44887 2.407,1.42697 2.407001,1.42698 -0.0032,3.04441 -0.0032,3.04441 -2.282845,1.35307 c -1.255565,0.74419 -2.350696,1.37687 -2.433624,1.40595 -0.08293,0.0291 -1.251214,-0.61536 -2.596191,-1.4321 z m 31.825072,-4.34842 v -5.86596 l 4.77013,2.85446 c 2.623571,1.56995 4.770129,2.91501 4.770129,2.98901 0,0.074 -1.731882,1.16954 -3.848627,2.43453 -2.116745,1.265 -4.263303,2.55963 -4.770129,2.87695 l -0.921503,0.57697 z m 34.106927,2.93623 c -2.64714,-1.56551 -4.81417,-2.89713 -4.81563,-2.95914 -0.002,-0.062 2.1644,-1.39918 4.81299,-2.97147 l 4.815633,-2.85871 0.0605,2.91509 c 0.0333,1.6033 0.0333,4.22133 0,5.81786 l -0.0605,2.90277 z m 31.699173,1.45961 -2.38506,-1.43448 v -2.9854 -2.9854 l 2.428,-1.45073 2.42799,-1.45073 2.38955,1.42179 2.38955,1.42179 0.001,3.04441 0.001,3.04441 -2.28285,1.35307 c -1.25556,0.74419 -2.35069,1.37617 -2.43362,1.40441 -0.0829,0.0282 -1.22406,-0.59418 -2.53584,-1.38314 z m 31.76473,-4.39584 v -5.86596 l 4.77013,2.85446 c 2.62357,1.56995 4.77013,2.91339 4.77013,2.9854 0,0.072 -1.73189,1.16836 -3.84863,2.4363 -2.11674,1.26795 -4.2633,2.5642 -4.77013,2.88056 l -0.9215,0.5752 z m 31.76472,1.50784 c -2.87334,-1.72304 -2.81349,-1.39486 -0.50525,-2.77058 l 2.02302,-1.20572 0.065,1.22277 c 0.0358,0.67253 0.0358,1.77198 0,2.44323 l -0.065,1.22045 z m -140.137052,-1.46334 -2.424765,-1.46745 v -2.78669 -2.78669 l 1.820715,-1.1185 c 3.287035,-2.0193 2.722202,-1.97787 5.386159,-0.39508 l 2.328332,1.38337 0.0025,2.86014 0.0025,2.86014 -1.897211,1.17323 c -1.043466,0.64528 -2.098881,1.30188 -2.345364,1.45911 -0.39758,0.25362 -0.72179,0.12028 -2.872919,-1.18158 z m 97.562332,-0.005 -2.41627,-1.46231 v -2.78669 -2.78669 l 1.82072,-1.1185 c 3.28699,-2.01927 2.72157,-1.97784 5.3909,-0.39508 l 2.33308,1.38337 -0.0564,2.91712 -0.0564,2.91712 -2.29966,1.39699 -2.29966,1.39698 z M 21.89926,120.48486 c -2.325438,-1.40031 -4.398261,-2.6447 -4.606272,-2.76532 -0.308842,-0.1791 0.327394,-0.64198 3.469185,-2.52393 2.116062,-1.26754 4.262063,-2.56346 4.76889,-2.87982 l 0.921502,-0.5752 v 5.65058 c 0,3.10782 -0.07318,5.64813 -0.162618,5.64514 -0.08944,-0.003 -2.065249,-1.15114 -4.390687,-2.55145 z m 63.312627,-2.96815 c 0,-3.03877 0.054,-5.52504 0.1199,-5.52504 0.066,0 1.06605,0.57281 2.22245,1.27292 1.1564,0.7001 3.20703,1.92769 4.55697,2.72796 1.34993,0.80028 2.41846,1.49245 2.3745,1.53817 -0.12946,0.13465 -9.09211,5.51103 -9.18711,5.51103 -0.0477,0 -0.0867,-2.48627 -0.0867,-5.52504 z m 33.893133,2.74314 -4.59314,-2.77264 4.59826,-2.74777 c 2.52905,-1.51127 4.66914,-2.74777 4.75576,-2.74777 0.0866,0 0.15749,2.48627 0.15749,5.52504 0,3.03877 -0.0732,5.52296 -0.16262,5.52041 -0.0894,-0.003 -2.22953,-1.25231 -4.75575,-2.77727 z m 63.67769,-2.74314 c 0,-3.03877 0.0534,-5.52504 0.11867,-5.52504 0.25049,0 9.21854,5.47313 9.12591,5.56947 -0.13318,0.13851 -9.06767,5.48061 -9.16615,5.48061 -0.0431,0 -0.0784,-2.48627 -0.0784,-5.52504 z M 8.672992,113.34385 v -5.44995 l 0.921502,0.53998 c 4.637553,2.7175 7.933461,4.78702 7.849316,4.92863 -0.056,0.0942 -1.735242,1.15533 -3.731642,2.35797 -1.996401,1.20264 -3.946925,2.38612 -4.334498,2.62997 l -0.704678,0.44336 z m 34.17847,2.83991 c -2.36929,-1.41702 -4.388607,-2.66086 -4.487375,-2.76409 -0.09877,-0.10323 1.823733,-1.38827 4.272223,-2.85566 2.44849,-1.46738 4.494002,-2.62408 4.545582,-2.57043 0.05158,0.0536 0.06759,2.49807 0.03558,5.43206 l -0.05821,5.33452 z m 31.450059,1.24208 -2.128987,-1.30333 -0.0042,-2.79833 -0.0042,-2.79834 2.133221,-1.29603 c 1.17327,-0.71282 2.279575,-1.27096 2.458455,-1.24032 0.17888,0.0306 1.274421,0.61386 2.434536,1.29604 l 2.109299,1.24031 0.0047,2.74937 0.0047,2.74936 -2.10021,1.28557 c -1.155117,0.70706 -2.252789,1.31559 -2.43927,1.35229 -0.186484,0.0367 -1.297105,-0.51976 -2.46805,-1.23659 z m 31.942299,-4.09582 v -5.43612 l 0.9215,0.53998 c 3.75695,2.20149 7.96794,4.78932 7.96622,4.89558 -0.001,0.0704 -1.48909,1.01337 -3.30656,2.09544 -1.81748,1.08207 -3.81675,2.27651 -4.44283,2.65432 l -1.13833,0.68693 z m 34.17847,2.85374 c -2.36929,-1.41702 -4.38861,-2.66086 -4.48738,-2.76409 -0.0988,-0.10323 1.82374,-1.38827 4.27223,-2.85566 2.44849,-1.46738 4.494,-2.62408 4.54558,-2.57043 0.0516,0.0536 0.0676,2.49807 0.0356,5.43206 l -0.0582,5.33452 z m 31.41081,1.21026 -2.16824,-1.33453 0.0664,-2.80657 0.0664,-2.80657 2.16087,-1.27252 c 1.18848,-0.69989 2.28512,-1.24014 2.43699,-1.20057 0.15185,0.0396 1.22093,0.63009 2.3757,1.31227 l 2.0996,1.24031 0.005,2.74937 0.005,2.74936 -2.10021,1.28557 c -1.15512,0.70706 -2.25279,1.31545 -2.43927,1.35199 -0.18649,0.0365 -1.31477,-0.53411 -2.5073,-1.26811 z M 3e-5,109.18555 c 0,-2.92177 0.04329,-5.31231 0.09619,-5.31231 0.05291,0 1.028615,0.56777 2.168241,1.26171 l 2.072047,1.26171 v 2.74545 2.74545 l -1.246738,0.72303 c -0.685706,0.39767 -1.661415,0.98498 -2.168241,1.30515 L 2.7e-5,114.49786 Z m 66.781809,4.51149 c -0.655893,-0.4108 -2.633014,-1.60745 -4.393603,-2.65922 l -3.201074,-1.9123 4.370516,-2.63136 c 2.403783,-1.44725 4.407131,-2.59328 4.451884,-2.54673 0.04475,0.0466 0.05514,2.42731 0.02309,5.29058 l -0.05828,5.20594 z m 28.620778,-0.55203 -2.05983,-1.28546 -0.0607,-2.72524 -0.0607,-2.72525 2.18115,-1.28446 c 1.19964,-0.70646 2.25461,-1.25165 2.34439,-1.21153 0.0898,0.0401 1.06258,0.61333 2.16178,1.27381 l 1.998563,1.20089 -0.003,2.74557 -0.003,2.74557 -2.074213,1.24032 c -1.14082,0.68217 -2.13956,1.25627 -2.21943,1.27578 -0.0799,0.0195 -1.07213,-0.543 -2.20504,-1.25 z m 69.166873,0.64736 c -0.53664,-0.33309 -2.51244,-1.52019 -4.39068,-2.638 l -3.41497,-2.03238 4.36759,-2.62959 c 2.40218,-1.44628 4.40421,-2.59152 4.44896,-2.54497 0.0448,0.0466 0.0551,2.41697 0.0231,5.2676 l -0.0583,5.18297 z m 28.35655,-0.67306 -2.10722,-1.2404 -0.007,-2.73788 -0.007,-2.73788 2.11404,-1.24791 2.11403,-1.24791 0.061,2.70203 c 0.0335,1.48612 0.0335,3.8379 0,5.22618 l -0.061,2.52416 z M 29.704926,109.04162 v -5.20516 l 0.704678,0.44335 c 0.387573,0.24385 2.343965,1.43089 4.347539,2.63787 2.003571,1.20698 3.61349,2.21905 3.577597,2.24905 -0.226492,0.1893 -8.426509,5.08006 -8.517406,5.08006 -0.06183,0 -0.112408,-2.34233 -0.112408,-5.20517 z m 97.570824,0 v -5.20516 l 0.70468,0.44335 c 0.38757,0.24385 2.34397,1.43089 4.34754,2.63787 2.00357,1.20698 3.61349,2.21905 3.5776,2.24905 -0.22649,0.1893 -8.42651,5.08006 -8.51741,5.08006 -0.0618,0 -0.11241,-2.34233 -0.11241,-5.20517 z m -108.520439,-0.27242 -1.951417,-1.18707 -0.06082,-2.61174 -0.06082,-2.61173 1.994381,-1.19714 c 1.09691,-0.65843 2.108777,-1.197153 2.248593,-1.197153 0.139817,0 1.147954,0.531943 2.240302,1.182103 l 1.986091,1.18209 -0.0047,2.63281 -0.0047,2.63282 -2.034926,1.18394 c -1.119209,0.65116 -2.117178,1.18263 -2.21771,1.18103 -0.10055,-0.002 -1.060941,-0.53708 -2.13422,-1.18996 z m 31.871557,-3.87192 -0.0015,-5.063213 0.750729,0.460693 c 0.412903,0.25338 2.297548,1.38097 4.188102,2.50577 2.746862,1.63426 3.380383,2.09968 3.153682,2.31687 -0.262366,0.25137 -7.870919,4.84563 -8.021931,4.84388 -0.03708,-4.5e-4 -0.06813,-2.27923 -0.069,-5.064 z m 34.058999,2.68942 c -2.137734,-1.29226 -3.97076,-2.4369 -4.073392,-2.54364 -0.104253,-0.10843 1.371794,-1.12466 3.34473,-2.30278 1.942232,-1.15978 3.848432,-2.30267 4.236012,-2.53974 l 0.70468,-0.431063 v 5.096293 c 0,2.80296 -0.0732,5.09049 -0.16262,5.08339 -0.0894,-0.007 -1.91167,-1.0702 -4.04941,-2.36246 z m 31.640273,1.1825 -1.95142,-1.18707 -0.0608,-2.61174 -0.0608,-2.61173 1.99438,-1.19714 c 1.09691,-0.65843 2.10878,-1.197153 2.2486,-1.197153 0.13981,0 1.14795,0.531943 2.2403,1.182103 l 1.98609,1.18209 -0.008,2.63281 -0.008,2.63282 -2.03497,1.18394 c -1.11923,0.65116 -2.1157,1.18263 -2.21438,1.18103 -0.0987,-0.002 -1.05755,-0.53708 -2.13083,-1.18996 z m 31.87313,-3.87066 v -5.062913 l 0.65048,0.394763 c 0.35776,0.21711 2.24062,1.34547 4.18414,2.50746 2.80699,1.67823 3.47583,2.16808 3.25237,2.38202 -0.26007,0.24899 -7.8684,4.84258 -8.01956,4.84188 -0.0371,-1.7e-4 -0.0674,-2.27862 -0.0674,-5.06321 z m 34.05742,2.68816 c -2.13773,-1.29226 -3.96828,-2.43433 -4.06789,-2.53793 -0.0996,-0.1036 1.35673,-1.10917 3.23632,-2.2346 1.87958,-1.12543 3.78331,-2.27089 4.23051,-2.54546 l 0.81309,-0.499233 v 5.096293 c 0,2.80296 -0.0732,5.09049 -0.16262,5.08339 -0.0894,-0.007 -1.91167,-1.0702 -4.04941,-2.36246 z M 10.841233,104.94888 C 10.18534,104.5537 8.349762,103.45146 6.762171,102.49945 l -2.886529,-1.73092 3.754626,-2.267103 c 2.065045,-1.24692 3.900622,-2.32538 4.079062,-2.3966 0.281834,-0.11248 0.324435,0.50749 0.324435,4.721513 0,2.66805 0,4.84876 0,4.84602 0,-0.003 -0.536639,-0.3283 -1.192532,-0.72348 z m 28.946011,-0.47844 -1.951416,-1.18512 -0.06106,-2.49694 -0.06105,-2.496943 2.04949,-1.24146 2.049488,-1.24146 2.083953,1.23189 2.083952,1.23189 -0.06114,2.506513 -0.06114,2.50651 -1.951417,1.18512 c -1.073279,0.65181 -2.000202,1.18511 -2.059828,1.18511 -0.05963,0 -0.98655,-0.5333 -2.059829,-1.18511 z m 65.734026,-1.25759 -4.08332,-2.45516 1.48143,-0.892933 c 3.98983,-2.40486 6.52812,-3.88443 6.66395,-3.88443 0.0826,0 0.13519,2.18183 0.11685,4.848503 -0.0183,2.66668 -0.0473,4.84641 -0.0645,4.84385 -0.0171,-0.003 -1.86861,-1.10948 -4.11444,-2.45983 z m 31.8368,1.25759 -1.95141,-1.18512 -0.0611,-2.50387 -0.0611,-2.503883 1.92985,-1.14862 c 1.06142,-0.63174 2.05306,-1.14862 2.20363,-1.14862 0.15058,0 1.14221,0.51688 2.20363,1.14862 l 1.92985,1.14862 -0.0611,2.503883 -0.0611,2.50387 -1.95142,1.18512 c -1.07328,0.65181 -2.0002,1.18511 -2.05983,1.18511 -0.0596,0 -0.98655,-0.5333 -2.05983,-1.18511 z m -65.646888,0.8463 c -0.192464,-0.20018 -0.198303,-9.336413 -0.006,-9.336413 0.257876,0 7.869243,4.591263 7.869243,4.746813 0,0.12403 -7.450456,4.72469 -7.651302,4.72469 -0.04515,0 -0.140537,-0.0608 -0.211974,-0.13509 z m 97.600768,-4.06913 c -0.0152,-2.338863 -0.051,-4.486453 -0.0794,-4.772423 -0.065,-0.65338 0.0213,-0.62081 2.81736,1.0644 1.19253,0.71873 2.88336,1.73664 3.7574,2.26202 l 1.58916,0.955243 -3.7574,2.25999 c -2.06657,1.243 -3.87936,2.31022 -4.02843,2.37162 -0.21046,0.0867 -0.27721,-0.83869 -0.2987,-4.14085 z M 60.747905,100.11533 58.759349,98.895437 v -2.34265 -2.34266 l 1.922941,-1.14451 c 1.057618,-0.62947 1.98531,-1.1445 2.061537,-1.1445 0.07623,0 1.019134,0.52071 2.095351,1.15713 l 1.956755,1.15713 -0.06125,2.34753 -0.06125,2.34752 -1.968483,1.202393 -1.96848,1.20239 z m 97.573365,-0.0104 -1.99109,-1.220263 v -2.33727 -2.33727 l 1.92294,-1.14451 c 1.05762,-0.62947 1.99636,-1.1445 2.08609,-1.1445 0.0897,0 1.03263,0.52191 2.09533,1.1598 l 1.93217,1.15981 -0.0612,2.36087 -0.0612,2.36088 -1.96595,1.181363 -1.96594,1.18137 -1.9911,-1.22027 z m -129.515368,-1.241423 -3.826147,-2.30249 2.95885,-1.77322 c 1.627369,-0.97527 3.373529,-2.02352 3.880355,-2.32946 l 0.921502,-0.55624 v 4.6325 c 0,2.54787 -0.02439,4.632253 -0.05421,4.631943 -0.02981,-2.2e-4 -1.775973,-1.03667 -3.880354,-2.303033 z m 63.777995,-2.29527 c 0,-2.55592 0.054,-4.64712 0.11992,-4.64712 0.36535,0 7.672983,4.61235 7.530843,4.75323 -0.22113,0.21919 -6.903563,4.242793 -7.327383,4.411943 -0.28017,0.11182 -0.32338,-0.49179 -0.32338,-4.518053 z m 33.792833,2.29527 -3.82615,-2.30249 2.95885,-1.77321 c 1.62737,-0.97527 3.37353,-2.02353 3.88036,-2.32946 l 0.9215,-0.55625 v 4.6325 c 0,2.54788 -0.0244,4.632253 -0.0542,4.631953 -0.0298,-2.3e-4 -1.77597,-1.03667 -3.88035,-2.303043 z m 63.778,-2.33819 c 0,-2.81844 0.0805,-4.61226 0.20498,-4.56662 0.11275,0.0413 1.23227,0.68406 2.48783,1.42824 l 2.28285,1.35308 0.004,1.80409 0.004,1.80409 -2.34873,1.40945 c -1.29178,0.775203 -2.41308,1.409453 -2.49175,1.409453 -0.0787,0 -0.14303,-2.088803 -0.14303,-4.641783 z M 3e-5,96.522317 v -1.71287 l 1.246738,0.72288 c 0.685706,0.39759 1.329273,0.80263 1.430149,0.9001 0.147505,0.14252 -2.228607,1.80275 -2.580092,1.80275 -0.05324,0 -0.0968,-0.77079 -0.0968,-1.71287 z m 16.04498,-4.15045 v -4.55478 l 0.704678,0.42619 c 0.387573,0.2344 2.046277,1.23083 3.686009,2.21427 1.639732,0.98344 2.981331,1.84882 2.981331,1.92306 0,0.0742 -1.341599,0.93556 -2.981331,1.91403 -1.639732,0.97848 -3.298436,1.97097 -3.686009,2.20553 l -0.704678,0.42649 z m 33.777962,2.29183 c -1.993305,-1.19849 -3.623818,-2.22981 -3.623365,-2.29183 4.34e-4,-0.062 1.655732,-1.09455 3.678397,-2.29452 l 3.677568,-2.18177 v 4.49327 c 0,2.47129 -0.02439,4.48441 -0.05421,4.47359 -0.02981,-0.0108 -1.685092,-1.00025 -3.678394,-2.19874 z m 31.919727,1.11249 -1.843005,-1.09293 v -2.29771 -2.29771 l 1.87294,-1.12769 1.872939,-1.12769 1.862004,1.08577 1.862,1.08577 -8.6e-4,2.36787 -8.7e-4,2.36788 -1.81132,1.07118 c -0.996221,0.58915 -1.847234,1.06826 -1.891139,1.06469 -0.0439,-0.004 -0.909178,-0.49831 -1.92283,-1.09943 z m 31.873141,-3.40432 v -4.55478 l 0.70468,0.42619 c 0.38757,0.2344 2.04627,1.23083 3.68601,2.21427 1.63973,0.98344 2.98133,1.85555 2.98133,1.93801 0,0.0825 -1.3416,0.94219 -2.98133,1.91051 -1.63974,0.96831 -3.29844,1.95406 -3.68601,2.19057 l -0.70468,0.43002 z m 33.77796,2.29183 c -1.99331,-1.19849 -3.62413,-2.22981 -3.62406,-2.29183 8e-5,-0.062 1.65535,-1.09074 3.6784,-2.28606 l 3.67826,-2.17331 v 4.4848 c 0,2.46665 -0.0244,4.47596 -0.0542,4.46514 -0.0298,-0.0108 -1.68509,-1.00025 -3.67839,-2.19874 z m 31.91973,1.11856 -1.84301,-1.09742 v -2.2985 -2.2985 l 1.88569,-1.13537 1.88569,-1.13536 1.84846,1.09344 1.84845,1.09345 0.003,2.36787 0.003,2.36788 -1.75242,1.0148 c -0.96384,0.55814 -1.81602,1.03962 -1.89373,1.06996 -0.0777,0.0303 -0.97066,-0.43867 -1.98431,-1.04225 z m -174.054934,-4.2717 -1.785699,-1.05554 -0.0018,-2.26663 -0.0018,-2.26662 1.571974,-0.92909 c 0.864586,-0.51099 1.677125,-0.96247 1.805641,-1.00329 0.128517,-0.0408 1.032021,0.38245 2.007786,0.94059 l 1.774119,1.0148 -0.05637,2.23991 -0.05637,2.23991 -1.084121,0.65693 c -0.596266,0.36131 -1.377399,0.84315 -1.73585,1.07075 l -0.651731,0.41382 z m 97.570824,0 -1.7857,-1.05554 -0.002,-2.26663 -0.002,-2.26662 1.57197,-0.92909 c 0.86459,-0.51099 1.67713,-0.96247 1.80564,-1.00329 0.12852,-0.0408 1.03202,0.38245 2.00779,0.94059 l 1.77411,1.0148 -0.0564,2.23991 -0.0564,2.23991 -1.08412,0.65693 c -0.59627,0.36131 -1.3774,0.84315 -1.73585,1.07075 l -0.65174,0.41382 -1.78569,-1.05554 z m 31.81835,-3.32633 v -4.36913 l 2.6561,1.61381 c 1.46085,0.88759 3.08825,1.86764 3.61645,2.17789 0.73025,0.42892 0.88611,0.61085 0.65047,0.75925 -0.17043,0.10734 -1.79784,1.0934 -3.61645,2.19124 l -3.30657,1.99607 z m -97.570826,-0.0895 v -4.27716 l 3.414978,2.05019 c 1.878239,1.12761 3.493305,2.12407 3.589037,2.21436 0.15074,0.14217 -6.48498,4.28978 -6.863182,4.28978 -0.07746,0 -0.140833,-1.92472 -0.140833,-4.27717 z m 35.667557,3.43783 c -0.71552,-0.44208 -2.243958,-1.37387 -3.396528,-2.07064 l -2.095584,-1.26686 3.435681,-2.08355 c 1.889624,-1.14595 3.49124,-2.08355 3.559145,-2.08355 0.06791,0 0.123466,1.87739 0.123466,4.17197 0,2.29459 -0.07318,4.16397 -0.162618,4.15419 -0.08944,-0.01 -0.748043,-0.37948 -1.463562,-0.82156 z m 95.473679,-1.26491 -3.39809,-2.06684 0.57938,-0.36027 c 2.34045,-1.45535 6.30457,-3.81258 6.41156,-3.81258 0.0718,0 0.13048,1.87739 0.13048,4.17197 0,2.29459 -0.0732,4.16355 -0.16262,4.15326 -0.0894,-0.0103 -1.69176,-0.94878 -3.56071,-2.08554 z m -142.142622,-3.15066 -1.56954,-0.94666 -0.0024,-2.15388 -0.0024,-2.15387 1.600183,-0.94691 c 0.880102,-0.5208 1.733847,-0.93947 1.897211,-0.93036 0.163366,0.009 0.980023,0.44448 1.814796,0.96751 l 1.517768,0.95096 0.06218,2.06441 0.06218,2.0644 -1.688365,1.02322 c -0.928599,0.56277 -1.785935,1.01976 -1.905188,1.01553 -0.119253,-0.004 -0.923117,-0.43369 -1.786363,-0.95435 z m 32.033319,-3.06951 c 0,-2.24317 0.04561,-4.07848 0.101359,-4.07848 0.213697,0 6.620098,3.9063 6.618472,4.03561 -0.0015,0.12039 -2.702938,1.79377 -5.689917,3.52458 l -1.029914,0.59679 z m 33.67,2.04722 c -1.81418,-1.07456 -3.30203,-2.00448 -3.30635,-2.0665 -0.004,-0.062 1.48002,-1.0013 3.29851,-2.08731 l 3.30634,-1.97456 0.0623,2.03094 c 0.0343,1.11701 0.0343,2.93549 0,4.04106 l -0.0623,2.01012 z m 31.867513,1.02253 -1.56954,-0.94666 -0.002,-2.15388 -0.002,-2.15387 1.60018,-0.94691 c 0.8801,-0.5208 1.73385,-0.93947 1.89721,-0.93036 0.16337,0.009 0.98003,0.44448 1.8148,0.96751 l 1.51777,0.95096 0.0622,2.06441 0.0622,2.0644 -1.68837,1.02322 c -0.9286,0.56277 -1.78593,1.01976 -1.90519,1.01553 -0.11925,-0.004 -0.92312,-0.43369 -1.78636,-0.95435 z m 32.03331,-3.06975 c 0,-2.24317 0.0513,-4.07848 0.114,-4.07848 0.22137,0 6.60753,3.90161 6.60584,4.03582 -0.002,0.12021 -2.70459,1.79452 -5.68992,3.52437 l -1.02992,0.59679 z m 33.67001,2.04722 c -1.81418,-1.07456 -3.30204,-2.00448 -3.30635,-2.0665 -0.004,-0.062 1.48001,-1.0013 3.2985,-2.08731 l 3.30635,-1.97456 0.0623,2.03094 c 0.0343,1.11701 0.0343,2.93549 0,4.04106 l -0.0623,2.01012 z m -172.003756,-2.9781 c -0.536639,-0.33714 -1.977826,-1.21805 -3.202636,-1.95757 l -2.226929,-1.34457 3.202637,-1.9389 3.202637,-1.9389 0.06249,2.02758 c 0.03437,1.11516 0.03437,2.86857 0,3.89646 l -0.06249,1.86889 z m 29.76322,-0.29507 -1.567855,-0.93569 -0.0041,-2.04576 -0.0041,-2.04577 1.619117,-0.9635 c 0.890514,-0.52993 1.695473,-0.92858 1.788798,-0.88589 0.09333,0.0427 0.828285,0.4669 1.633245,0.9427 l 1.463562,0.86507 -0.0023,2.06658 -0.0023,2.06657 -1.61688,0.95843 c -0.889285,0.52713 -1.644422,0.94819 -1.678084,0.93569 -0.03366,-0.0125 -0.766738,-0.4438 -1.62906,-0.95843 z m 32.031636,-2.98615 c 0,-2.17372 0.07318,-3.9098 0.162618,-3.85796 2.202579,1.27669 6.349909,3.83272 6.300449,3.88301 -0.0367,0.0373 -1.505927,0.93622 -3.264912,1.99752 l -3.198155,1.92965 z m 35.23391,2.94252 c -0.83477,-0.52056 -2.2812,-1.40166 -3.21429,-1.95799 l -1.69653,-1.0115 3.2143,-1.9334 3.21429,-1.93341 0.0625,2.0251 c 0.0344,1.11381 0.0344,2.86494 0,3.8914 l -0.0625,1.86629 z m 30.30528,0.0436 -1.56785,-0.93569 -0.004,-2.04111 -0.004,-2.04112 1.60018,-0.94691 c 0.8801,-0.52081 1.6521,-0.94692 1.71555,-0.94692 0.0634,0 0.80693,0.4147 1.65218,0.92154 l 1.53681,0.92155 -0.002,2.06648 -0.002,2.06649 -1.61688,0.95843 c -0.88928,0.52713 -1.64442,0.94819 -1.67808,0.93569 -0.0337,-0.0125 -0.76674,-0.4438 -1.62906,-0.95843 z m 32.03164,-2.98505 v -3.94254 l 0.48785,0.26618 c 0.26832,0.1464 1.73597,1.0254 3.26143,1.95333 2.44721,1.48861 2.72786,1.71977 2.38507,1.96447 -0.21368,0.15254 -1.68133,1.04769 -3.26143,1.98924 l -2.87292,1.71191 z M 2.601919,75.601727 v -3.72831 l 3.035536,1.82075 c 1.669546,1.00141 3.032671,1.88423 3.029169,1.9618 -0.0052,0.11565 -5.289769,3.34625 -5.887014,3.5989 -0.09773,0.0413 -0.177691,-1.60256 -0.177691,-3.65314 z m 33.824552,2.08743 c -1.490665,-0.88084 -2.836592,-1.72578 -2.990949,-1.87764 -0.224989,-0.22136 0.323263,-0.63856 2.764507,-2.10366 l 3.045155,-1.82755 v 3.70607 c 0,2.03835 -0.02439,3.70568 -0.05421,3.7052 -0.02981,-4.5e-4 -1.273841,-0.72157 -2.764507,-1.60242 z m 31.655345,0.75233 -1.408389,-0.85098 -0.06236,-1.94744 -0.06236,-1.94745 1.606217,-0.92218 1.606215,-0.92217 1.545886,0.93086 1.545889,0.93086 -0.0015,1.94407 -0.0015,1.94406 -1.493081,0.84567 c -0.821193,0.46512 -1.57715,0.84567 -1.6799,0.84567 -0.102753,0 -0.820599,-0.38294 -1.595214,-0.85097 z m 32.090934,-2.84484 v -3.7334 l 2.54768,1.53878 c 1.40122,0.84634 2.82469,1.68827 3.16325,1.87096 l 0.61556,0.33216 -2.98518,1.78728 c -1.64186,0.983 -3.06532,1.8211 -3.16325,1.86244 -0.0979,0.0413 -0.17806,-1.60485 -0.17806,-3.65822 z m 33.82455,2.09251 c -1.49067,-0.88084 -2.83695,-1.72616 -2.99175,-1.87848 -0.22607,-0.22245 0.31794,-0.63463 2.7645,-2.09459 l 3.04596,-1.81764 v 3.69701 c 0,2.03335 -0.0244,3.6966 -0.0542,3.69612 -0.0298,-4.5e-4 -1.27385,-0.72157 -2.76451,-1.60242 z m 31.65631,0.74175 -1.40935,-0.85272 -0.0624,-1.94129 -0.0624,-1.94128 1.60622,-0.92218 1.60622,-0.92217 1.54588,0.93086 1.54589,0.93086 -0.002,1.94407 -0.002,1.94406 -1.49309,0.84567 c -0.82119,0.46512 -1.57671,0.84368 -1.67893,0.84125 -0.10222,-0.002 -0.82007,-0.38813 -1.59521,-0.85713 z M 23.633852,71.525077 c 0,-1.92951 0.05087,-3.50821 0.113052,-3.50821 0.137985,0 5.353256,3.13638 5.571537,3.35063 0.08557,0.084 -0.743787,0.68243 -1.843004,1.32988 -1.09922,0.64745 -2.413256,1.4379 -2.920083,1.75655 l -0.921502,0.57937 z m 33.459228,1.70952 c -1.572341,-0.94727 -2.791976,-1.7897 -2.710301,-1.87208 0.344304,-0.34728 5.502455,-3.37738 5.591563,-3.2847 0.05366,0.0558 0.07057,1.62644 0.03756,3.49028 l -0.06002,3.38879 z m 32.021637,0.91087 -1.40936,-0.85343 v -1.86329 -1.8633 l 1.46357,-0.83067 1.46356,-0.83067 1.46356,0.83067 1.46356,0.83067 v 1.8633 1.86329 l -1.40935,0.85343 c -0.77515,0.46939 -1.45815,0.85344 -1.51777,0.85344 -0.0596,0 -0.74262,-0.38405 -1.51777,-0.85344 z m 32.089963,-2.62039 c 0,-1.92951 0.0563,-3.50821 0.12513,-3.50821 0.14668,0 5.3303,3.12315 5.55946,3.3496 0.0856,0.0845 -0.74379,0.68346 -1.84301,1.33091 -1.09922,0.64745 -2.41325,1.4379 -2.92008,1.75655 l -0.9215,0.57937 z m 34.74033,2.46849 c -0.86773,-0.5453 -2.1586,-1.32361 -2.86861,-1.72957 -0.70999,-0.40597 -1.21967,-0.80858 -1.1326,-0.89469 0.36291,-0.35894 5.51187,-3.38459 5.60137,-3.29149 0.0537,0.0558 0.0706,1.63277 0.0376,3.50434 l -0.06,3.40287 z m 30.74053,0.15267 -1.40935,-0.85266 -0.0626,-1.82478 -0.0626,-1.82477 1.39878,-0.81358 c 0.76932,-0.44747 1.52065,-0.81358 1.66962,-0.81358 0.14897,0 0.89287,0.37845 1.65312,0.84099 l 1.38227,0.841 -0.0622,1.79736 -0.0622,1.79736 -1.40936,0.85266 c -0.77514,0.46897 -1.45814,0.85267 -1.51777,0.85267 -0.0596,0 -0.74262,-0.3837 -1.51777,-0.85267 z m -174.137208,-4.32404 -1.415449,-0.88167 0.01679,-1.716 0.01679,-1.716 1.41532,-0.81004 1.41532,-0.81004 1.403392,0.83937 1.403393,0.83937 -0.03402,1.69938 c -0.03348,1.67217 -0.04563,1.7066 -0.758884,2.15063 -0.398675,0.24819 -1.022392,0.63922 -1.386036,0.86896 l -0.661172,0.4177 z m 97.533288,-0.0398 -1.47041,-0.89599 0.063,-1.6909 0.063,-1.6909 1.41532,-0.80807 1.41532,-0.80806 1.40339,0.83937 1.40339,0.83937 -0.034,1.69629 c -0.0372,1.85479 0.0454,1.7256 -1.81098,2.83212 l -0.97769,0.58276 z m -65.415835,-2.54931 c 0,-1.81611 0.07318,-3.25849 0.162618,-3.20527 0.08944,0.0532 1.309609,0.77835 2.711489,1.61142 1.401878,0.83308 2.499171,1.59832 2.438425,1.70055 -0.09146,0.15392 -4.574172,2.87566 -5.138905,3.12015 -0.09549,0.0413 -0.173627,-1.41074 -0.173627,-3.22685 z m 33.238838,1.63823 -2.645547,-1.60549 1.453014,-0.8842 c 0.799157,-0.48632 2.06283,-1.23938 2.808162,-1.67349 l 1.355151,-0.78927 v 3.28933 c 0,1.80913 -0.07318,3.28467 -0.162618,3.27897 -0.08944,-0.006 -1.353113,-0.73282 -2.808162,-1.61585 z m 64.331987,-1.65702 c 0,-1.80578 0.0732,-3.2397 0.16262,-3.18648 0.0894,0.0532 1.31718,0.78287 2.72832,1.62147 2.06173,1.22524 2.50892,1.57797 2.27665,1.79576 -0.32371,0.30353 -4.87447,3.05248 -5.05324,3.05248 -0.0629,0 -0.11435,-1.47746 -0.11435,-3.28323 z m 33.24605,1.65249 -2.63833,-1.60973 1.4458,-0.87982 c 0.79519,-0.4839 2.05562,-1.23499 2.80095,-1.6691 l 1.35515,-0.78927 v 3.28933 c 0,1.80913 -0.0732,3.2846 -0.16262,3.27882 -0.0894,-0.006 -1.34986,-0.73488 -2.80095,-1.62023 z M 2.002771,65.011467 c -1.967374,-1.14265 -2.007336,-1.1824 -1.951417,-1.94105 0.05294,-0.71825 0.198857,-0.86101 2.008505,-1.96505 l 1.951416,-1.19054 0.0637,1.5704 c 0.03504,0.86373 0.03504,2.27294 0,3.13159 l -0.0637,1.56119 z m 31.322973,0.37755 -1.25772,-0.78822 0.04408,-1.57009 0.04408,-1.57008 1.368381,-0.7959 1.368381,-0.79591 1.254618,0.76164 1.254618,0.76164 0.05823,1.67744 0.05823,1.67744 -1.289622,0.73291 c -0.709292,0.4031 -1.369706,0.72491 -1.467584,0.71513 -0.09788,-0.01 -0.743939,-0.37248 -1.435686,-0.806 z m 32.371975,-2.31357 v -3.15636 l 2.114034,1.25573 c 3.577888,2.12525 3.403017,1.76762 1.433554,2.93181 -0.937521,0.55418 -2.11926,1.25906 -2.626086,1.5664 l -0.921502,0.55879 z m 33.338848,1.60099 c -1.40005,-0.82943 -2.54375,-1.55879 -2.54156,-1.6208 0.002,-0.062 1.14768,-0.78387 2.54553,-1.60411 l 2.541563,-1.49136 0.0637,1.54774 c 0.035,0.85125 0.035,2.25172 0,3.11215 l -0.0637,1.56442 z m 31.979403,0.79368 -1.13833,-0.70243 0.003,-1.7017 0.003,-1.70169 1.31216,-0.7497 1.31216,-0.7497 1.23295,0.75997 1.23295,0.75997 0.0622,1.68107 0.0623,1.68107 -1.28229,0.73291 c -0.70525,0.4031 -1.36747,0.72386 -1.47159,0.71278 -0.10413,-0.0111 -0.70157,-0.33622 -1.32765,-0.72255 z m 32.25258,-2.41017 v -3.17187 l 0.48785,0.31426 c 0.26832,0.17285 1.44987,0.89543 2.62567,1.60572 l 2.13782,1.29145 -1.70417,1.00736 c -0.93729,0.55405 -2.11884,1.25882 -2.62567,1.56616 l -0.9215,0.55879 z m 31.27687,0.39699 c -0.62726,-0.31464 -0.61527,-0.49404 0.0542,-0.81129 0.51215,-0.2427 0.54206,-0.21982 0.54206,0.41482 0,0.36944 -0.0244,0.66484 -0.0542,0.65644 -0.0298,-0.008 -0.27374,-0.12538 -0.54206,-0.25997 z M 22.658144,60.545687 c -1.192533,-0.73933 -2.288374,-1.4187 -2.435204,-1.50972 -0.166984,-0.10352 0.665333,-0.72565 2.222447,-1.66121 l 2.489409,-1.49571 v 3.02452 c 0,1.66348 -0.02439,3.01592 -0.05421,3.00543 -0.02981,-0.0105 -1.029914,-0.62399 -2.222446,-1.36331 z m 31.917761,0.63422 -1.237157,-0.71278 v -1.58535 -1.58534 l 1.246738,-0.71047 1.246738,-0.71047 1.192533,0.72971 1.192532,0.72972 0.06333,1.47179 c 0.06929,1.61011 0.09685,1.56361 -1.482272,2.50106 l -0.985292,0.58492 z m 65.390955,-0.79944 -2.43034,-1.51612 2.48455,-1.50201 2.48455,-1.50201 v 3.03387 c 0,1.66864 -0.0244,3.0268 -0.0542,3.01814 -0.0298,-0.009 -1.14786,-0.698 -2.48456,-1.53187 z m 32.17987,0.79944 -1.23715,-0.71278 v -1.58535 -1.58534 l 1.24673,-0.71047 1.24674,-0.71047 1.19253,0.72971 1.19254,0.72972 0.0633,1.47179 c 0.0693,1.61011 0.0969,1.56361 -1.48227,2.50106 l -0.98529,0.58492 z m -65.417073,-2.29627 c 0,-1.55039 0.0515,-2.8189 0.11435,-2.8189 0.14734,0 4.65577,2.73344 4.65577,2.82277 0,0.0936 -4.49042,2.81503 -4.6449,2.81503 -0.0689,0 -0.12522,-1.26851 -0.12522,-2.8189 z m 97.570823,0 c 0,-1.55039 0.0563,-2.8189 0.12523,-2.8189 0.15854,0 4.6449,2.72269 4.6449,2.8189 0,0.0962 -4.48636,2.8189 -4.6449,2.8189 -0.0689,0 -0.12523,-1.26851 -0.12523,-2.8189 z m -174.1511,-4.17661 c 0.03687,-1.49139 0.134438,-2.67443 0.216824,-2.62897 1.458452,0.80483 4.161038,2.50019 4.161038,2.61028 0,0.12983 -4.151875,2.72884 -4.360975,2.7299 -0.04615,2.3e-4 -0.05375,-1.21981 -0.01689,-2.71121 z m 33.163157,1.39322 c -1.161674,-0.7017 -2.111756,-1.32656 -2.111292,-1.38858 8.67e-4,-0.12303 4.22538,-2.70614 4.425667,-2.70614 0.06765,0 0.122994,1.21776 0.122994,2.70614 0,1.48838 -0.07318,2.69675 -0.162618,2.68527 -0.08944,-0.0115 -1.11308,-0.59499 -2.274751,-1.29669 z m 32.091178,0.68375 -1.026794,-0.6065 -0.0024,-1.46583 -0.0024,-1.46582 1.185725,-0.66523 1.185721,-0.66522 0.927554,0.53041 c 1.445232,0.82643 1.469616,0.86441 1.469616,2.28891 v 1.3209 l -1.138326,0.67898 c -0.626079,0.37344 -1.235897,0.67379 -1.35515,0.66744 -0.119254,-0.006 -0.678881,-0.28446 -1.243619,-0.61804 z m 32.316555,-2.07823 0.0671,-2.71801 1.23386,0.7351 c 0.67862,0.40431 1.70983,1.0062 2.29158,1.33755 l 1.05773,0.60246 -2.05911,1.2604 c -1.13251,0.69323 -2.19391,1.31443 -2.35867,1.38046 -0.24689,0.0989 -0.28777,-0.35792 -0.23247,-2.59796 z m 33.16309,1.39448 c -1.16167,-0.7017 -2.11175,-1.32656 -2.11129,-1.38858 8.7e-4,-0.12303 4.22538,-2.70614 4.42567,-2.70614 0.0676,0 0.12299,1.21776 0.12299,2.70614 0,1.48838 -0.0732,2.69675 -0.16261,2.68527 -0.0894,-0.0115 -1.11308,-0.59499 -2.27476,-1.29669 z m 32.09118,0.68375 -1.02679,-0.6065 -0.003,-1.47374 -0.003,-1.47373 1.17758,-0.66252 1.17757,-0.66252 0.93646,0.53561 c 1.45536,0.8324 1.47852,0.86833 1.47852,2.29412 v 1.3209 l -1.13832,0.67898 c -0.62608,0.37344 -1.2359,0.67379 -1.35515,0.66744 -0.11926,-0.006 -0.67888,-0.28446 -1.24362,-0.61804 z M 3e-5,50.539637 c 0,-1.42633 0.04481,-2.59332 0.09958,-2.59332 0.05477,0 0.54262,0.27833 1.08412,0.61851 l 0.984546,0.61852 -0.0031,1.35471 -0.0031,1.35471 -1.080997,0.6201 -1.080996,0.62009 z m 31.038214,0.0282 c 0.04182,-1.44096 0.09274,-2.62029 0.113143,-2.62073 0.0947,-0.002 3.886159,2.31055 4.038754,2.46343 0.135721,0.13598 -1.589451,1.27612 -4.043485,2.67229 -0.10145,0.0577 -0.150235,-1.07403 -0.108412,-2.51499 z m 33.35853,1.2803 c -1.132905,-0.6809 -2.090637,-1.26899 -2.128292,-1.30685 -0.03765,-0.0379 0.889269,-0.63548 2.059828,-1.32804 l 2.128293,-1.2592 0.06477,1.35804 c 0.03563,0.74692 0.03563,1.90164 0,2.56605 l -0.06477,1.20801 z m 32.038873,0.65113 -1.02679,-0.6065 -0.003,-1.36098 -0.003,-1.36099 1.13859,-0.64058 1.13859,-0.64059 1.02965,0.64686 1.02965,0.64685 -2.1e-4,1.35471 -2.2e-4,1.35472 -1.06165,0.62015 c -0.58391,0.34109 -1.09605,0.61402 -1.13811,0.60651 -0.0421,-0.008 -0.53851,-0.28658 -1.10325,-0.62016 z m 32.173823,-1.93207 c 0.0416,-1.44102 0.0945,-2.62024 0.11763,-2.62047 0.0934,-9e-4 4.18608,2.52765 4.18608,2.58633 0,0.0484 -2.95346,1.84319 -4.1953,2.54951 -0.10123,0.0576 -0.15002,-1.07434 -0.10841,-2.51537 z m 33.35813,1.29435 c -1.1329,-0.69115 -2.09063,-1.28645 -2.12829,-1.32287 -0.0377,-0.0364 0.88927,-0.63287 2.05983,-1.32543 l 2.12829,-1.2592 0.0648,1.35803 c 0.0356,0.74693 0.0356,1.90886 0,2.58208 l -0.0648,1.22403 z m 32.03888,0.63772 -1.0268,-0.60651 -0.003,-1.35307 -0.003,-1.35307 1.0839,-0.63316 1.0839,-0.63317 v 2.60639 c 0,1.43352 -0.0244,2.60026 -0.0542,2.59275 -0.0298,-0.008 -0.51627,-0.28658 -1.081,-0.62016 z M 19.884875,48.155497 c -1.009766,-0.65367 -1.021152,-0.67445 -1.021152,-1.86302 0,-1.20035 0.0014,-1.20278 1.026417,-1.78905 l 1.026418,-0.58707 1.03341,0.58499 1.033412,0.58499 v 1.20164 c 0,1.26725 0.0052,1.26053 -1.851767,2.39121 -0.124073,0.0756 -0.685105,-0.16011 -1.246738,-0.52369 z m 97.562235,-0.006 c -1.00005,-0.64738 -1.01256,-0.67032 -1.01256,-1.85745 0,-1.20035 0.001,-1.20278 1.02642,-1.78905 l 1.02642,-0.58707 1.03341,0.58499 1.03341,0.58499 -0.003,1.26085 -0.003,1.26085 -1.04414,0.59869 -1.04415,0.5987 -1.01256,-0.65549 z m -65.409307,-1.91148 v -2.38443 l 1.138327,0.67576 c 0.626079,0.37167 1.561115,0.9248 2.077859,1.22919 l 0.939536,0.55343 -1.940975,1.15523 c -1.067535,0.63539 -2.002571,1.15524 -2.077859,1.15524 -0.07529,0 -0.136888,-1.07299 -0.136888,-2.38442 z m 33.230124,1.30684 c -0.982823,-0.58563 -1.787782,-1.1312 -1.788795,-1.21239 -0.0011,-0.0812 0.510406,-0.44922 1.136486,-0.81787 0.626079,-0.36864 1.504219,-0.89576 1.951419,-1.17136 l 0.81309,-0.50109 v 2.39014 c 0,1.31459 -0.0732,2.38727 -0.16262,2.38375 -0.0894,-0.004 -0.96675,-0.48556 -1.94958,-1.07118 z m 64.340703,-1.30684 v -2.38443 l 1.13833,0.67576 c 0.62608,0.37167 1.56111,0.9248 2.07786,1.22919 l 0.93953,0.55343 -1.94097,1.15523 c -1.06754,0.63539 -2.00257,1.15524 -2.07786,1.15524 -0.0753,0 -0.13689,-1.07299 -0.13689,-2.38442 z m 33.23479,1.30694 c -0.98026,-0.58568 -1.78522,-1.13226 -1.7888,-1.2146 -0.004,-0.0824 0.6521,-0.53047 1.45706,-0.99581 0.80496,-0.46535 1.6831,-0.99316 1.95142,-1.17291 l 0.48785,-0.32682 v 2.39381 c 0,1.3166 -0.0732,2.39098 -0.16262,2.38751 -0.0894,-0.003 -0.96465,-0.48549 -1.94491,-1.07118 z M 8.632112,43.257257 c -0.916883,-0.57039 -1.621942,-1.113 -1.566799,-1.2058 0.112541,-0.18938 3.211305,-1.99847 3.42317,-1.99847 0.07476,0 0.135926,0.96407 0.135926,2.14237 0,1.1783 -0.07318,2.1326 -0.162618,2.12066 -0.08944,-0.0119 -0.912796,-0.48837 -1.829679,-1.05876 z m 32.239252,0.56342 c -0.810297,-0.47614 -0.871385,-0.58334 -0.929509,-1.63125 -0.06145,-1.10782 -0.05049,-1.12895 0.889772,-1.7163 l 0.951986,-0.59467 1.007438,0.57621 c 0.981365,0.5613 1.007438,0.60417 1.007438,1.65635 0,1.03572 -0.03867,1.1037 -0.940552,1.65341 -0.517303,0.31531 -0.980765,0.57162 -1.029914,0.56958 -0.04915,-0.002 -0.479646,-0.23304 -0.956659,-0.51333 z m 32.198373,-1.63004 c 0,-2.50976 -0.172703,-2.43205 2.200879,-0.99026 1.731817,1.05196 1.787198,0.87678 -0.737317,2.33232 l -1.463562,0.84384 z m 33.716143,1.42105 c -0.59627,-0.38205 -1.3664,-0.87142 -1.7114,-1.08747 l -0.62728,-0.39283 1.70687,-1.0392 c 0.93877,-0.57156 1.78208,-1.0392 1.87401,-1.0392 0.0919,0 0.16716,0.96407 0.16716,2.14237 0,1.1783 -0.0732,2.1353 -0.16262,2.12667 -0.0894,-0.009 -0.65047,-0.32828 -1.24674,-0.71034 z m 31.60211,0.14733 c -0.8751,-0.5455 -0.92151,-0.62781 -0.92151,-1.63447 0,-1.00991 0.0446,-1.08808 0.94398,-1.65307 l 0.94398,-0.59302 1.01732,0.58186 1.01731,0.58187 -0.0641,1.13443 c -0.06,1.06217 -0.11933,1.1669 -0.93138,1.64406 -0.47701,0.28029 -0.91608,0.51033 -0.97571,0.5112 -0.0596,9e-4 -0.52309,-0.25692 -1.02991,-0.57286 z m 32.25257,-1.56838 c 0,-2.50976 -0.1727,-2.43205 2.20088,-0.99026 1.73182,1.05196 1.7872,0.87678 -0.73731,2.33232 l -1.46357,0.84384 z M 61.946053,39.538787 c -0.761275,-0.4525 -0.801639,-0.53499 -0.801639,-1.63823 0,-1.13439 0.02012,-1.17118 0.854763,-1.56263 0.826779,-0.38777 0.878244,-0.38667 1.571975,0.0335 0.640483,0.38791 0.723639,0.55379 0.777312,1.55057 0.05828,1.08233 0.0349,1.13102 -0.770337,1.60474 l -0.830436,0.48854 z m 32.155614,-1.52311 c 0,-1.11204 0.0376,-2.0219 0.0835,-2.0219 0.0459,0 0.82226,0.43795 1.72523,0.97323 l 1.64178,0.97322 -1.72524,1.04868 -1.72524,1.04868 z m 65.415213,1.52311 c -0.76127,-0.4525 -0.80164,-0.53499 -0.80164,-1.63823 0,-1.13439 0.0201,-1.17118 0.85477,-1.56263 0.82677,-0.38777 0.87824,-0.38667 1.57197,0.0335 0.64048,0.38791 0.72364,0.55379 0.77731,1.55057 0.0583,1.08233 0.0349,1.13102 -0.77033,1.60474 l -0.83044,0.48854 z m 32.15562,-1.52311 c 0,-1.11204 0.0376,-2.0219 0.0835,-2.0219 0.0459,0 0.82226,0.43795 1.72524,0.97323 l 1.64177,0.97322 -1.72524,1.04868 -1.72523,1.04868 z m -162.250664,0.85224 -1.47562,-0.91404 1.47562,-0.8934 c 2.171037,-1.31443 2.017682,-1.37722 2.017682,0.82602 0,1.41459 -0.0735,1.93481 -0.27103,1.91822 -0.149067,-0.0125 -0.93506,-0.43408 -1.746652,-0.9368 z m 97.570824,0 -1.47562,-0.91404 1.47562,-0.8934 c 2.17104,-1.31443 2.01769,-1.37722 2.01769,0.82602 0,1.41459 -0.0735,1.93481 -0.27103,1.91822 -0.14907,-0.0125 -0.93506,-0.43408 -1.74666,-0.9368 z M 17.562778,33.739277 v -1.830322 l 1.084411,0.633165 c 2.157303,1.259607 2.144634,1.195657 0.429592,2.168587 l -1.514003,0.85889 z m 33.011463,0.955 c -0.745333,-0.45485 -1.353993,-0.88123 -1.352577,-0.94749 0.0022,-0.0976 2.252516,-1.488636 2.870345,-1.774228 0.08944,-0.04135 0.162618,0.745127 0.162618,1.747718 0,1.00259 -0.07318,1.81797 -0.162618,1.81196 -0.08944,-0.006 -0.772435,-0.3831 -1.517768,-0.83796 z m 32.19876,0.43362 c -0.510286,-0.3203 -0.595934,-0.52189 -0.596266,-1.40344 -4.33e-4,-0.959468 0.05249,-1.055639 0.777852,-1.415401 0.751358,-0.372653 0.803782,-0.369566 1.517769,0.08938 0.653045,0.419777 0.739531,0.587005 0.739531,1.430011 0,0.87073 -0.0674,0.98805 -0.766244,1.33468 -0.901938,0.44734 -0.903914,0.4473 -1.672642,-0.0352 z m 32.360609,-1.40538 v -1.820645 l 1.24673,0.728852 c 1.9688,1.150973 1.95449,1.069353 0.35761,2.039903 -0.78959,0.4799 -1.47357,0.87254 -1.51998,0.87254 -0.0464,0 -0.0844,-0.8193 -0.0844,-1.82065 z m 33.01146,0.97176 c -0.74533,-0.45485 -1.35399,-0.88123 -1.35258,-0.94749 0.002,-0.0976 2.25252,-1.488636 2.87035,-1.774228 0.0894,-0.04135 0.16262,0.745127 0.16262,1.747718 0,1.00259 -0.0732,1.81797 -0.16262,1.81196 -0.0894,-0.006 -0.77244,-0.3831 -1.51777,-0.83796 z m 32.19837,0.45238 c -0.50996,-0.32884 -0.59626,-0.53409 -0.59626,-1.41805 0,-0.964757 0.052,-1.059352 0.781,-1.420922 0.74367,-0.36884 0.81363,-0.367604 1.46356,0.02586 0.58321,0.353072 0.69191,0.560685 0.74681,1.426402 0.0612,0.9648 0.0272,1.03157 -0.71203,1.3982 -0.94195,0.46718 -0.94077,0.46719 -1.68308,-0.0115 z M 6.234109,30.843173 C 5.741008,30.533658 5.638164,30.31104 5.637843,29.552488 c -3.47e-4,-0.817131 0.07814,-0.955604 0.722837,-1.275357 0.67982,-0.337174 0.764403,-0.331584 1.409356,0.09313 0.551637,0.363265 0.686132,0.602858 0.686132,1.222294 0,0.627232 -0.131,0.853533 -0.704678,1.217326 -0.81749,0.518405 -0.746988,0.516858 -1.517381,0.03329 z m 32.360603,-1.28753 V 27.87993 l 1.029914,0.645065 c 0.566453,0.354787 1.194926,0.735094 1.396607,0.845128 0.298151,0.162669 0.105637,0.355319 -1.029914,1.03065 l -1.396607,0.830585 z m 65.210228,1.28753 c -0.4931,-0.309515 -0.59595,-0.532133 -0.59627,-1.290685 -4.3e-4,-0.817131 0.0781,-0.955604 0.72284,-1.275357 0.67982,-0.337174 0.7644,-0.331584 1.40936,0.09313 0.55163,0.363265 0.68613,0.602858 0.68613,1.222294 0,0.627232 -0.131,0.853533 -0.70468,1.217326 -0.81749,0.518405 -0.74699,0.516858 -1.51738,0.03329 z m 32.3606,-1.244142 V 27.90284 l 1.38806,0.825504 1.38806,0.825504 -0.68338,0.425013 c -0.37586,0.233759 -1.00049,0.625567 -1.38806,0.870687 l -0.70468,0.445675 z m 33.00035,0.835199 c -1.52429,-0.902002 -1.55419,-0.770037 0.44476,-1.962891 l 1.02991,-0.614592 v 1.700846 c 0,0.935464 -0.0244,1.697306 -0.0542,1.692983 -0.0298,-0.0043 -0.66902,-0.37168 -1.42047,-0.816346 z m -97.796986,-0.124307 -1.158775,-0.697632 1.158775,-0.750415 c 0.637324,-0.41273 1.231951,-0.752709 1.321391,-0.75551 0.08944,-0.0028 0.162618,0.654528 0.162618,1.460733 0,0.806204 -0.07318,1.460119 -0.162618,1.453141 -0.08944,-0.007 -0.684067,-0.32662 -1.321391,-0.710317 z M 27.157243,26.472966 c -0.376532,-0.188873 -0.487854,-0.43644 -0.487854,-1.084937 0,-0.724044 0.09145,-0.879625 0.661357,-1.125146 0.986894,-0.425164 1.723707,0.04039 1.723707,1.089116 0,1.195183 -0.803177,1.669739 -1.89721,1.120967 z M 59.626645,25.39513 c 0,-0.744189 0.0558,-1.353071 0.124008,-1.353071 0.263843,0 2.044233,1.180307 2.044233,1.35522 0,0.156271 -1.845704,1.350922 -2.087138,1.350922 -0.04461,0 -0.0811,-0.608882 -0.0811,-1.353071 z m 32.903052,0.74038 c -0.56645,-0.324892 -1.02992,-0.658999 -1.02992,-0.742461 0,-0.165855 2.17277,-1.444963 2.23709,-1.316973 0.0218,0.04331 -0.009,0.657306 -0.0688,1.364443 l -0.10841,1.285704 z m 32.198373,0.337456 c -0.37653,-0.188873 -0.48785,-0.43644 -0.48785,-1.084937 0,-0.724044 0.0914,-0.879625 0.66135,-1.125146 0.9869,-0.425164 1.72371,0.04039 1.72371,1.089116 0,1.195183 -0.80318,1.669739 -1.89721,1.120967 z m 32.4694,-1.077836 c 0,-0.744189 0.0332,-1.353071 0.0738,-1.353071 0.0406,0 0.58982,0.293511 1.22055,0.652246 l 1.14678,0.652245 -0.62428,0.399499 c -1.30816,0.837132 -1.58822,1.002152 -1.70078,1.002152 -0.0638,0 -0.11604,-0.608882 -0.11604,-1.353071 z m 32.90305,0.745883 c -0.56645,-0.327917 -1.02991,-0.664502 -1.02991,-0.747964 0,-0.13162 1.98348,-1.35099 2.19758,-1.35099 0.0435,0 0.0791,0.608882 0.0791,1.353071 0,0.744189 -0.0488,1.350602 -0.10841,1.347584 -0.0596,-0.003 -0.57187,-0.273782 -1.13833,-0.601701 z M 15.974308,21.909027 c -0.456273,-0.281565 -0.809298,-0.60181 -0.7845,-0.711657 0.0248,-0.109845 0.422505,-0.433804 0.883793,-0.719904 l 0.838705,-0.520183 v 1.253097 c 0,0.689202 -0.02439,1.24353 -0.05421,1.23184 -0.02981,-0.01168 -0.42752,-0.251628 -0.883792,-0.533193 z m 32.214868,0.279215 C 47.8327,22.009429 47.701322,21.747626 47.701322,21.21606 c 0,-0.589612 0.118802,-0.778654 0.626917,-0.997553 0.87323,-0.376197 1.541324,0.0671 1.541324,1.022702 0,0.530039 -0.133401,0.762066 -0.552262,0.960557 -0.303744,0.143942 -0.572064,0.254842 -0.596266,0.246448 -0.0242,-0.0084 -0.263539,-0.125382 -0.531859,-0.259972 z m 32.469403,-0.96508 v -1.265879 l 0.838705,0.520183 c 0.461287,0.2861 0.838706,0.621664 0.838706,0.745696 0,0.124031 -0.377419,0.459595 -0.838706,0.745695 l -0.838705,0.520184 z m 32.886561,0.685865 c -0.45628,-0.281565 -0.8093,-0.60181 -0.7845,-0.711657 0.0248,-0.109845 0.4225,-0.433804 0.88379,-0.719904 l 0.8387,-0.520183 v 1.253097 c 0,0.689202 -0.0244,1.24353 -0.0542,1.23184 -0.0298,-0.01168 -0.42752,-0.251628 -0.88379,-0.533193 z m 32.2089,0.203395 c -0.7298,-0.531655 -0.65177,-1.550648 0.14503,-1.893915 0.87323,-0.376197 1.54132,0.0671 1.54132,1.022702 0,0.530039 -0.1334,0.762066 -0.55226,0.960557 -0.67545,0.320089 -0.55952,0.329222 -1.13409,-0.08934 z m 32.47537,-0.899377 V 19.93705 l 0.86336,0.5303 c 0.47485,0.291666 0.85227,0.63178 0.83871,0.755812 -0.0136,0.124031 -0.40208,0.459595 -0.86337,0.745695 l -0.8387,0.520184 z M 69.211053,17.824714 c -0.656124,-0.477982 -0.620418,-1.310075 0.07027,-1.637381 1.171936,-0.555364 1.929647,0.940919 0.851236,1.680967 -0.377331,0.258939 -0.515176,0.252419 -0.921503,-0.04359 z m 97.570827,0 c -0.65612,-0.477982 -0.62042,-1.310075 0.0703,-1.637381 1.17193,-0.555364 1.92964,0.940919 0.85123,1.680967 -0.37733,0.258939 -0.51517,0.252419 -0.9215,-0.04359 z M 4.119687,16.946043 v -1.007198 l 0.81309,0.484161 c 0.4472,0.266289 0.842615,0.504992 0.878701,0.530451 0.08548,0.0603 -1.37551,0.999783 -1.554766,0.999783 -0.07536,0 -0.137025,-0.453239 -0.137025,-1.007197 z m 32.686615,0.591934 c -0.753685,-0.473081 -0.747651,-0.619501 0.04305,-1.044772 0.871511,-0.468733 0.878064,-0.464569 0.878064,0.557988 0,0.996615 -0.05911,1.027855 -0.921114,0.486784 z m 64.884218,-0.591934 v -1.007198 l 0.81309,0.484161 c 0.44719,0.266289 0.84261,0.504992 0.8787,0.530451 0.0855,0.0603 -1.37551,0.999783 -1.55477,0.999783 -0.0754,0 -0.13702,-0.453239 -0.13702,-1.007197 z m 32.68661,0.591934 c -0.32773,-0.205715 -0.59485,-0.424768 -0.59358,-0.486784 0.001,-0.06202 0.34258,-0.342019 0.75849,-0.62223 l 0.7562,-0.509475 v 1.016876 c 0,1.115583 -0.0501,1.148323 -0.92111,0.601613 z M 25.15162,12.891974 c 0,-0.903754 0.115505,-0.959901 0.817941,-0.397605 l 0.492704,0.394407 -0.655322,0.40262 -0.655323,0.402619 z m 32.644143,0.39911 -0.638347,-0.359373 0.499751,-0.420889 c 0.712152,-0.599772 0.885358,-0.5277 0.885358,0.368403 0,0.43411 -0.02439,0.785228 -0.05421,0.780262 -0.02981,-0.005 -0.341463,-0.170747 -0.692556,-0.368403 z m 32.356014,0.09554 c -0.51715,-0.420392 -0.12108,-1.352862 0.53357,-1.256182 0.56535,0.08349 0.81035,1.033562 0.34555,1.339982 -0.38654,0.254828 -0.47265,0.246619 -0.87912,-0.0838 z m 32.570673,-0.50161 c 0,-0.904809 0.11417,-0.953801 0.85061,-0.365016 l 0.52538,0.420037 -0.688,0.370031 -0.68799,0.37003 z m 32.64997,0.409242 -0.63253,-0.356201 0.52411,-0.419047 c 0.73438,-0.587159 0.84935,-0.538398 0.84935,0.360215 0,0.43411 -0.0244,0.785228 -0.0542,0.780262 -0.0298,-0.005 -0.33884,-0.169319 -0.68673,-0.365229 z m 32.33412,0.23343 c -0.3046,-0.316806 -0.14499,-1.20122 0.25718,-1.425082 0.51946,-0.289143 0.95425,0.186874 0.8525,0.93334 -0.0699,0.512573 -0.78497,0.829464 -1.10968,0.491742 z M 13.673155,9.1667715 c -0.414159,-0.26622 -0.181113,-1.023294 0.314996,-1.023294 0.273805,0 0.454599,0.174365 0.496349,0.478699 0.07162,0.5221 -0.377428,0.823515 -0.811345,0.544595 z m 65.072949,-0.195585 -0.503121,-0.402578 0.557327,-0.264109 c 0.530644,-0.251466 0.557324,-0.231954 0.557324,0.407592 0,0.786032 0.03073,0.773011 -0.61153,0.259095 z m 32.497876,0.195585 c -0.41416,-0.26622 -0.18111,-1.023294 0.315,-1.023294 0.2738,0 0.4546,0.174365 0.49635,0.478699 0.0716,0.5221 -0.37743,0.823515 -0.81135,0.544595 z m 65.07295,-0.195585 -0.50312,-0.402578 0.55733,-0.264109 c 0.53064,-0.251466 0.55732,-0.231954 0.55732,0.407592 0,0.786032 0.0307,0.773011 -0.61153,0.259095 z M 46.183554,8.5993355 c 0,-0.519362 0.03972,-0.540123 0.560859,-0.293161 0.522602,0.247654 0.534564,0.28578 0.175382,0.558945 -0.560997,0.426648 -0.736241,0.363385 -0.736241,-0.265784 z m 97.570826,0 c 0,-0.519362 0.0397,-0.540123 0.56086,-0.293161 0.5226,0.247654 0.53457,0.28578 0.17538,0.558945 -0.56099,0.426648 -0.73624,0.363385 -0.73624,-0.265784 z M 2.168271,4.6408175 c -0.289099,-0.194031 -0.289099,-0.242539 0,-0.43657 0.33349,-0.223825 0.540788,0.0038 0.39751,0.43657 -0.04659,0.140705 -0.187865,0.140705 -0.39751,0 z m 32.348061,-0.161907 c 0.04019,-0.217055 0.216756,-0.394646 0.392371,-0.394646 0.175614,0 0.352181,0.177591 0.392371,0.394646 0.05127,0.276894 -0.0658,0.394645 -0.392371,0.394645 -0.32657,0 -0.443642,-0.117751 -0.392371,-0.394645 z m 32.699155,-0.09107 c 0,-0.393594 0.05377,-0.425143 0.325236,-0.190821 0.17888,0.154405 0.325236,0.308194 0.325236,0.341753 0,0.03356 -0.146356,0.119429 -0.325236,0.190822 -0.225197,0.08988 -0.325236,-0.01524 -0.325236,-0.341754 z m 32.52361,0.252976 c -0.2891,-0.194031 -0.2891,-0.242539 0,-0.43657 0.20964,-0.140706 0.350923,-0.140706 0.397513,0 0.14328,0.432728 -0.064,0.660395 -0.397513,0.43657 z m 32.348063,-0.161907 c 0.0402,-0.217055 0.21676,-0.394646 0.39237,-0.394646 0.17562,0 0.35218,0.177591 0.39237,0.394646 0.0513,0.276894 -0.0658,0.394645 -0.39237,0.394645 -0.32657,0 -0.44364,-0.117751 -0.39237,-0.394645 z m 32.69916,-0.09107 c 0,-0.393594 0.0538,-0.425143 0.32523,-0.190821 0.17888,0.154405 0.32524,0.308194 0.32524,0.341753 0,0.03356 -0.14636,0.119429 -0.32524,0.190822 -0.2252,0.08988 -0.32523,-0.01524 -0.32523,-0.341754 z M 23.101052,0.37890248 c -0.06861,-0.115462 -0.02558,-0.273671 0.09562,-0.351577 0.121198,-0.07791 0.22036,0.01656 0.22036,0.209929 0,0.396118 -0.130107,0.454442 -0.315976,0.141648 z m 32.43846,-0.0043 c 0.09317,-0.290715 0.390567,-0.342937 0.417386,-0.07329 0.0089,0.08992 -0.100823,0.204089 -0.243927,0.253701 -0.143104,0.04961 -0.22116,-0.03157 -0.173459,-0.180409 z m 32.491085,-0.124032 c 0,-0.19545 0.12911,-0.272583 0.32524,-0.194307 0.17888,0.07139 0.32523,0.158832 0.32523,0.194307 0,0.03548 -0.14635,0.122914 -0.32523,0.194307 -0.19613,0.07828 -0.32524,0.0011 -0.32524,-0.194307 z m 32.641283,0.128339 c -0.0686,-0.115462 -0.0256,-0.273671 0.0956,-0.351577 0.12119,-0.07791 0.22036,0.01656 0.22036,0.209929 0,0.396118 -0.13011,0.454442 -0.31598,0.141648 z m 32.43846,-0.0043 c 0.0477,-0.148838 0.15747,-0.263003 0.24393,-0.253701 0.25925,0.02789 0.20905,0.337205 -0.0705,0.43411 -0.1431,0.04961 -0.22116,-0.03157 -0.17346,-0.180409 z m 32.65009,-0.03926 c 0.14708,-0.154119 0.32203,-0.223408 0.38879,-0.153976 0.0668,0.06943 -0.0536,0.19553 -0.26741,0.280216 -0.30902,0.122382 -0.33393,0.09648 -0.12138,-0.12624 z"
       id="path302" /></g></svg>
