<?xml version="1.0" encoding="UTF-8"?>
<!-- Generator: Adobe Illustrator 16.0.0, SVG Export Plug-In . SVG Version: 6.00 Build 0)  -->
<!DOCTYPE svg PUBLIC "-//W3C//DTD SVG 1.1//EN" "http://www.w3.org/Graphics/SVG/1.1/DTD/svg11.dtd">
<svg version="1.1" id="Layer_1" xmlns="http://www.w3.org/2000/svg" xmlns:xlink="http://www.w3.org/1999/xlink" x="0px" y="0px" width="157.203px" height="26px" viewBox="0 0 157.203 26" enable-background="new 0 0 157.203 26" xml:space="preserve">
<g>
	<g enable-background="new    ">
		<path fill="#00263E" d="M49.692,7.128V2.942h0.812v4.135c0,1.562,0.812,2.427,2.201,2.427c1.327,0,2.17-0.802,2.17-2.376V2.942    h0.812v4.124c0,2.108-1.203,3.188-3.003,3.188C50.906,10.255,49.692,9.165,49.692,7.128z"/>
		<path fill="#00263E" d="M57.479,4.824h0.792V5.75c0.36-0.576,0.905-1.038,1.82-1.038c1.275,0,2.037,0.863,2.037,2.128v3.302    h-0.792V7.036c0-0.987-0.524-1.604-1.471-1.604c-0.916,0-1.594,0.668-1.594,1.666v3.044h-0.792V4.824z"/>
		<path fill="#00263E" d="M63.835,2.788h0.905v0.874h-0.905V2.788z M63.887,4.824h0.792v5.317h-0.792V4.824z"/>
		<path fill="#00263E" d="M65.995,4.824h0.874l1.79,4.412l1.8-4.412h0.854l-2.314,5.358h-0.699L65.995,4.824z"/>
		<path fill="#00263E" d="M73.03,7.807c0.113,1.121,0.936,1.77,1.872,1.77c0.74,0,1.234-0.299,1.676-0.751l0.494,0.442    c-0.535,0.606-1.172,0.997-2.19,0.997c-1.45,0-2.654-1.121-2.654-2.776c0-1.543,1.07-2.776,2.551-2.776    c1.573,0,2.479,1.254,2.479,2.817c0,0.072,0,0.154-0.01,0.277H73.03z M76.455,7.169c-0.082-0.956-0.658-1.789-1.697-1.789    c-0.905,0-1.615,0.761-1.728,1.789H76.455z"/>
		<path fill="#00263E" d="M78.646,4.824h0.792v1.389c0.391-0.885,1.162-1.512,2.17-1.48v0.854h-0.062    c-1.162,0-2.107,0.833-2.107,2.438v2.118h-0.792V4.824z"/>
		<path fill="#00263E" d="M82.371,9.463l0.4-0.565c0.576,0.442,1.215,0.679,1.842,0.679c0.647,0,1.1-0.319,1.1-0.844V8.712    c0-0.524-0.627-0.74-1.326-0.936c-0.822-0.247-1.759-0.515-1.759-1.502V6.254c0-0.915,0.761-1.521,1.81-1.521    c0.658,0,1.369,0.226,1.914,0.586l-0.36,0.597C85.498,5.596,84.941,5.4,84.417,5.4c-0.628,0-1.029,0.329-1.029,0.771v0.021    c0,0.504,0.658,0.699,1.368,0.915c0.823,0.247,1.708,0.565,1.708,1.522V8.65c0,1.008-0.834,1.594-1.893,1.594    C83.8,10.244,82.977,9.946,82.371,9.463z"/>
		<path fill="#00263E" d="M87.955,2.788h0.906v0.874h-0.906V2.788z M88.007,4.824h0.791v5.317h-0.791V4.824z"/>
		<path fill="#00263E" d="M90.332,7.498V7.478c0-1.728,1.265-2.766,2.54-2.766c0.987,0,1.625,0.524,2.036,1.131V2.634H95.7v7.508    h-0.792V9.072c-0.441,0.638-1.049,1.183-2.036,1.183C91.596,10.255,90.332,9.247,90.332,7.498z M94.939,7.488V7.468    c0-1.224-0.936-2.047-1.924-2.047c-1.027,0-1.871,0.761-1.871,2.047v0.021c0,1.265,0.854,2.057,1.871,2.057    C94.003,9.545,94.939,8.712,94.939,7.488z"/>
		<path fill="#00263E" d="M97.068,8.599V8.578c0-1.142,0.926-1.738,2.273-1.738c0.689,0,1.142,0.093,1.625,0.227V6.902    c0-0.946-0.576-1.44-1.574-1.44c-0.627,0-1.121,0.145-1.614,0.381l-0.236-0.648c0.586-0.277,1.151-0.452,1.934-0.452    c0.751,0,1.327,0.195,1.718,0.586c0.369,0.37,0.555,0.896,0.555,1.563v3.25h-0.781V9.35c-0.371,0.483-0.977,0.905-1.913,0.905    C98.056,10.255,97.068,9.699,97.068,8.599z M100.976,8.188V7.694c-0.4-0.113-0.895-0.227-1.553-0.227    c-0.987,0-1.553,0.422-1.553,1.069v0.021c0,0.669,0.627,1.06,1.337,1.06C100.185,9.617,100.976,9.041,100.976,8.188z"/>
		<path fill="#00263E" d="M103.117,7.498V7.478c0-1.728,1.265-2.766,2.54-2.766c0.987,0,1.625,0.524,2.036,1.131V2.634h0.792v7.508    h-0.792V9.072c-0.441,0.638-1.049,1.183-2.036,1.183C104.381,10.255,103.117,9.247,103.117,7.498z M107.724,7.488V7.468    c0-1.224-0.936-2.047-1.924-2.047c-1.027,0-1.871,0.761-1.871,2.047v0.021c0,1.265,0.854,2.057,1.871,2.057    C106.789,9.545,107.724,8.712,107.724,7.488z"/>
		<path fill="#00263E" d="M113.474,2.942h0.762l4.535,5.77v-5.77h0.791v7.199h-0.647l-4.648-5.903v5.903h-0.792V2.942z"/>
		<path fill="#00263E" d="M121.066,8.599V8.578c0-1.142,0.926-1.738,2.272-1.738c0.688,0,1.142,0.093,1.625,0.227V6.902    c0-0.946-0.576-1.44-1.573-1.44c-0.628,0-1.121,0.145-1.615,0.381l-0.236-0.648c0.586-0.277,1.152-0.452,1.934-0.452    c0.75,0,1.326,0.195,1.717,0.586c0.371,0.37,0.556,0.896,0.556,1.563v3.25h-0.781V9.35c-0.37,0.483-0.978,0.905-1.913,0.905    C122.052,10.255,121.066,9.699,121.066,8.599z M124.974,8.188V7.694c-0.402-0.113-0.896-0.227-1.554-0.227    c-0.987,0-1.553,0.422-1.553,1.069v0.021c0,0.669,0.628,1.06,1.337,1.06C124.181,9.617,124.974,9.041,124.974,8.188z"/>
		<path fill="#00263E" d="M127.093,7.509V7.488c0-1.512,1.162-2.776,2.725-2.776c1.008,0,1.625,0.411,2.129,0.945l-0.523,0.556    c-0.422-0.442-0.885-0.802-1.615-0.802c-1.08,0-1.902,0.904-1.902,2.057v0.021c0,1.151,0.843,2.067,1.953,2.067    c0.689,0,1.203-0.34,1.625-0.792l0.504,0.473c-0.534,0.607-1.172,1.028-2.17,1.028C128.255,10.265,127.093,9,127.093,7.509z"/>
		<path fill="#00263E" d="M133.316,2.788h0.904v0.874h-0.904V2.788z M133.367,4.824h0.793v5.317h-0.793V4.824z"/>
		<path fill="#00263E" d="M135.671,7.509V7.488c0-1.512,1.162-2.776,2.776-2.776c1.604,0,2.767,1.254,2.767,2.756v0.021    c0,1.512-1.183,2.776-2.787,2.776C136.833,10.265,135.671,9.011,135.671,7.509z M140.402,7.509V7.488    c0-1.142-0.854-2.077-1.975-2.077c-1.152,0-1.943,0.936-1.943,2.057v0.021c0,1.142,0.843,2.067,1.964,2.067    C139.599,9.556,140.402,8.619,140.402,7.509z"/>
		<path fill="#00263E" d="M142.645,4.824h0.792V5.75c0.359-0.576,0.905-1.038,1.82-1.038c1.275,0,2.037,0.863,2.037,2.128v3.302    h-0.793V7.036c0-0.987-0.523-1.604-1.471-1.604c-0.915,0-1.594,0.668-1.594,1.666v3.044h-0.792V4.824z"/>
		<path fill="#00263E" d="M148.58,8.599V8.578c0-1.142,0.926-1.738,2.273-1.738c0.689,0,1.142,0.093,1.625,0.227V6.902    c0-0.946-0.576-1.44-1.574-1.44c-0.627,0-1.121,0.145-1.614,0.381l-0.236-0.648c0.586-0.277,1.151-0.452,1.934-0.452    c0.751,0,1.327,0.195,1.718,0.586c0.369,0.37,0.555,0.896,0.555,1.563v3.25h-0.781V9.35c-0.371,0.483-0.977,0.905-1.913,0.905    C149.568,10.255,148.58,9.699,148.58,8.599z M152.488,8.188V7.694c-0.4-0.113-0.895-0.227-1.553-0.227    c-0.987,0-1.553,0.422-1.553,1.069v0.021c0,0.669,0.627,1.06,1.337,1.06C151.697,9.617,152.488,9.041,152.488,8.188z"/>
		<path fill="#00263E" d="M155.009,2.634h0.791v7.508h-0.791V2.634z"/>
	</g>
	<g enable-background="new    ">
		<path fill="#00263E" d="M49.363,20.843v-0.021c0-1.728,1.265-2.766,2.54-2.766c0.987,0,1.625,0.524,2.036,1.131v-3.209h0.792    v7.508h-0.792v-1.069c-0.442,0.638-1.049,1.183-2.036,1.183C50.628,23.6,49.363,22.592,49.363,20.843z M53.971,20.833v-0.021    c0-1.224-0.936-2.047-1.923-2.047c-1.028,0-1.872,0.761-1.872,2.047v0.021c0,1.265,0.854,2.057,1.872,2.057    C53.035,22.89,53.971,22.057,53.971,20.833z"/>
		<path fill="#00263E" d="M56.974,21.151c0.113,1.121,0.936,1.77,1.872,1.77c0.74,0,1.234-0.299,1.676-0.751l0.494,0.442    c-0.535,0.606-1.172,0.997-2.191,0.997c-1.45,0-2.653-1.121-2.653-2.776c0-1.543,1.07-2.776,2.551-2.776    c1.573,0,2.479,1.254,2.479,2.817c0,0.072,0,0.154-0.01,0.277H56.974z M60.399,20.514c-0.082-0.956-0.658-1.789-1.697-1.789    c-0.905,0-1.615,0.761-1.728,1.789H60.399z"/>
	</g>
	<g enable-background="new    ">
		<path fill="#00263E" d="M65.656,16.287h3.291c0.916,0,1.615,0.247,2.098,0.73c0.411,0.411,0.617,0.956,0.617,1.646v0.021    c0,1.162-0.627,1.893-1.543,2.231l1.759,2.571h-1.851l-1.543-2.304h-0.021H67.24v2.304h-1.584V16.287z M68.844,19.784    c0.781,0,1.213-0.401,1.213-1.019v-0.021c0-0.688-0.463-1.028-1.245-1.028H67.24v2.067H68.844z"/>
		<path fill="#00263E" d="M73,17.974h1.563v5.513H73V17.974z M74.265,15.547l1.348,0.586l-1.316,1.234h-1.193L74.265,15.547z"/>
		<path fill="#00263E" d="M75.767,20.761V20.74c0-1.584,1.275-2.869,2.993-2.869c1.697,0,2.972,1.255,2.972,2.849v0.021    c0,1.584-1.275,2.869-2.993,2.869C77.042,23.609,75.767,22.355,75.767,20.761z M80.189,20.761V20.74    c0-0.812-0.586-1.521-1.45-1.521c-0.895,0-1.43,0.679-1.43,1.501v0.021c0,0.812,0.586,1.522,1.45,1.522    C79.654,22.263,80.189,21.584,80.189,20.761z"/>
		<path fill="#00263E" d="M86.115,16.287h1.46l3.374,4.433v-4.433h1.562v7.199h-1.348l-3.486-4.576v4.576h-1.562V16.287z"/>
		<path fill="#00263E" d="M93.808,20.761V20.74c0-1.573,1.121-2.869,2.725-2.869c1.842,0,2.686,1.43,2.686,2.993    c0,0.123-0.012,0.257-0.021,0.411h-3.836c0.154,0.709,0.648,1.08,1.348,1.08c0.523,0,0.895-0.165,1.336-0.566l0.896,0.792    c-0.524,0.648-1.255,1.028-2.253,1.028C95.032,23.609,93.808,22.447,93.808,20.761z M97.695,20.298    c-0.092-0.699-0.504-1.172-1.162-1.172s-1.068,0.463-1.192,1.172H97.695z"/>
		<path fill="#00263E" d="M100.412,24.576l0.535-1.172c0.576,0.318,1.121,0.504,1.861,0.504c1.07,0,1.574-0.515,1.574-1.502v-0.268    c-0.463,0.566-0.967,0.896-1.801,0.896c-1.285,0-2.447-0.926-2.447-2.571v-0.021c0-1.646,1.183-2.571,2.447-2.571    c0.854,0,1.357,0.36,1.779,0.822v-0.72h1.563v4.269c0,0.977-0.237,1.707-0.699,2.17c-0.524,0.524-1.306,0.74-2.376,0.74    C101.945,25.152,101.111,24.946,100.412,24.576z M104.382,20.463v-0.021c0-0.751-0.576-1.275-1.348-1.275    c-0.762,0-1.338,0.524-1.338,1.275v0.021c0,0.771,0.566,1.275,1.338,1.275S104.382,21.214,104.382,20.463z"/>
		<path fill="#00263E" d="M107.324,17.974h1.563v1.111c0.319-0.751,0.823-1.255,1.759-1.214v1.635h-0.082    c-1.039,0-1.677,0.617-1.677,1.944v2.036h-1.563V17.974z"/>
		<path fill="#00263E" d="M111.356,20.761V20.74c0-1.584,1.274-2.869,2.993-2.869c1.696,0,2.972,1.255,2.972,2.849v0.021    c0,1.584-1.275,2.869-2.993,2.869C112.63,23.609,111.356,22.355,111.356,20.761z M115.779,20.761V20.74    c0-0.812-0.587-1.521-1.451-1.521c-0.895,0-1.43,0.679-1.43,1.501v0.021c0,0.812,0.587,1.522,1.451,1.522    C115.244,22.263,115.779,21.584,115.779,20.761z"/>
	</g>
	<g>
		<path fill="#ED1748" d="M5.424,17.298c-0.192-0.332-0.236-0.639,0.007-1.002c0.128-0.188,0.03-0.522,0.076-0.782    c0.062-0.363,0.167-0.722,0.259-1.08c0.014-0.048,0.061-0.086,0.061-0.132c0.027-0.506,0.373-0.925,0.344-1.461    c-0.021-0.389,0.08-0.798,0.192-1.178c0.319-1.073,0.121-2.175,0.233-3.259C6.631,8.062,6.777,7.731,6.803,7.39    c0.062-0.907,0.129-1.812,0.112-2.721C6.906,4.038,6.41,3.729,5.79,3.827C5.017,3.951,4.33,4.259,3.618,4.583    c-0.73,0.335-1.375,0.782-2.076,1.145C1.037,5.992,0.337,5.878,0,5.499c0.247-0.224,0.479-0.474,0.745-0.671    c0.996-0.732,1.988-1.47,3.013-2.163C4.69,2.034,5.646,1.437,6.616,0.867c0.257-0.146,0.592-0.194,0.896-0.206    c0.479-0.021,0.963,0.03,1.444,0.06c0.08,0.004,0.209,0.03,0.228,0.079C9.398,1.388,9.992,1.78,9.98,2.492    C9.974,2.994,9.94,3.448,9.749,3.927C9.613,4.255,9.693,4.667,9.66,5.038C9.613,5.532,9.54,6.022,9.497,6.515    c-0.04,0.467,0.007,0.954-0.098,1.408C9.237,8.62,8.974,9.293,8.77,9.983c-0.025,0.09,0.076,0.213,0.068,0.317    c-0.017,0.289-0.062,0.58-0.086,0.871c-0.015,0.211-0.004,0.422-0.004,0.695c-0.412,0.119-0.263,0.555-0.32,0.903    c-0.064,0.368-0.115,0.742-0.171,1.114c-0.123,0.832-0.193,1.678-0.383,2.502c-0.307,1.367-0.17,2.732,0.03,4.078    c0.143,0.955,0.677,1.752,1.627,2.131c0.242,0.098,0.56,0.014,0.845,0.01c0.203-0.002,0.408,0,0.612-0.016    c0.076-0.006,0.158-0.043,0.224-0.086c1.096-0.748,1.94-1.703,2.508-2.904c0.077-0.164,0.158-0.334,0.264-0.479    c0.769-1.023,1.144-2.232,1.653-3.377c0.396-0.893,0.949-1.715,1.404-2.579c0.155-0.295,0.305-0.622,0.334-0.946    c0.082-0.912,0.588-1.648,0.979-2.414c0.64-1.244,0.784-2.621,1.219-3.917c-0.234-0.754,0.335-1.316,0.474-1.983    c0.144-0.672,0.302-1.343,0.44-2.017c0.052-0.244,0.193-0.297,0.427-0.339c0.552-0.105,1.098-0.277,1.646-0.406    c0.434-0.102,0.872-0.183,1.409-0.294c-0.053,0.673-0.097,1.284-0.145,1.897c-0.011,0.12-0.042,0.236-0.043,0.355    c-0.009,0.581-0.002,1.158-0.016,1.734c-0.021,1.031-0.272,2.065,0.115,3.081c0.05,0.133,0.028,0.29,0.021,0.432    c-0.033,0.793-0.102,1.589-0.11,2.384c-0.01,0.667,0.051,1.332,0.081,1.999c0,0.035,0.015,0.071,0.012,0.107    c-0.024,0.402-0.204,0.764,0.015,1.211c0.199,0.4,0.169,0.918,0.229,1.387c0.071,0.564,0.07,1.146,0.21,1.693    c0.182,0.701,0.074,1.465,0.558,2.104c0.829,1.102,1.107,2.488,1.86,3.629c0.158,0.24,0.386,0.455,0.627,0.619    c0.604,0.408,1.262,0.576,1.993,0.33c0.254-0.086,0.55-0.186,0.752,0.186c-0.253,0.34-0.477,0.707-0.969,0.826    c-0.598,0.145-1.172,0.408-1.774,0.5c-0.406,0.062-0.864-0.021-1.268-0.148c-0.509-0.154-0.967-0.393-1.355-0.838    c-0.35-0.396-0.943-0.572-1.417-0.861c-0.139-0.09-0.273-0.221-0.336-0.359c-0.375-0.906-0.952-1.652-1.606-2.365    c-0.13-0.143-0.187-0.348-0.273-0.527c-0.019-0.029-0.015-0.068-0.025-0.102c-0.414-0.918-0.628-1.906-0.976-2.852    c-0.12-0.324,0.019-0.744,0.038-1.117c0.005-0.078,0.037-0.16,0.022-0.234c-0.165-1.195-0.337-2.389-0.505-3.584    c-0.007-0.045-0.012-0.09-0.012-0.09c-0.507,0.763-1.027,1.542-1.534,2.33c-0.062,0.101-0.062,0.229-0.09,0.347    c-0.021,0.078-0.039,0.211-0.087,0.224c-0.368,0.099-0.298,0.381-0.303,0.642c-0.002,0.102-0.021,0.221-0.071,0.309    c-0.26,0.478-0.543,0.943-0.794,1.421c-0.193,0.362-0.391,0.729-0.527,1.112c-0.355,1.002-0.977,1.851-1.606,2.672    c-0.649,0.843-1.417,1.597-2.133,2.386c-0.018,0.019-0.031,0.039-0.053,0.051c-1.032,0.547-1.906,1.438-3.188,1.431    c-0.131,0-0.266,0.032-0.388,0.078c-0.257,0.103-0.459,0.051-0.66-0.136c-0.074-0.065-0.222-0.06-0.335-0.076    c-0.082-0.014-0.171-0.002-0.247-0.03c-0.43-0.16-0.87-0.304-1.281-0.506c-0.411-0.201-0.735-0.509-0.829-0.992    c-0.021-0.104-0.041-0.248-0.114-0.297c-0.569-0.394-0.476-1.033-0.598-1.584c-0.06-0.271-0.045-0.562-0.129-0.826    c-0.188-0.592-0.134-1.164,0.054-1.744c0.016-0.03,0.015-0.079,0.035-0.1c0.361-0.302,0.188-0.642,0.104-0.99    c-0.021-0.092,0.025-0.229,0.094-0.304C5.102,17.527,5.253,17.438,5.424,17.298z"/>
		<path fill="#ED1748" d="M34.384,17.236c-1.921,0-3.448-1.508-3.442-3.391c0.005-1.913,1.536-3.415,3.476-3.41    c1.896,0.003,3.445,1.529,3.45,3.405C37.873,15.734,36.332,17.236,34.384,17.236z"/>
	</g>
</g>
</svg>