<?xml version="1.0" encoding="utf-8"?>
<!-- Generator: Adobe Illustrator 16.0.0, SVG Export Plug-In . SVG Version: 6.00 Build 0)  -->
<!DOCTYPE svg PUBLIC "-//W3C//DTD SVG 1.1//EN" "http://www.w3.org/Graphics/SVG/1.1/DTD/svg11.dtd">
<svg version="1.1" id="Layer_1" xmlns="http://www.w3.org/2000/svg" xmlns:xlink="http://www.w3.org/1999/xlink" x="0px" y="0px"
	 width="157.311px" height="25.932px" viewBox="0 0 157.311 25.932" enable-background="new 0 0 157.311 25.932"
	 xml:space="preserve">
<rect x="256.893" y="117.778" fill="#5E5E5E" width="1.318" height="27.697"/>
<g>
	<g>
		<path fill="#1B2437" d="M5.582,17.39c-0.198-0.344-0.243-0.657,0.007-1.031c0.132-0.197,0.032-0.538,0.079-0.806
			c0.066-0.375,0.173-0.742,0.266-1.113c0.013-0.047,0.061-0.089,0.062-0.135c0.029-0.521,0.384-0.952,0.354-1.504
			c-0.021-0.4,0.082-0.821,0.198-1.212c0.329-1.104,0.125-2.238,0.24-3.354C6.825,7.883,6.977,7.543,7.003,7.19
			c0.065-0.932,0.133-1.866,0.117-2.8C7.11,3.741,6.599,3.422,5.96,3.524C5.165,3.651,4.457,3.967,3.724,4.302
			C2.973,4.645,2.309,5.106,1.588,5.481C1.067,5.752,0.346,5.636,0,5.244c0.254-0.229,0.491-0.486,0.768-0.69
			C1.792,3.8,2.814,3.04,3.868,2.326c0.959-0.648,1.945-1.261,2.944-1.848c0.263-0.152,0.609-0.202,0.921-0.213
			c0.495-0.02,0.992,0.03,1.488,0.06C9.303,0.33,9.435,0.357,9.453,0.407c0.22,0.604,0.831,1.008,0.821,1.744
			c-0.007,0.515-0.042,0.984-0.24,1.475C9.896,3.964,9.978,4.388,9.944,4.771C9.896,5.278,9.821,5.782,9.777,6.29
			C9.735,6.772,9.783,7.273,9.675,7.739C9.509,8.457,9.238,9.151,9.029,9.86C9.001,9.953,9.106,10.078,9.1,10.187
			c-0.018,0.298-0.067,0.595-0.09,0.895c-0.015,0.217-0.003,0.436-0.003,0.715c-0.425,0.123-0.271,0.572-0.332,0.931
			c-0.064,0.38-0.118,0.763-0.174,1.144c-0.127,0.858-0.2,1.731-0.392,2.576c-0.318,1.409-0.176,2.813,0.03,4.2
			c0.146,0.983,0.697,1.802,1.675,2.192c0.25,0.101,0.576,0.013,0.869,0.011c0.21-0.002,0.421,0,0.631-0.017
			c0.078-0.006,0.163-0.044,0.229-0.089c1.128-0.766,1.998-1.753,2.581-2.989c0.08-0.169,0.163-0.343,0.273-0.49
			c0.791-1.054,1.176-2.3,1.701-3.48c0.409-0.917,0.979-1.763,1.447-2.652c0.16-0.304,0.314-0.642,0.345-0.975
			c0.083-0.938,0.602-1.697,1.006-2.486c0.658-1.279,0.806-2.697,1.254-4.029c-0.242-0.779,0.344-1.358,0.487-2.043
			c0.147-0.693,0.31-1.383,0.454-2.076c0.054-0.25,0.199-0.305,0.44-0.35c0.569-0.106,1.128-0.284,1.693-0.417
			c0.446-0.105,0.898-0.188,1.451-0.303c-0.053,0.694-0.099,1.323-0.148,1.953c-0.011,0.123-0.042,0.245-0.044,0.368
			c-0.009,0.596-0.002,1.19-0.016,1.785c-0.021,1.061-0.281,2.126,0.119,3.173c0.051,0.133,0.031,0.296,0.022,0.444
			c-0.038,0.816-0.108,1.635-0.118,2.453c-0.009,0.686,0.052,1.37,0.083,2.057c0.001,0.037,0.014,0.075,0.012,0.112
			c-0.025,0.413-0.212,0.786,0.015,1.246c0.204,0.413,0.174,0.945,0.234,1.427c0.074,0.582,0.073,1.181,0.217,1.743
			c0.187,0.722,0.077,1.509,0.573,2.166c0.853,1.132,1.141,2.562,1.915,3.736c0.163,0.247,0.399,0.468,0.646,0.636
			c0.623,0.42,1.298,0.594,2.052,0.34c0.26-0.089,0.566-0.191,0.773,0.189c-0.26,0.35-0.49,0.729-0.996,0.851
			c-0.615,0.147-1.206,0.421-1.826,0.517c-0.42,0.063-0.892-0.026-1.306-0.155c-0.524-0.162-0.994-0.405-1.396-0.864
			c-0.359-0.407-0.971-0.589-1.458-0.891c-0.142-0.087-0.283-0.223-0.345-0.368c-0.386-0.929-0.982-1.701-1.654-2.434
			c-0.135-0.146-0.193-0.357-0.284-0.542c-0.017-0.031-0.013-0.073-0.027-0.106c-0.426-0.944-0.646-1.961-1.003-2.933
			c-0.123-0.334,0.019-0.767,0.04-1.153c0.005-0.081,0.037-0.163,0.025-0.24c-0.171-1.229-0.347-2.458-0.521-3.688
			c-0.006-0.047-0.012-0.094-0.012-0.094c-0.519,0.785-1.056,1.589-1.58,2.401c-0.062,0.099-0.06,0.237-0.091,0.355
			c-0.023,0.08-0.041,0.216-0.088,0.229c-0.379,0.101-0.306,0.392-0.312,0.659c-0.002,0.106-0.021,0.228-0.073,0.319
			c-0.268,0.491-0.559,0.971-0.819,1.463c-0.199,0.373-0.401,0.75-0.543,1.146c-0.367,1.029-1.003,1.902-1.654,2.749
			c-0.668,0.866-1.458,1.641-2.194,2.454c-0.018,0.02-0.033,0.04-0.055,0.053c-1.061,0.562-1.962,1.479-3.28,1.474
			c-0.135-0.001-0.275,0.03-0.4,0.079c-0.264,0.104-0.472,0.05-0.679-0.14c-0.075-0.069-0.228-0.059-0.345-0.079
			c-0.084-0.015-0.176-0.003-0.254-0.032c-0.442-0.166-0.896-0.312-1.319-0.521c-0.423-0.207-0.758-0.521-0.854-1.021
			c-0.021-0.107-0.042-0.256-0.117-0.308c-0.587-0.403-0.489-1.061-0.615-1.629c-0.062-0.277-0.047-0.578-0.133-0.849
			c-0.195-0.61-0.138-1.2,0.056-1.794c0.013-0.034,0.012-0.085,0.035-0.104c0.372-0.308,0.193-0.66,0.106-1.018
			c-0.021-0.094,0.028-0.236,0.097-0.312C5.252,17.626,5.405,17.533,5.582,17.39z"/>
		<path fill="#1B2437" d="M35.393,17.326c-1.978,0-3.55-1.549-3.545-3.489c0.005-1.966,1.583-3.514,3.577-3.509
			c1.954,0.004,3.548,1.576,3.553,3.504C38.984,15.782,37.399,17.327,35.393,17.326z"/>
	</g>
	<g>
		<path fill="#1B2437" d="M50.603,21.466v-4.213h0.818v4.16c0,1.563,0.827,2.443,2.216,2.443c1.335,0,2.186-0.81,2.186-2.391v-4.213
			h0.815v4.149c0,2.11-1.212,3.207-3.021,3.207C51.825,24.612,50.603,23.515,50.603,21.466"/>
		<path fill="#1B2437" d="M58.432,19.149h0.798v0.93c0.352-0.579,0.91-1.044,1.833-1.044c1.293,0,2.05,0.869,2.05,2.144v3.32h-0.797
			v-3.127c0-0.993-0.539-1.615-1.479-1.615c-0.921,0-1.605,0.675-1.605,1.679v3.062h-0.797v-5.349H58.432z"/>
		<path fill="#1B2437" d="M64.824,17.097h0.91v0.882h-0.91V17.097z M64.876,19.149h0.796v5.349h-0.796V19.149z"/>
		<polygon fill="#1B2437" points="66.997,19.149 67.877,19.149 69.677,23.586 71.489,19.149 72.346,19.149 70.018,24.539 
			69.314,24.539 		"/>
		<path fill="#1B2437" d="M75.956,23.927c0.734,0,1.25-0.298,1.684-0.755l0.5,0.444c-0.541,0.601-1.188,1.004-2.206,1.004
			c-1.471,0-2.672-1.127-2.672-2.795c0-1.553,1.088-2.794,2.568-2.794c1.583,0,2.496,1.265,2.496,2.837c0,0.072,0,0.154-0.013,0.279
			h-4.242C74.185,23.278,75.012,23.927,75.956,23.927 M77.516,21.506c-0.092-0.974-0.649-1.803-1.706-1.803
			c-0.921,0-1.625,0.767-1.739,1.803H77.516z"/>
		<path fill="#1B2437" d="M79.718,19.149h0.796v1.396c0.396-0.892,1.17-1.532,2.187-1.49v0.857h-0.062
			c-1.17,0-2.122,0.837-2.122,2.453v2.131h-0.798V19.149L79.718,19.149z"/>
		<path fill="#1B2437" d="M83.462,23.813l0.404-0.567c0.578,0.437,1.223,0.684,1.852,0.684c0.645,0,1.107-0.331,1.107-0.85v-0.021
			c0-0.539-0.63-0.746-1.335-0.941c-0.839-0.236-1.77-0.528-1.77-1.511v-0.022c0-0.921,0.769-1.529,1.822-1.529
			c0.652,0,1.376,0.227,1.923,0.591l-0.361,0.6c-0.497-0.32-1.065-0.518-1.583-0.518c-0.635,0-1.032,0.332-1.032,0.774v0.022
			c0,0.508,0.66,0.704,1.373,0.92c0.827,0.248,1.719,0.57,1.719,1.532v0.021c0,1.015-0.837,1.605-1.902,1.605
			C84.912,24.603,84.06,24.301,83.462,23.813"/>
		<path fill="#1B2437" d="M89.076,17.097h0.913v0.882h-0.913V17.097z M89.129,19.149h0.798v5.349h-0.798V19.149z"/>
		<path fill="#1B2437" d="M91.465,21.839v-0.021c0-1.749,1.273-2.785,2.557-2.785c0.992,0,1.639,0.538,2.052,1.138v-3.229h0.798
			v7.555h-0.798v-1.075c-0.438,0.642-1.067,1.189-2.052,1.189C92.739,24.612,91.465,23.596,91.465,21.839 M96.103,21.826v-0.021
			c0-1.232-0.94-2.061-1.936-2.061c-1.035,0-1.887,0.767-1.887,2.061v0.021c0,1.264,0.873,2.07,1.887,2.07
			C95.162,23.898,96.103,23.059,96.103,21.826"/>
		<path fill="#1B2437" d="M98.242,22.946v-0.021c0-1.148,0.929-1.749,2.287-1.749c0.68,0,1.156,0.094,1.634,0.229v-0.166
			c0-0.951-0.58-1.448-1.583-1.448c-0.633,0-1.127,0.155-1.628,0.382l-0.237-0.649c0.59-0.271,1.162-0.456,1.947-0.456
			c0.755,0,1.343,0.207,1.725,0.591c0.38,0.372,0.564,0.891,0.564,1.572v3.271h-0.786V23.7c-0.374,0.478-0.983,0.909-1.928,0.909
			C99.236,24.612,98.242,24.041,98.242,22.946 M102.173,22.531v-0.497c-0.394-0.113-0.911-0.228-1.562-0.228
			c-0.995,0-1.563,0.435-1.563,1.076v0.021c0,0.674,0.621,1.065,1.346,1.065C101.376,23.968,102.173,23.38,102.173,22.531"/>
		<path fill="#1B2437" d="M104.324,21.839v-0.021c0-1.749,1.27-2.785,2.554-2.785c0.993,0,1.636,0.538,2.049,1.138v-3.229h0.8v7.555
			h-0.8v-1.075c-0.433,0.642-1.062,1.189-2.049,1.189C105.596,24.612,104.324,23.596,104.324,21.839 M108.959,21.826v-0.021
			c0-1.232-0.939-2.061-1.935-2.061c-1.036,0-1.887,0.767-1.887,2.061v0.021c0,1.264,0.87,2.07,1.887,2.07
			C108.018,23.898,108.959,23.059,108.959,21.826"/>
		<polygon fill="#1B2437" points="114.736,17.253 115.505,17.253 120.067,23.06 120.067,17.253 120.863,17.253 120.863,24.496 
			120.212,24.496 115.534,18.558 115.534,24.496 114.738,24.496 114.738,17.253 		"/>
		<path fill="#1B2437" d="M122.369,22.946v-0.021c0-1.148,0.933-1.749,2.288-1.749c0.683,0,1.158,0.094,1.635,0.229v-0.166
			c0-0.951-0.578-1.448-1.583-1.448c-0.632,0-1.129,0.155-1.625,0.382l-0.237-0.649c0.592-0.271,1.16-0.456,1.944-0.456
			c0.758,0,1.348,0.207,1.729,0.591c0.376,0.372,0.56,0.891,0.56,1.572v3.271h-0.785V23.7c-0.37,0.478-0.983,0.909-1.927,0.909
			C123.365,24.612,122.369,24.041,122.369,22.946 M126.302,22.531v-0.497c-0.394-0.113-0.907-0.228-1.562-0.228
			c-0.994,0-1.565,0.435-1.565,1.076v0.021c0,0.674,0.625,1.065,1.35,1.065C125.506,23.968,126.302,23.38,126.302,22.531"/>
		<path fill="#1B2437" d="M128.43,21.848v-0.021c0-1.511,1.182-2.794,2.743-2.794c1.015,0,1.646,0.425,2.146,0.952l-0.529,0.561
			c-0.425-0.444-0.901-0.809-1.626-0.809c-1.084,0-1.916,0.92-1.916,2.07v0.021c0,1.16,0.85,2.081,1.967,2.081
			c0.686,0,1.211-0.342,1.638-0.797l0.508,0.477c-0.539,0.602-1.18,1.035-2.185,1.035C129.612,24.621,128.43,23.349,128.43,21.848"
			/>
		<path fill="#1B2437" d="M134.689,17.097h0.909v0.882h-0.909V17.097z M134.74,19.149h0.797v5.349h-0.797V19.149z"/>
		<path fill="#1B2437" d="M137.057,21.848v-0.021c0-1.511,1.18-2.794,2.795-2.794c1.603,0,2.782,1.265,2.782,2.774v0.021
			c0,1.512-1.188,2.795-2.805,2.795C138.223,24.621,137.057,23.36,137.057,21.848 M141.819,21.848v-0.021
			c0-1.147-0.86-2.09-1.987-2.09c-1.159,0-1.955,0.94-1.955,2.07v0.021c0,1.149,0.847,2.081,1.976,2.081
			C141.007,23.908,141.819,22.977,141.819,21.848"/>
		<path fill="#1B2437" d="M144.068,19.149h0.798v0.93c0.353-0.579,0.911-1.044,1.832-1.044c1.295,0,2.048,0.869,2.048,2.144v3.32
			h-0.796v-3.127c0-0.993-0.537-1.615-1.478-1.615c-0.923,0-1.604,0.675-1.604,1.679v3.062h-0.796L144.068,19.149z"/>
		<path fill="#1B2437" d="M150.036,22.946v-0.021c0-1.148,0.931-1.749,2.285-1.749c0.686,0,1.162,0.094,1.636,0.229v-0.166
			c0-0.951-0.578-1.448-1.581-1.448c-0.633,0-1.129,0.155-1.626,0.382l-0.235-0.649c0.59-0.271,1.156-0.456,1.945-0.456
			c0.753,0,1.347,0.207,1.729,0.591c0.372,0.372,0.559,0.891,0.559,1.572v3.271h-0.788V23.7c-0.372,0.478-0.981,0.909-1.922,0.909
			C151.03,24.612,150.036,24.041,150.036,22.946 M153.969,22.531v-0.497c-0.396-0.113-0.911-0.228-1.562-0.228
			c-0.993,0-1.562,0.435-1.562,1.076v0.021c0,0.674,0.619,1.065,1.346,1.065C153.173,23.968,153.969,23.38,153.969,22.531"/>
		<rect x="156.5" y="16.943" fill="#1B2437" width="0.796" height="7.555"/>
		<path fill="#1B2437" d="M50.603,4.614h3.312c0.922,0,1.636,0.259,2.112,0.735c0.404,0.403,0.621,0.973,0.621,1.655v0.021
			c0,1.169-0.633,1.904-1.553,2.245l1.771,2.587H55L53.447,9.54h-1.25v2.317h-1.593V4.614z M53.813,8.133
			c0.775,0,1.221-0.416,1.221-1.025V7.087c0-0.686-0.477-1.036-1.254-1.036h-1.583v2.082H53.813z"/>
		<path fill="#1B2437" d="M57.988,6.31h1.571v5.548h-1.571V6.31z M59.302,3.867l1.354,0.591l-1.344,1.241h-1.16L59.302,3.867z"/>
		<path fill="#1B2437" d="M60.77,9.116V9.095c0-1.592,1.283-2.888,3.011-2.888c1.719,0,2.989,1.273,2.989,2.867v0.021
			c0,1.596-1.284,2.89-3.014,2.89C62.041,11.984,60.77,10.71,60.77,9.116 M65.218,9.116V9.095c0-0.816-0.589-1.53-1.461-1.53
			c-0.897,0-1.434,0.693-1.434,1.511v0.021c0,0.817,0.59,1.533,1.458,1.533C64.685,10.628,65.218,9.932,65.218,9.116"/>
		<polygon fill="#1B2437" points="71.175,4.614 72.646,4.614 76.041,9.073 76.041,4.614 77.616,4.614 77.616,11.858 76.258,11.858 
			72.751,7.255 72.751,11.858 71.178,11.858 71.178,4.614 		"/>
		<path fill="#1B2437" d="M78.909,9.116V9.095c0-1.584,1.126-2.888,2.746-2.888c1.849,0,2.7,1.439,2.7,3.013
			c0,0.122-0.012,0.269-0.023,0.413h-3.859c0.154,0.713,0.65,1.088,1.355,1.088c0.525,0,0.909-0.166,1.348-0.568l0.897,0.794
			c-0.517,0.642-1.262,1.036-2.267,1.036C80.143,11.984,78.909,10.814,78.909,9.116 M82.823,8.651
			c-0.094-0.705-0.509-1.18-1.168-1.18c-0.654,0-1.079,0.464-1.204,1.18H82.823z"/>
		<path fill="#1B2437" d="M85.551,12.957l0.537-1.183c0.568,0.323,1.143,0.507,1.873,0.507c1.078,0,1.584-0.517,1.584-1.511v-0.269
			c-0.463,0.56-0.973,0.9-1.812,0.9c-1.29,0-2.462-0.941-2.462-2.588V8.796c0-1.656,1.189-2.589,2.462-2.589
			c0.865,0,1.369,0.362,1.794,0.827V6.311h1.572v4.296c0,0.994-0.239,1.716-0.704,2.184c-0.521,0.517-1.314,0.744-2.393,0.744
			C87.105,13.535,86.253,13.328,85.551,12.957 M89.545,8.816V8.794c0-0.758-0.592-1.285-1.353-1.285c-0.773,0-1.35,0.527-1.35,1.285
			v0.022c0,0.764,0.576,1.282,1.35,1.282C88.955,10.098,89.545,9.573,89.545,8.816"/>
		<path fill="#1B2437" d="M92.501,6.31h1.573v1.119c0.32-0.766,0.837-1.263,1.77-1.224v1.646H95.76
			c-1.044,0-1.686,0.634-1.686,1.958v2.048h-1.573V6.31z"/>
		<path fill="#1B2437" d="M96.556,9.116V9.095c0-1.592,1.281-2.888,3.014-2.888c1.718,0,2.991,1.273,2.991,2.867v0.021
			c0,1.596-1.285,2.89-3.017,2.89C97.829,11.984,96.556,10.71,96.556,9.116 M101.003,9.116V9.095c0-0.816-0.59-1.53-1.459-1.53
			c-0.899,0-1.437,0.693-1.437,1.511v0.021c0,0.817,0.59,1.533,1.46,1.533C100.467,10.628,101.003,9.932,101.003,9.116"/>
	</g>
</g>
</svg>
