<?xml version="1.0" encoding="UTF-8"?>
<!-- Generator: Adobe Illustrator 16.0.0, SVG Export Plug-In . SVG Version: 6.00 Build 0)  -->
<!DOCTYPE svg PUBLIC "-//W3C//DTD SVG 1.1//EN" "http://www.w3.org/Graphics/SVG/1.1/DTD/svg11.dtd">
<svg version="1.1" id="Layer_1" xmlns="http://www.w3.org/2000/svg" xmlns:xlink="http://www.w3.org/1999/xlink" x="0px" y="0px" width="222.654px" height="26px" viewBox="0 0 222.654 26" enable-background="new 0 0 222.654 26" xml:space="preserve">
<g>
	<g>
		<path fill="#FFFFFF" d="M50.046,7.084V2.868h0.819v4.165c0,1.575,0.818,2.445,2.217,2.445c1.337,0,2.188-0.808,2.188-2.393V2.868    h0.816v4.155c0,2.124-1.212,3.211-3.023,3.211C51.269,10.234,50.046,9.136,50.046,7.084z"/>
		<path fill="#FFFFFF" d="M57.681,4.764h0.798v0.933c0.36-0.581,0.912-1.047,1.833-1.047c1.285,0,2.052,0.871,2.052,2.145v3.326    h-0.798v-3.13c0-0.995-0.528-1.616-1.481-1.616c-0.922,0-1.604,0.673-1.604,1.678v3.067h-0.798L57.681,4.764L57.681,4.764z"/>
		<path fill="#FFFFFF" d="M63.876,2.712h0.912v0.88h-0.912V2.712z M63.928,4.764h0.798v5.356h-0.798V4.764z"/>
		<path fill="#FFFFFF" d="M65.844,4.764h0.88l1.803,4.445l1.812-4.445h0.86l-2.331,5.398h-0.705L65.844,4.764z"/>
		<path fill="#FFFFFF" d="M72.723,7.768c0.112,1.129,0.941,1.782,1.886,1.782c0.746,0,1.243-0.3,1.688-0.756l0.498,0.445    c-0.539,0.611-1.181,1.005-2.207,1.005c-1.461,0-2.673-1.129-2.673-2.797c0-1.554,1.078-2.798,2.569-2.798    c1.585,0,2.497,1.264,2.497,2.839c0,0.073,0,0.156-0.01,0.28H72.723z M76.173,7.126c-0.083-0.964-0.663-1.803-1.709-1.803    c-0.912,0-1.627,0.767-1.739,1.803H76.173z"/>
		<path fill="#FFFFFF" d="M78.172,4.764h0.8v1.398c0.394-0.891,1.17-1.523,2.186-1.492v0.86h-0.062    c-1.171,0-2.123,0.839-2.123,2.456v2.134h-0.8L78.172,4.764L78.172,4.764z"/>
		<path fill="#FFFFFF" d="M81.715,9.437l0.404-0.57c0.58,0.445,1.223,0.684,1.854,0.684c0.651,0,1.106-0.321,1.106-0.85V8.68    c0-0.529-0.632-0.746-1.336-0.943c-0.829-0.249-1.771-0.518-1.771-1.513v-0.02c0-0.922,0.767-1.533,1.821-1.533    c0.663,0,1.378,0.228,1.929,0.59L85.36,5.862c-0.497-0.321-1.057-0.518-1.585-0.518c-0.632,0-1.036,0.332-1.036,0.777v0.021    c0,0.508,0.663,0.705,1.378,0.922c0.829,0.249,1.72,0.57,1.72,1.534v0.021c0,1.016-0.839,1.606-1.904,1.606    C83.155,10.224,82.326,9.923,81.715,9.437z"/>
		<path fill="#FFFFFF" d="M87.133,2.712h0.912v0.88h-0.912V2.712z M87.184,4.764h0.798v5.356h-0.798V4.764z"/>
		<path fill="#FFFFFF" d="M89.318,7.458V7.437c0-1.74,1.272-2.787,2.559-2.787c0.995,0,1.639,0.529,2.054,1.14V2.557h0.797v7.563    H93.93V9.042c-0.446,0.643-1.059,1.191-2.054,1.191C90.593,10.234,89.318,9.219,89.318,7.458z M93.96,7.447V7.426    c0-1.233-0.941-2.062-1.938-2.062c-1.036,0-1.885,0.767-1.885,2.062v0.021c0,1.274,0.858,2.072,1.885,2.072    C93.017,9.519,93.96,8.68,93.96,7.447z"/>
		<path fill="#FFFFFF" d="M95.896,8.566V8.545c0-1.15,0.933-1.751,2.29-1.751c0.692,0,1.148,0.093,1.637,0.228V6.856    c0-0.953-0.58-1.451-1.585-1.451c-0.632,0-1.129,0.146-1.627,0.384l-0.238-0.653c0.591-0.28,1.161-0.456,1.948-0.456    c0.756,0,1.337,0.197,1.729,0.591c0.373,0.373,0.562,0.901,0.562,1.575v3.274h-0.788V9.322c-0.373,0.487-0.984,0.912-1.927,0.912    C96.891,10.234,95.896,9.675,95.896,8.566z M99.833,8.151V7.654C99.43,7.54,98.933,7.426,98.27,7.426    c-0.995,0-1.564,0.425-1.564,1.078v0.021c0,0.674,0.632,1.067,1.348,1.067C99.036,9.592,99.833,9.012,99.833,8.151z"/>
		<path fill="#FFFFFF" d="M101.781,7.458V7.437c0-1.74,1.274-2.787,2.559-2.787c0.995,0,1.639,0.529,2.054,1.14V2.557h0.797v7.563    h-0.797V9.042c-0.446,0.643-1.059,1.191-2.054,1.191C103.055,10.234,101.781,9.219,101.781,7.458z M106.422,7.447V7.426    c0-1.233-0.941-2.062-1.938-2.062c-1.036,0-1.885,0.767-1.885,2.062v0.021c0,1.274,0.858,2.072,1.885,2.072    C105.479,9.519,106.422,8.68,106.422,7.447z"/>
		<path fill="#FFFFFF" d="M111.799,2.868h0.769l4.566,5.812V2.868h0.8v7.252h-0.652l-4.683-5.947v5.947h-0.8V2.868z"/>
		<path fill="#FFFFFF" d="M119.236,8.566V8.545c0-1.15,0.933-1.751,2.29-1.751c0.693,0,1.147,0.093,1.637,0.228V6.856    c0-0.953-0.58-1.451-1.585-1.451c-0.633,0-1.13,0.146-1.627,0.384l-0.238-0.653c0.593-0.28,1.16-0.456,1.947-0.456    c0.757,0,1.337,0.197,1.73,0.591c0.373,0.373,0.56,0.901,0.56,1.575v3.274h-0.787V9.322c-0.373,0.487-0.982,0.912-1.927,0.912    C120.23,10.234,119.236,9.675,119.236,8.566z M123.173,8.151V7.654c-0.401-0.114-0.899-0.228-1.562-0.228    c-0.994,0-1.564,0.425-1.564,1.078v0.021c0,0.674,0.635,1.067,1.35,1.067C122.376,9.592,123.173,9.012,123.173,8.151z"/>
		<path fill="#FFFFFF" d="M125.099,7.468V7.447c0-1.523,1.171-2.798,2.746-2.798c1.015,0,1.637,0.415,2.145,0.954l-0.528,0.559    c-0.425-0.445-0.892-0.808-1.627-0.808c-1.088,0-1.917,0.912-1.917,2.072v0.021c0,1.16,0.852,2.083,1.971,2.083    c0.692,0,1.212-0.342,1.637-0.798l0.508,0.477c-0.538,0.611-1.181,1.036-2.186,1.036C126.27,10.245,125.099,8.97,125.099,7.468z"/>
		<path fill="#FFFFFF" d="M131.161,2.712h0.911v0.88h-0.911V2.712z M131.213,4.764h0.8v5.356h-0.8V4.764z"/>
		<path fill="#FFFFFF" d="M133.325,7.468V7.447c0-1.523,1.171-2.798,2.797-2.798c1.616,0,2.787,1.264,2.787,2.777v0.021    c0,1.523-1.191,2.797-2.808,2.797C134.496,10.245,133.325,8.98,133.325,7.468z M138.091,7.468V7.447    c0-1.15-0.857-2.093-1.987-2.093c-1.16,0-1.958,0.943-1.958,2.072v0.021c0,1.15,0.85,2.083,1.979,2.083    C137.283,9.53,138.091,8.587,138.091,7.468z"/>
		<path fill="#FFFFFF" d="M140.141,4.764h0.798v0.933c0.363-0.581,0.912-1.047,1.834-1.047c1.285,0,2.052,0.871,2.052,2.145v3.326    h-0.798v-3.13c0-0.995-0.528-1.616-1.481-1.616c-0.922,0-1.604,0.673-1.604,1.678v3.067h-0.798L140.141,4.764L140.141,4.764z"/>
		<path fill="#FFFFFF" d="M145.912,8.566V8.545c0-1.15,0.934-1.751,2.289-1.751c0.694,0,1.15,0.093,1.638,0.228V6.856    c0-0.953-0.581-1.451-1.586-1.451c-0.632,0-1.129,0.146-1.626,0.384l-0.236-0.653c0.59-0.28,1.158-0.456,1.945-0.456    c0.757,0,1.337,0.197,1.73,0.591c0.373,0.373,0.56,0.901,0.56,1.575v3.274h-0.787V9.322c-0.373,0.487-0.982,0.912-1.928,0.912    C146.906,10.234,145.912,9.675,145.912,8.566z M149.848,8.151V7.654c-0.404-0.114-0.901-0.228-1.564-0.228    c-0.994,0-1.562,0.425-1.562,1.078v0.021c0,0.674,0.632,1.067,1.347,1.067C149.051,9.592,149.848,9.012,149.848,8.151z"/>
		<path fill="#FFFFFF" d="M152.179,2.557h0.798v7.563h-0.798V2.557z"/>
		<path fill="#FFFFFF" d="M157.214,7.458V7.437c0-1.74,1.274-2.787,2.562-2.787c0.994,0,1.637,0.529,2.051,1.14V2.557h0.798v7.563    h-0.798V9.042c-0.445,0.643-1.057,1.191-2.051,1.191C158.488,10.234,157.214,9.219,157.214,7.458z M161.855,7.447V7.426    c0-1.233-0.942-2.062-1.938-2.062c-1.036,0-1.886,0.767-1.886,2.062v0.021c0,1.274,0.86,2.072,1.886,2.072    C160.913,9.519,161.855,8.68,161.855,7.447z"/>
		<path fill="#FFFFFF" d="M164.673,7.768c0.114,1.129,0.943,1.782,1.888,1.782c0.746,0,1.241-0.3,1.688-0.756l0.497,0.445    c-0.539,0.611-1.182,1.005-2.207,1.005c-1.461,0-2.673-1.129-2.673-2.797c0-1.554,1.077-2.798,2.569-2.798    c1.585,0,2.497,1.264,2.497,2.839c0,0.073,0,0.156-0.013,0.28H164.673z M168.123,7.126c-0.083-0.964-0.663-1.803-1.709-1.803    c-0.912,0-1.627,0.767-1.741,1.803H168.123z"/>
		<path fill="#FFFFFF" d="M173.156,2.868h3.119c0.899,0,1.604,0.27,2.062,0.725c0.362,0.363,0.562,0.85,0.562,1.43v0.021    c0,1.202-0.829,1.917-1.969,2.113l2.228,2.963h-1.005l-2.104-2.818h-0.021h-2.052v2.818h-0.818L173.156,2.868L173.156,2.868z     M176.202,6.566c1.078,0,1.865-0.56,1.865-1.492v-0.02c0-0.901-0.686-1.43-1.854-1.43h-2.236v2.942H176.202z"/>
		<path fill="#FFFFFF" d="M180.378,4.764h0.798v5.356h-0.798V4.764z M181.434,2.453l0.829,0.383l-1.173,1.119h-0.643L181.434,2.453z    "/>
		<path fill="#FFFFFF" d="M182.491,7.468V7.447c0-1.523,1.171-2.798,2.797-2.798c1.616,0,2.787,1.264,2.787,2.777v0.021    c0,1.523-1.191,2.797-2.808,2.797C183.662,10.245,182.491,8.98,182.491,7.468z M187.257,7.468V7.447    c0-1.15-0.857-2.093-1.987-2.093c-1.16,0-1.958,0.943-1.958,2.072v0.021c0,1.15,0.85,2.083,1.979,2.083    C186.449,9.53,187.257,8.587,187.257,7.468z"/>
		<path fill="#FFFFFF" d="M192.342,2.868h0.769l4.569,5.812V2.868h0.798v7.252h-0.652l-4.684-5.947v5.947h-0.8V2.868L192.342,2.868z    "/>
		<path fill="#FFFFFF" d="M200.661,7.768c0.114,1.129,0.943,1.782,1.886,1.782c0.746,0,1.243-0.3,1.689-0.756l0.497,0.445    c-0.539,0.611-1.184,1.005-2.207,1.005c-1.461,0-2.673-1.129-2.673-2.797c0-1.554,1.077-2.798,2.567-2.798    c1.585,0,2.497,1.264,2.497,2.839c0,0.073,0,0.156-0.011,0.28H200.661z M204.111,7.126c-0.083-0.964-0.663-1.803-1.709-1.803    c-0.912,0-1.627,0.767-1.741,1.803H204.111z"/>
		<path fill="#FFFFFF" d="M206.048,11.053l0.362-0.622c0.622,0.445,1.285,0.684,2.062,0.684c1.189,0,1.946-0.653,1.946-1.906V8.576    c-0.467,0.622-1.119,1.129-2.104,1.129c-1.284,0-2.52-0.974-2.52-2.507v-0.02c0-1.564,1.233-2.528,2.52-2.528    c1.005,0,1.646,0.498,2.093,1.078V4.764h0.798v4.424c0,0.829-0.238,1.451-0.684,1.896c-0.487,0.487-1.183,0.715-2.041,0.715    C207.581,11.798,206.762,11.55,206.048,11.053z M210.44,7.188V7.167c0-1.099-0.953-1.813-1.969-1.813    c-1.025,0-1.854,0.705-1.854,1.803v0.021c0,1.078,0.86,1.823,1.854,1.823C209.487,9.001,210.44,8.266,210.44,7.188z"/>
		<path fill="#FFFFFF" d="M212.781,4.764h0.798v1.398c0.396-0.891,1.171-1.523,2.188-1.492v0.86h-0.062    c-1.171,0-2.124,0.839-2.124,2.456v2.134h-0.798L212.781,4.764L212.781,4.764z"/>
		<path fill="#FFFFFF" d="M216.438,7.468V7.447c0-1.523,1.171-2.798,2.797-2.798c1.616,0,2.787,1.264,2.787,2.777v0.021    c0,1.523-1.191,2.797-2.81,2.797C217.609,10.245,216.438,8.98,216.438,7.468z M221.204,7.468V7.447    c0-1.15-0.857-2.093-1.989-2.093c-1.158,0-1.958,0.943-1.958,2.072v0.021c0,1.15,0.852,2.083,1.979,2.083    C220.396,9.53,221.204,8.587,221.204,7.468z"/>
		<path fill="#ED1748" d="M49.508,22.503l0.943-1.13c0.663,0.539,1.336,0.881,2.166,0.881c0.663,0,1.046-0.259,1.046-0.684V21.55    c0-0.403-0.249-0.622-1.461-0.922c-1.471-0.362-2.404-0.788-2.404-2.218v-0.02c0-1.315,1.048-2.188,2.539-2.188    c1.067,0,1.948,0.332,2.693,0.923l-0.829,1.201c-0.653-0.445-1.264-0.717-1.886-0.717s-0.935,0.271-0.935,0.634v0.021    c0,0.485,0.312,0.62,1.564,0.952c1.472,0.394,2.3,0.911,2.3,2.177v0.021c0,1.439-1.098,2.248-2.663,2.248    C51.476,23.663,50.378,23.29,49.508,22.503z"/>
		<path fill="#ED1748" d="M56.199,20.814v-0.021c0-1.585,1.129-2.891,2.746-2.891c1.854,0,2.704,1.438,2.704,3.016    c0,0.124-0.01,0.259-0.021,0.414h-3.863c0.154,0.715,0.651,1.088,1.355,1.088c0.528,0,0.901-0.166,1.347-0.57l0.901,0.799    c-0.528,0.652-1.264,1.035-2.269,1.035C57.432,23.684,56.199,22.514,56.199,20.814z M60.116,20.348    c-0.093-0.703-0.508-1.181-1.171-1.181s-1.078,0.466-1.202,1.181H60.116z"/>
		<path fill="#ED1748" d="M62.571,20.793v-0.021c0-1.854,1.212-2.869,2.528-2.869c0.839,0,1.355,0.385,1.729,0.828v-2.733h1.575    v7.562h-1.575v-0.798c-0.384,0.528-0.902,0.901-1.729,0.901C63.804,23.663,62.571,22.646,62.571,20.793z M66.85,20.793v-0.021    c0-0.922-0.611-1.531-1.349-1.531c-0.734,0-1.355,0.601-1.355,1.531v0.021c0,0.923,0.622,1.533,1.355,1.533    C66.239,22.326,66.85,21.716,66.85,20.793z"/>
		<path fill="#ED1748" d="M69.543,20.814v-0.021c0-1.585,1.129-2.891,2.746-2.891c1.854,0,2.704,1.438,2.704,3.016    c0,0.124-0.01,0.259-0.021,0.414h-3.865c0.155,0.715,0.651,1.088,1.355,1.088c0.528,0,0.901-0.166,1.349-0.57l0.899,0.799    c-0.526,0.652-1.264,1.035-2.269,1.035C70.776,23.684,69.543,22.514,69.543,20.814z M73.459,20.348    c-0.093-0.703-0.508-1.181-1.171-1.181s-1.078,0.466-1.202,1.181H73.459z"/>
		<path fill="#ED1748" d="M81.923,16.255h1.473l3.106,7.306h-1.668l-0.663-1.627h-3.064l-0.663,1.627h-1.627L81.923,16.255z     M83.601,20.523l-0.963-2.354l-0.965,2.354H83.601z"/>
		<path fill="#ED1748" d="M87.454,18.006h1.575v0.788c0.363-0.467,0.839-0.892,1.626-0.892c1.202,0,1.886,0.777,1.886,2.062v3.595    h-1.575v-3.098c0-0.746-0.342-1.13-0.951-1.13c-0.611,0-0.984,0.384-0.984,1.13v3.098h-1.575L87.454,18.006L87.454,18.006z"/>
		<path fill="#ED1748" d="M93.659,20.793v-0.021c0-1.854,1.212-2.869,2.528-2.869c0.839,0,1.355,0.385,1.729,0.828v-2.733h1.575    v7.562h-1.575v-0.798c-0.384,0.528-0.899,0.901-1.729,0.901C94.892,23.663,93.659,22.646,93.659,20.793z M97.938,20.793v-0.021    c0-0.922-0.611-1.531-1.349-1.531c-0.734,0-1.355,0.601-1.355,1.531v0.021c0,0.923,0.622,1.533,1.355,1.533    C97.327,22.326,97.938,21.716,97.938,20.793z"/>
		<path fill="#ED1748" d="M100.932,15.996h1.656v1.398h-1.656V15.996z M100.973,18.006h1.573v5.555h-1.573V18.006z"/>
		<path fill="#ED1748" d="M104.029,18.006h1.575v0.788c0.361-0.467,0.839-0.892,1.626-0.892c1.202,0,1.886,0.777,1.886,2.062v3.595    h-1.575v-3.098c0-0.746-0.342-1.13-0.953-1.13c-0.609,0-0.982,0.384-0.982,1.13v3.098h-1.575L104.029,18.006L104.029,18.006z"/>
		<path fill="#ED1748" d="M110.151,21.964v-0.021c0-1.202,0.922-1.771,2.237-1.771c0.568,0,0.951,0.094,1.355,0.229v-0.094    c0-0.662-0.404-1.016-1.189-1.016c-0.611,0-1.025,0.104-1.533,0.301l-0.396-1.201c0.611-0.26,1.212-0.445,2.154-0.445    c0.871,0,1.472,0.219,1.876,0.621c0.414,0.414,0.601,1.025,0.601,1.771v3.225h-1.521V22.96c-0.384,0.425-0.901,0.704-1.679,0.704    C111.011,23.663,110.151,23.072,110.151,21.964z M113.766,21.602v-0.278c-0.279-0.124-0.621-0.207-1.005-0.207    c-0.675,0-1.089,0.27-1.089,0.767v0.021c0,0.426,0.354,0.675,0.86,0.675C113.28,22.575,113.766,22.182,113.766,21.602z"/>
	</g>
	<g>
		<path fill="#FFFFFF" d="M5.462,17.329c-0.193-0.335-0.236-0.644,0.006-1.009c0.131-0.192,0.031-0.527,0.077-0.789    c0.063-0.366,0.169-0.727,0.262-1.09c0.015-0.045,0.061-0.086,0.061-0.131c0.027-0.511,0.375-0.933,0.346-1.472    c-0.02-0.393,0.081-0.805,0.194-1.187c0.322-1.08,0.123-2.191,0.235-3.283c0.037-0.344,0.185-0.677,0.21-1.021    c0.062-0.913,0.13-1.825,0.113-2.741c-0.01-0.634-0.51-0.946-1.135-0.848C5.053,3.886,4.36,4.196,3.643,4.523    C2.908,4.858,2.259,5.31,1.553,5.677C1.043,5.942,0.338,5.828,0,5.446C0.248,5.221,0.48,4.969,0.751,4.77    c1.002-0.737,2.001-1.481,3.034-2.179c0.938-0.635,1.902-1.235,2.879-1.809c0.259-0.148,0.596-0.198,0.901-0.21    c0.483-0.019,0.971,0.03,1.456,0.061c0.082,0.005,0.211,0.03,0.229,0.081c0.215,0.591,0.813,0.986,0.802,1.704    c-0.006,0.505-0.039,0.964-0.231,1.445c-0.137,0.331-0.056,0.745-0.09,1.12C9.683,5.479,9.61,5.974,9.567,6.47    C9.525,6.94,9.572,7.43,9.466,7.888C9.303,8.59,9.038,9.269,8.833,9.961c-0.024,0.092,0.076,0.214,0.07,0.32    c-0.017,0.292-0.064,0.584-0.088,0.876C8.8,11.37,8.813,11.584,8.813,11.858c-0.417,0.12-0.268,0.559-0.325,0.91    c-0.064,0.372-0.116,0.748-0.17,1.121c-0.124,0.838-0.195,1.691-0.385,2.521c-0.311,1.376-0.172,2.752,0.028,4.105    c0.146,0.963,0.684,1.767,1.641,2.146c0.244,0.098,0.562,0.012,0.851,0.009c0.205-0.002,0.412,0,0.617-0.017    c0.076-0.006,0.16-0.041,0.225-0.088c1.104-0.752,1.955-1.715,2.525-2.924c0.079-0.166,0.159-0.336,0.265-0.48    c0.774-1.029,1.151-2.249,1.665-3.402c0.4-0.896,0.958-1.727,1.416-2.594c0.157-0.297,0.308-0.627,0.337-0.954    c0.081-0.918,0.593-1.661,0.984-2.433c0.644-1.251,0.79-2.639,1.227-3.943c-0.232-0.76,0.341-1.326,0.479-1.998    c0.144-0.678,0.304-1.353,0.444-2.032c0.053-0.244,0.193-0.299,0.43-0.342c0.556-0.104,1.104-0.278,1.657-0.408    c0.437-0.103,0.879-0.183,1.42-0.296c-0.054,0.678-0.099,1.293-0.146,1.912c-0.011,0.12-0.042,0.237-0.043,0.358    c-0.008,0.584-0.001,1.165-0.015,1.747c-0.021,1.038-0.275,2.079,0.117,3.104c0.05,0.132,0.028,0.291,0.021,0.434    c-0.034,0.799-0.102,1.6-0.111,2.399c-0.011,0.672,0.053,1.341,0.081,2.013c0,0.036,0.015,0.073,0.013,0.11    c-0.024,0.404-0.207,0.769,0.015,1.22c0.2,0.403,0.17,0.926,0.229,1.396c0.071,0.569,0.071,1.155,0.213,1.706    c0.183,0.705,0.074,1.477,0.562,2.117c0.833,1.108,1.116,2.507,1.874,3.656c0.159,0.241,0.388,0.459,0.631,0.621    c0.61,0.412,1.271,0.582,2.008,0.334c0.258-0.087,0.556-0.188,0.758,0.188c-0.255,0.342-0.479,0.712-0.976,0.83    c-0.602,0.146-1.18,0.412-1.787,0.506c-0.411,0.062-0.873-0.021-1.276-0.149c-0.514-0.157-0.975-0.396-1.366-0.845    c-0.352-0.398-0.949-0.577-1.427-0.873c-0.14-0.086-0.274-0.219-0.338-0.357c-0.376-0.91-0.959-1.664-1.617-2.386    c-0.133-0.142-0.188-0.347-0.276-0.528c-0.019-0.028-0.015-0.07-0.027-0.104c-0.417-0.922-0.632-1.917-0.979-2.871    c-0.12-0.325,0.018-0.75,0.039-1.127c0.005-0.079,0.037-0.158,0.021-0.231c-0.167-1.205-0.339-2.405-0.509-3.61    c-0.006-0.045-0.011-0.091-0.011-0.091c-0.51,0.768-1.035,1.554-1.546,2.349c-0.062,0.097-0.062,0.229-0.089,0.347    c-0.023,0.078-0.04,0.211-0.089,0.226c-0.37,0.098-0.3,0.383-0.306,0.645c-0.002,0.104-0.021,0.226-0.07,0.312    c-0.263,0.479-0.548,0.948-0.801,1.43c-0.193,0.366-0.393,0.731-0.531,1.122c-0.358,1.009-0.982,1.859-1.618,2.688    c-0.654,0.85-1.428,1.606-2.147,2.403c-0.017,0.019-0.032,0.037-0.053,0.052c-1.041,0.549-1.92,1.447-3.21,1.44    c-0.132,0-0.27,0.03-0.392,0.077c-0.26,0.104-0.463,0.051-0.665-0.139c-0.074-0.064-0.224-0.057-0.338-0.076    c-0.083-0.014-0.172,0-0.249-0.029c-0.433-0.163-0.877-0.307-1.291-0.512c-0.413-0.199-0.74-0.51-0.835-0.997    c-0.021-0.103-0.041-0.25-0.113-0.302c-0.575-0.396-0.479-1.041-0.604-1.592c-0.061-0.272-0.046-0.568-0.13-0.834    c-0.19-0.598-0.135-1.175,0.054-1.757c0.017-0.028,0.016-0.084,0.035-0.103c0.364-0.305,0.189-0.646,0.104-0.997    c-0.021-0.093,0.024-0.229,0.095-0.306C5.138,17.561,5.289,17.469,5.462,17.329z"/>
		<path fill="#FFFFFF" d="M34.629,17.268c-1.935,0-3.474-1.519-3.469-3.414c0.005-1.922,1.549-3.438,3.5-3.434    c1.912,0.004,3.471,1.54,3.478,3.428C38.143,15.756,36.592,17.27,34.629,17.268z"/>
	</g>
</g>
</svg>