<?xml version="1.0" encoding="UTF-8"?>
<!-- Generator: Adobe Illustrator 16.0.0, SVG Export Plug-In . SVG Version: 6.00 Build 0)  -->
<!DOCTYPE svg PUBLIC "-//W3C//DTD SVG 1.1//EN" "http://www.w3.org/Graphics/SVG/1.1/DTD/svg11.dtd">
<svg version="1.1" id="Layer_1" xmlns="http://www.w3.org/2000/svg" xmlns:xlink="http://www.w3.org/1999/xlink" x="0px" y="0px" width="222.654px" height="26px" viewBox="0 0 222.654 26" enable-background="new 0 0 222.654 26" xml:space="preserve">
<g>
	<g>
		<path fill="#00263E" d="M50.046,7.084V2.868h0.819v4.165c0,1.575,0.818,2.445,2.217,2.445c1.337,0,2.187-0.808,2.187-2.393V2.868    h0.818v4.155c0,2.124-1.212,3.211-3.025,3.211C51.269,10.234,50.046,9.136,50.046,7.084z"/>
		<path fill="#00263E" d="M57.681,4.764h0.798v0.933c0.362-0.581,0.912-1.047,1.833-1.047c1.285,0,2.052,0.871,2.052,2.145v3.326    h-0.798V6.991c0-0.995-0.528-1.616-1.481-1.616c-0.922,0-1.606,0.673-1.606,1.678v3.067h-0.798V4.764z"/>
		<path fill="#00263E" d="M63.876,2.712h0.912v0.88h-0.912V2.712z M63.928,4.764h0.798v5.356h-0.798V4.764z"/>
		<path fill="#00263E" d="M65.844,4.764h0.88l1.803,4.445l1.813-4.445h0.86l-2.331,5.398h-0.705L65.844,4.764z"/>
		<path fill="#00263E" d="M72.723,7.768c0.114,1.129,0.943,1.782,1.886,1.782c0.746,0,1.243-0.3,1.688-0.756l0.498,0.445    c-0.539,0.611-1.181,1.005-2.207,1.005c-1.461,0-2.673-1.129-2.673-2.797c0-1.554,1.078-2.798,2.569-2.798    c1.585,0,2.497,1.264,2.497,2.839c0,0.073,0,0.156-0.01,0.28H72.723z M76.173,7.126c-0.083-0.964-0.663-1.803-1.709-1.803    c-0.912,0-1.627,0.767-1.741,1.803H76.173z"/>
		<path fill="#00263E" d="M78.172,4.764h0.798v1.398c0.394-0.891,1.17-1.523,2.186-1.492v0.86h-0.062    c-1.17,0-2.124,0.839-2.124,2.456v2.134h-0.798V4.764z"/>
		<path fill="#00263E" d="M81.715,9.437l0.404-0.57c0.58,0.445,1.223,0.684,1.854,0.684c0.653,0,1.108-0.321,1.108-0.85V8.68    c0-0.529-0.632-0.746-1.336-0.943c-0.829-0.249-1.771-0.518-1.771-1.513V6.204c0-0.922,0.767-1.533,1.823-1.533    c0.663,0,1.378,0.228,1.927,0.59l-0.363,0.601c-0.497-0.321-1.057-0.518-1.585-0.518c-0.632,0-1.036,0.332-1.036,0.777v0.021    c0,0.508,0.663,0.705,1.378,0.922c0.829,0.249,1.72,0.57,1.72,1.534v0.021c0,1.016-0.839,1.606-1.906,1.606    C83.155,10.224,82.326,9.923,81.715,9.437z"/>
		<path fill="#00263E" d="M87.133,2.712h0.912v0.88h-0.912V2.712z M87.184,4.764h0.798v5.356h-0.798V4.764z"/>
		<path fill="#00263E" d="M89.318,7.458V7.437c0-1.74,1.274-2.787,2.559-2.787c0.995,0,1.637,0.529,2.052,1.14V2.557h0.797v7.563    h-0.797V9.042c-0.446,0.643-1.057,1.191-2.052,1.191C90.593,10.234,89.318,9.219,89.318,7.458z M93.96,7.447V7.426    c0-1.233-0.943-2.062-1.938-2.062c-1.036,0-1.885,0.767-1.885,2.062v0.021c0,1.274,0.86,2.072,1.885,2.072    C93.017,9.519,93.96,8.68,93.96,7.447z"/>
		<path fill="#00263E" d="M95.896,8.566V8.545c0-1.15,0.933-1.751,2.29-1.751c0.694,0,1.15,0.093,1.637,0.228V6.856    c0-0.953-0.58-1.451-1.585-1.451c-0.632,0-1.129,0.146-1.627,0.384l-0.238-0.653c0.591-0.28,1.161-0.456,1.948-0.456    c0.756,0,1.337,0.197,1.73,0.591c0.373,0.373,0.56,0.901,0.56,1.575v3.274h-0.788V9.322c-0.373,0.487-0.984,0.912-1.927,0.912    C96.891,10.234,95.896,9.675,95.896,8.566z M99.833,8.151V7.654c-0.404-0.114-0.901-0.228-1.564-0.228    c-0.995,0-1.564,0.425-1.564,1.078v0.021c0,0.674,0.632,1.067,1.347,1.067C99.036,9.592,99.833,9.012,99.833,8.151z"/>
		<path fill="#00263E" d="M101.781,7.458V7.437c0-1.74,1.274-2.787,2.559-2.787c0.995,0,1.637,0.529,2.052,1.14V2.557h0.797v7.563    h-0.797V9.042c-0.446,0.643-1.057,1.191-2.052,1.191C103.055,10.234,101.781,9.219,101.781,7.458z M106.422,7.447V7.426    c0-1.233-0.943-2.062-1.938-2.062c-1.036,0-1.885,0.767-1.885,2.062v0.021c0,1.274,0.86,2.072,1.885,2.072    C105.479,9.519,106.422,8.68,106.422,7.447z"/>
		<path fill="#00263E" d="M111.799,2.868h0.767l4.568,5.812V2.868h0.798v7.252h-0.652l-4.683-5.947v5.947h-0.798V2.868z"/>
		<path fill="#00263E" d="M119.236,8.566V8.545c0-1.15,0.933-1.751,2.29-1.751c0.693,0,1.149,0.093,1.637,0.228V6.856    c0-0.953-0.58-1.451-1.585-1.451c-0.633,0-1.13,0.146-1.627,0.384l-0.238-0.653c0.591-0.28,1.16-0.456,1.947-0.456    c0.757,0,1.337,0.197,1.73,0.591c0.373,0.373,0.56,0.901,0.56,1.575v3.274h-0.787V9.322c-0.373,0.487-0.984,0.912-1.927,0.912    C120.23,10.234,119.236,9.675,119.236,8.566z M123.173,8.151V7.654c-0.403-0.114-0.901-0.228-1.564-0.228    c-0.994,0-1.564,0.425-1.564,1.078v0.021c0,0.674,0.633,1.067,1.348,1.067C122.376,9.592,123.173,9.012,123.173,8.151z"/>
		<path fill="#00263E" d="M125.099,7.468V7.447c0-1.523,1.171-2.798,2.746-2.798c1.015,0,1.637,0.415,2.145,0.954l-0.528,0.559    c-0.425-0.445-0.892-0.808-1.627-0.808c-1.088,0-1.917,0.912-1.917,2.072v0.021c0,1.16,0.85,2.083,1.969,2.083    c0.694,0,1.212-0.342,1.637-0.798l0.508,0.477c-0.538,0.611-1.181,1.036-2.186,1.036C126.27,10.245,125.099,8.97,125.099,7.468z"/>
		<path fill="#00263E" d="M131.161,2.712h0.911v0.88h-0.911V2.712z M131.213,4.764h0.798v5.356h-0.798V4.764z"/>
		<path fill="#00263E" d="M133.325,7.468V7.447c0-1.523,1.171-2.798,2.797-2.798c1.616,0,2.787,1.264,2.787,2.777v0.021    c0,1.523-1.191,2.797-2.808,2.797C134.496,10.245,133.325,8.98,133.325,7.468z M138.091,7.468V7.447    c0-1.15-0.859-2.093-1.989-2.093c-1.16,0-1.958,0.943-1.958,2.072v0.021c0,1.15,0.85,2.083,1.979,2.083    C137.283,9.53,138.091,8.587,138.091,7.468z"/>
		<path fill="#00263E" d="M140.141,4.764h0.798v0.933c0.363-0.581,0.912-1.047,1.834-1.047c1.285,0,2.052,0.871,2.052,2.145v3.326    h-0.798V6.991c0-0.995-0.528-1.616-1.481-1.616c-0.922,0-1.606,0.673-1.606,1.678v3.067h-0.798V4.764z"/>
		<path fill="#00263E" d="M145.912,8.566V8.545c0-1.15,0.932-1.751,2.289-1.751c0.694,0,1.15,0.093,1.638,0.228V6.856    c0-0.953-0.581-1.451-1.586-1.451c-0.632,0-1.129,0.146-1.626,0.384l-0.238-0.653c0.59-0.28,1.16-0.456,1.947-0.456    c0.757,0,1.337,0.197,1.73,0.591c0.373,0.373,0.56,0.901,0.56,1.575v3.274h-0.787V9.322c-0.373,0.487-0.984,0.912-1.928,0.912    C146.906,10.234,145.912,9.675,145.912,8.566z M149.848,8.151V7.654c-0.404-0.114-0.901-0.228-1.564-0.228    c-0.994,0-1.564,0.425-1.564,1.078v0.021c0,0.674,0.632,1.067,1.347,1.067C149.051,9.592,149.848,9.012,149.848,8.151z"/>
		<path fill="#00263E" d="M152.179,2.557h0.798v7.563h-0.798V2.557z"/>
		<path fill="#00263E" d="M157.214,7.458V7.437c0-1.74,1.274-2.787,2.56-2.787c0.994,0,1.637,0.529,2.051,1.14V2.557h0.798v7.563    h-0.798V9.042c-0.445,0.643-1.057,1.191-2.051,1.191C158.488,10.234,157.214,9.219,157.214,7.458z M161.855,7.447V7.426    c0-1.233-0.942-2.062-1.938-2.062c-1.036,0-1.886,0.767-1.886,2.062v0.021c0,1.274,0.86,2.072,1.886,2.072    C160.913,9.519,161.855,8.68,161.855,7.447z"/>
		<path fill="#00263E" d="M164.673,7.768c0.114,1.129,0.943,1.782,1.886,1.782c0.746,0,1.243-0.3,1.689-0.756l0.497,0.445    c-0.539,0.611-1.182,1.005-2.207,1.005c-1.461,0-2.673-1.129-2.673-2.797c0-1.554,1.077-2.798,2.569-2.798    c1.585,0,2.497,1.264,2.497,2.839c0,0.073,0,0.156-0.011,0.28H164.673z M168.123,7.126c-0.083-0.964-0.663-1.803-1.709-1.803    c-0.912,0-1.627,0.767-1.741,1.803H168.123z"/>
		<path fill="#00263E" d="M173.156,2.868h3.119c0.901,0,1.605,0.27,2.062,0.725c0.362,0.363,0.56,0.85,0.56,1.43v0.021    c0,1.202-0.829,1.917-1.969,2.113l2.228,2.963h-1.005l-2.104-2.818h-0.021h-2.052v2.818h-0.818V2.868z M176.202,6.566    c1.078,0,1.865-0.56,1.865-1.492V5.054c0-0.901-0.684-1.43-1.854-1.43h-2.238v2.942H176.202z"/>
		<path fill="#00263E" d="M180.378,4.764h0.798v5.356h-0.798V4.764z M181.434,2.453l0.829,0.383l-1.171,1.119h-0.643L181.434,2.453z    "/>
		<path fill="#00263E" d="M182.491,7.468V7.447c0-1.523,1.171-2.798,2.797-2.798c1.616,0,2.787,1.264,2.787,2.777v0.021    c0,1.523-1.191,2.797-2.808,2.797C183.662,10.245,182.491,8.98,182.491,7.468z M187.257,7.468V7.447    c0-1.15-0.859-2.093-1.989-2.093c-1.16,0-1.958,0.943-1.958,2.072v0.021c0,1.15,0.85,2.083,1.979,2.083    C186.449,9.53,187.257,8.587,187.257,7.468z"/>
		<path fill="#00263E" d="M192.342,2.868h0.767l4.569,5.812V2.868h0.798v7.252h-0.652l-4.684-5.947v5.947h-0.798V2.868z"/>
		<path fill="#00263E" d="M200.661,7.768c0.114,1.129,0.943,1.782,1.886,1.782c0.746,0,1.243-0.3,1.689-0.756l0.497,0.445    c-0.539,0.611-1.182,1.005-2.207,1.005c-1.461,0-2.673-1.129-2.673-2.797c0-1.554,1.077-2.798,2.569-2.798    c1.585,0,2.497,1.264,2.497,2.839c0,0.073,0,0.156-0.011,0.28H200.661z M204.111,7.126c-0.083-0.964-0.663-1.803-1.709-1.803    c-0.912,0-1.627,0.767-1.741,1.803H204.111z"/>
		<path fill="#00263E" d="M206.048,11.053l0.362-0.622c0.622,0.445,1.285,0.684,2.062,0.684c1.191,0,1.948-0.653,1.948-1.906V8.576    c-0.467,0.622-1.119,1.129-2.104,1.129c-1.284,0-2.518-0.974-2.518-2.507V7.178c0-1.564,1.233-2.528,2.518-2.528    c1.005,0,1.647,0.498,2.093,1.078V4.764h0.798v4.424c0,0.829-0.238,1.451-0.684,1.896c-0.487,0.487-1.181,0.715-2.041,0.715    C207.581,11.798,206.762,11.55,206.048,11.053z M210.44,7.188V7.167c0-1.099-0.953-1.813-1.969-1.813    c-1.025,0-1.854,0.705-1.854,1.803v0.021c0,1.078,0.86,1.823,1.854,1.823C209.487,9.001,210.44,8.266,210.44,7.188z"/>
		<path fill="#00263E" d="M212.781,4.764h0.798v1.398c0.394-0.891,1.171-1.523,2.187-1.492v0.86h-0.062    c-1.171,0-2.124,0.839-2.124,2.456v2.134h-0.798V4.764z"/>
		<path fill="#00263E" d="M216.438,7.468V7.447c0-1.523,1.171-2.798,2.797-2.798c1.616,0,2.787,1.264,2.787,2.777v0.021    c0,1.523-1.191,2.797-2.808,2.797C217.609,10.245,216.438,8.98,216.438,7.468z M221.204,7.468V7.447    c0-1.15-0.859-2.093-1.989-2.093c-1.16,0-1.958,0.943-1.958,2.072v0.021c0,1.15,0.85,2.083,1.979,2.083    C220.396,9.53,221.204,8.587,221.204,7.468z"/>
		<path fill="#ED1748" d="M49.508,22.503l0.943-1.13c0.663,0.539,1.336,0.881,2.166,0.881c0.663,0,1.046-0.259,1.046-0.684V21.55    c0-0.404-0.249-0.622-1.461-0.922c-1.471-0.363-2.404-0.788-2.404-2.218V18.39c0-1.315,1.046-2.187,2.539-2.187    c1.067,0,1.948,0.332,2.693,0.923l-0.829,1.201c-0.653-0.445-1.264-0.715-1.886-0.715s-0.933,0.27-0.933,0.632v0.021    c0,0.486,0.311,0.621,1.564,0.953c1.472,0.394,2.3,0.911,2.3,2.176v0.021c0,1.44-1.098,2.248-2.663,2.248    C51.476,23.663,50.378,23.29,49.508,22.503z"/>
		<path fill="#ED1748" d="M56.199,20.814v-0.021c0-1.585,1.129-2.891,2.746-2.891c1.854,0,2.704,1.44,2.704,3.016    c0,0.124-0.01,0.259-0.021,0.414h-3.865c0.156,0.715,0.653,1.088,1.357,1.088c0.528,0,0.901-0.166,1.347-0.57l0.901,0.798    c-0.528,0.653-1.264,1.036-2.269,1.036C57.432,23.684,56.199,22.513,56.199,20.814z M60.116,20.348    c-0.093-0.704-0.508-1.181-1.171-1.181s-1.078,0.466-1.202,1.181H60.116z"/>
		<path fill="#ED1748" d="M62.571,20.793v-0.021c0-1.854,1.212-2.87,2.528-2.87c0.839,0,1.357,0.384,1.73,0.829v-2.735h1.575v7.563    h-1.575v-0.798c-0.384,0.528-0.902,0.901-1.73,0.901C63.804,23.663,62.571,22.647,62.571,20.793z M66.85,20.793v-0.021    c0-0.922-0.611-1.533-1.347-1.533c-0.736,0-1.357,0.601-1.357,1.533v0.021c0,0.923,0.622,1.533,1.357,1.533    C66.239,22.326,66.85,21.716,66.85,20.793z"/>
		<path fill="#ED1748" d="M69.543,20.814v-0.021c0-1.585,1.129-2.891,2.746-2.891c1.854,0,2.704,1.44,2.704,3.016    c0,0.124-0.01,0.259-0.021,0.414h-3.865c0.155,0.715,0.653,1.088,1.357,1.088c0.528,0,0.901-0.166,1.347-0.57l0.901,0.798    c-0.528,0.653-1.264,1.036-2.269,1.036C70.776,23.684,69.543,22.513,69.543,20.814z M73.459,20.348    c-0.093-0.704-0.508-1.181-1.171-1.181s-1.078,0.466-1.202,1.181H73.459z"/>
		<path fill="#ED1748" d="M81.923,16.255h1.471l3.108,7.305h-1.668l-0.663-1.627h-3.066l-0.663,1.627h-1.627L81.923,16.255z     M83.601,20.523l-0.963-2.352l-0.963,2.352H83.601z"/>
		<path fill="#ED1748" d="M87.454,18.006h1.575v0.788c0.363-0.467,0.839-0.892,1.626-0.892c1.202,0,1.886,0.777,1.886,2.062v3.595    h-1.575v-3.098c0-0.746-0.342-1.13-0.953-1.13s-0.984,0.384-0.984,1.13v3.098h-1.575V18.006z"/>
		<path fill="#ED1748" d="M93.659,20.793v-0.021c0-1.854,1.212-2.87,2.528-2.87c0.839,0,1.357,0.384,1.73,0.829v-2.735h1.575v7.563    h-1.575v-0.798c-0.384,0.528-0.901,0.901-1.73,0.901C94.892,23.663,93.659,22.647,93.659,20.793z M97.938,20.793v-0.021    c0-0.922-0.611-1.533-1.347-1.533c-0.736,0-1.357,0.601-1.357,1.533v0.021c0,0.923,0.622,1.533,1.357,1.533    C97.327,22.326,97.938,21.716,97.938,20.793z"/>
		<path fill="#ED1748" d="M100.932,15.996h1.658v1.398h-1.658V15.996z M100.973,18.006h1.575v5.554h-1.575V18.006z"/>
		<path fill="#ED1748" d="M104.029,18.006h1.575v0.788c0.363-0.467,0.839-0.892,1.626-0.892c1.202,0,1.886,0.777,1.886,2.062v3.595    h-1.575v-3.098c0-0.746-0.342-1.13-0.953-1.13s-0.984,0.384-0.984,1.13v3.098h-1.575V18.006z"/>
		<path fill="#ED1748" d="M110.151,21.964v-0.021c0-1.202,0.922-1.771,2.237-1.771c0.57,0,0.953,0.093,1.357,0.228v-0.093    c0-0.663-0.404-1.016-1.191-1.016c-0.611,0-1.025,0.104-1.533,0.301l-0.394-1.202c0.611-0.259,1.212-0.445,2.154-0.445    c0.871,0,1.472,0.218,1.876,0.621c0.414,0.415,0.601,1.026,0.601,1.771v3.223h-1.522v-0.601c-0.384,0.425-0.901,0.704-1.679,0.704    C111.011,23.663,110.151,23.072,110.151,21.964z M113.766,21.602v-0.28c-0.279-0.124-0.621-0.207-1.005-0.207    c-0.673,0-1.087,0.27-1.087,0.767v0.021c0,0.425,0.352,0.674,0.86,0.674C113.28,22.575,113.766,22.182,113.766,21.602z"/>
	</g>
	<g>
		<path fill="#ED1748" d="M5.462,17.329c-0.195-0.335-0.238-0.643,0.006-1.008c0.129-0.193,0.031-0.528,0.077-0.79    c0.063-0.366,0.169-0.727,0.26-1.09c0.015-0.045,0.061-0.086,0.061-0.13c0.027-0.51,0.375-0.932,0.346-1.471    c-0.02-0.393,0.081-0.805,0.194-1.187c0.322-1.08,0.123-2.191,0.235-3.283c0.037-0.344,0.185-0.677,0.21-1.021    c0.062-0.913,0.13-1.825,0.115-2.741c-0.01-0.634-0.51-0.946-1.135-0.848C5.053,3.886,4.36,4.196,3.643,4.523    C2.908,4.858,2.259,5.31,1.553,5.677C1.043,5.942,0.338,5.828,0,5.446C0.248,5.221,0.48,4.969,0.751,4.77    c1.002-0.737,2.001-1.481,3.034-2.179c0.938-0.635,1.902-1.235,2.879-1.809c0.259-0.148,0.596-0.198,0.901-0.21    c0.485-0.019,0.971,0.03,1.456,0.061c0.082,0.005,0.211,0.03,0.229,0.081c0.215,0.591,0.813,0.986,0.802,1.704    c-0.006,0.505-0.041,0.964-0.233,1.445c-0.136,0.331-0.055,0.745-0.089,1.12c-0.047,0.496-0.12,0.991-0.163,1.487    C9.525,6.94,9.572,7.43,9.466,7.888C9.303,8.59,9.038,9.269,8.833,9.961c-0.026,0.092,0.076,0.214,0.07,0.32    c-0.017,0.292-0.064,0.584-0.088,0.876c-0.014,0.213-0.002,0.427-0.002,0.701c-0.417,0.12-0.266,0.559-0.325,0.91    c-0.064,0.372-0.116,0.747-0.17,1.121c-0.124,0.837-0.195,1.691-0.385,2.521c-0.309,1.376-0.172,2.752,0.03,4.106    c0.144,0.962,0.682,1.766,1.639,2.147c0.244,0.098,0.564,0.012,0.851,0.009c0.205-0.002,0.412,0,0.617-0.016    c0.076-0.005,0.16-0.042,0.225-0.087c1.104-0.752,1.955-1.716,2.525-2.924c0.079-0.166,0.159-0.336,0.265-0.482    c0.774-1.029,1.151-2.249,1.665-3.402c0.4-0.897,0.958-1.727,1.416-2.594c0.157-0.297,0.306-0.627,0.337-0.954    c0.081-0.918,0.591-1.661,0.984-2.433c0.644-1.251,0.79-2.639,1.227-3.943c-0.234-0.76,0.339-1.326,0.478-1.998    c0.144-0.678,0.304-1.353,0.444-2.032c0.053-0.244,0.195-0.299,0.43-0.342c0.556-0.104,1.105-0.278,1.657-0.408    c0.437-0.103,0.879-0.183,1.42-0.296c-0.052,0.678-0.097,1.293-0.146,1.912c-0.011,0.12-0.042,0.237-0.043,0.358    c-0.008,0.584-0.001,1.165-0.015,1.747c-0.021,1.038-0.275,2.079,0.117,3.104c0.05,0.132,0.03,0.291,0.021,0.434    c-0.034,0.799-0.102,1.6-0.111,2.399c-0.011,0.672,0.051,1.341,0.081,2.013c0,0.036,0.013,0.073,0.011,0.11    c-0.024,0.404-0.207,0.768,0.015,1.219c0.2,0.404,0.17,0.926,0.229,1.396c0.072,0.57,0.072,1.157,0.212,1.706    c0.183,0.706,0.076,1.477,0.562,2.119c0.833,1.108,1.116,2.505,1.874,3.655c0.159,0.242,0.388,0.459,0.631,0.622    c0.61,0.412,1.27,0.582,2.008,0.333c0.256-0.086,0.554-0.187,0.756,0.187c-0.254,0.342-0.479,0.712-0.974,0.831    c-0.602,0.145-1.18,0.412-1.787,0.505c-0.411,0.062-0.873-0.023-1.278-0.149c-0.512-0.158-0.973-0.397-1.366-0.845    c-0.35-0.4-0.949-0.577-1.427-0.873c-0.138-0.086-0.274-0.219-0.337-0.358c-0.376-0.911-0.959-1.665-1.618-2.385    c-0.132-0.142-0.188-0.347-0.276-0.53c-0.019-0.028-0.015-0.07-0.027-0.103c-0.417-0.922-0.632-1.917-0.981-2.871    c-0.12-0.326,0.018-0.75,0.039-1.127c0.005-0.079,0.037-0.158,0.023-0.232c-0.167-1.205-0.339-2.406-0.509-3.611    c-0.006-0.045-0.011-0.091-0.011-0.091c-0.51,0.768-1.035,1.554-1.546,2.349c-0.061,0.097-0.061,0.23-0.089,0.346    c-0.023,0.079-0.04,0.212-0.088,0.225c-0.371,0.098-0.299,0.383-0.305,0.645c-0.002,0.103-0.021,0.224-0.071,0.312    c-0.262,0.479-0.547,0.95-0.8,1.43c-0.195,0.366-0.393,0.733-0.532,1.122c-0.359,1.009-0.983,1.861-1.619,2.689    c-0.654,0.848-1.426,1.606-2.147,2.403c-0.017,0.019-0.032,0.037-0.053,0.051c-1.041,0.55-1.92,1.448-3.21,1.441    c-0.132,0-0.268,0.03-0.39,0.077c-0.26,0.103-0.463,0.051-0.666-0.138c-0.075-0.065-0.223-0.056-0.337-0.076    c-0.083-0.015-0.172,0-0.249-0.03c-0.433-0.163-0.877-0.306-1.291-0.511c-0.414-0.2-0.742-0.51-0.835-0.998    c-0.021-0.103-0.041-0.25-0.115-0.301c-0.575-0.396-0.479-1.041-0.602-1.593c-0.061-0.272-0.046-0.568-0.13-0.833    c-0.191-0.597-0.135-1.174,0.054-1.756c0.015-0.03,0.014-0.084,0.035-0.101c0.364-0.305,0.189-0.647,0.104-0.999    c-0.021-0.091,0.026-0.228,0.095-0.305C5.138,17.56,5.289,17.469,5.462,17.329z"/>
		<path fill="#ED1748" d="M34.629,17.267c-1.935,0-3.474-1.518-3.469-3.414c0.005-1.923,1.549-3.438,3.5-3.433    c1.912,0.004,3.471,1.54,3.476,3.428C38.143,15.756,36.592,17.269,34.629,17.267z"/>
	</g>
</g>
</svg>