<?xml version="1.0" encoding="UTF-8" standalone="no"?>
<svg
   xmlns:dc="http://purl.org/dc/elements/1.1/"
   xmlns:cc="http://creativecommons.org/ns#"
   xmlns:rdf="http://www.w3.org/1999/02/22-rdf-syntax-ns#"
   xmlns:svg="http://www.w3.org/2000/svg"
   xmlns="http://www.w3.org/2000/svg"
   xmlns:sodipodi="http://sodipodi.sourceforge.net/DTD/sodipodi-0.dtd"
   xmlns:inkscape="http://www.inkscape.org/namespaces/inkscape"
   version="1.1"
   id="Layer_1"
   x="0px"
   y="0px"
   width="39.268013"
   height="26.085934"
   viewBox="0 0 39.268012 26.085934"
   enable-background="new 0 0 157.203 26"
   xml:space="preserve"
   sodipodi:docname="UNRN.svg"
   inkscape:version="1.0.1 (3bc2e813f5, 2020-09-07)"><metadata
   id="metadata79"><rdf:RDF><cc:Work
       rdf:about=""><dc:format>image/svg+xml</dc:format><dc:type
         rdf:resource="http://purl.org/dc/dcmitype/StillImage" /><dc:title></dc:title></cc:Work></rdf:RDF></metadata><defs
   id="defs77">
	
	
	
	
</defs><sodipodi:namedview
   pagecolor="#ffffff"
   bordercolor="#666666"
   borderopacity="1"
   objecttolerance="10"
   gridtolerance="10"
   guidetolerance="10"
   inkscape:pageopacity="0"
   inkscape:pageshadow="2"
   inkscape:window-width="1864"
   inkscape:window-height="1016"
   id="namedview75"
   showgrid="false"
   fit-margin-top="0.7"
   fit-margin-left="0.7"
   fit-margin-right="0.7"
   fit-margin-bottom="0.7"
   lock-margins="true"
   inkscape:zoom="4.1824901"
   inkscape:cx="46.808183"
   inkscape:cy="29.506345"
   inkscape:window-x="56"
   inkscape:window-y="27"
   inkscape:window-maximized="1"
   inkscape:current-layer="Layer_1" />
<g
   id="g70"
   transform="translate(0.7,0.04393286)">
		<path
   fill="#ed1748"
   d="M 5.424,17.298 C 5.232,16.966 5.188,16.659 5.431,16.296 5.559,16.108 5.461,15.774 5.507,15.514 5.569,15.151 5.674,14.792 5.766,14.434 5.78,14.386 5.827,14.348 5.827,14.302 5.854,13.796 6.2,13.377 6.171,12.841 6.15,12.452 6.251,12.043 6.363,11.663 6.682,10.59 6.484,9.488 6.596,8.404 6.631,8.062 6.777,7.731 6.803,7.39 6.865,6.483 6.932,5.578 6.915,4.669 6.906,4.038 6.41,3.729 5.79,3.827 5.017,3.951 4.33,4.259 3.618,4.583 2.888,4.918 2.243,5.365 1.542,5.728 1.037,5.992 0.337,5.878 0,5.499 0.247,5.275 0.479,5.025 0.745,4.828 1.741,4.096 2.733,3.358 3.758,2.665 4.69,2.034 5.646,1.437 6.616,0.867 6.873,0.721 7.208,0.673 7.512,0.661 7.991,0.64 8.475,0.691 8.956,0.721 9.036,0.725 9.165,0.751 9.184,0.8 9.398,1.388 9.992,1.78 9.98,2.492 9.974,2.994 9.94,3.448 9.749,3.927 9.613,4.255 9.693,4.667 9.66,5.038 9.613,5.532 9.54,6.022 9.497,6.515 9.457,6.982 9.504,7.469 9.399,7.923 9.237,8.62 8.974,9.293 8.77,9.983 c -0.025,0.09 0.076,0.213 0.068,0.317 -0.017,0.289 -0.062,0.58 -0.086,0.871 -0.015,0.211 -0.004,0.422 -0.004,0.695 -0.412,0.119 -0.263,0.555 -0.32,0.903 -0.064,0.368 -0.115,0.742 -0.171,1.114 -0.123,0.832 -0.193,1.678 -0.383,2.502 -0.307,1.367 -0.17,2.732 0.03,4.078 0.143,0.955 0.677,1.752 1.627,2.131 0.242,0.098 0.56,0.014 0.845,0.01 0.203,-0.002 0.408,0 0.612,-0.016 0.076,-0.006 0.158,-0.043 0.224,-0.086 1.096,-0.748 1.94,-1.703 2.508,-2.904 0.077,-0.164 0.158,-0.334 0.264,-0.479 0.769,-1.023 1.144,-2.232 1.653,-3.377 0.396,-0.893 0.949,-1.715 1.404,-2.579 0.155,-0.295 0.305,-0.622 0.334,-0.946 0.082,-0.912 0.588,-1.648 0.979,-2.414 0.64,-1.244 0.784,-2.621 1.219,-3.917 C 19.339,5.132 19.908,4.57 20.047,3.903 20.191,3.231 20.349,2.56 20.487,1.886 20.539,1.642 20.68,1.589 20.914,1.547 21.466,1.442 22.012,1.27 22.56,1.141 22.994,1.039 23.432,0.958 23.969,0.847 23.916,1.52 23.872,2.131 23.824,2.744 23.813,2.864 23.782,2.98 23.781,3.099 23.772,3.68 23.779,4.257 23.765,4.833 c -0.021,1.031 -0.272,2.065 0.115,3.081 0.05,0.133 0.028,0.29 0.021,0.432 -0.033,0.793 -0.102,1.589 -0.11,2.384 -0.01,0.667 0.051,1.332 0.081,1.999 0,0.035 0.015,0.071 0.012,0.107 -0.024,0.402 -0.204,0.764 0.015,1.211 0.199,0.4 0.169,0.918 0.229,1.387 0.071,0.564 0.07,1.146 0.21,1.693 0.182,0.701 0.074,1.465 0.558,2.104 0.829,1.102 1.107,2.488 1.86,3.629 0.158,0.24 0.386,0.455 0.627,0.619 0.604,0.408 1.262,0.576 1.993,0.33 0.254,-0.086 0.55,-0.186 0.752,0.186 -0.253,0.34 -0.477,0.707 -0.969,0.826 -0.598,0.145 -1.172,0.408 -1.774,0.5 -0.406,0.062 -0.864,-0.021 -1.268,-0.148 -0.509,-0.154 -0.967,-0.393 -1.355,-0.838 -0.35,-0.396 -0.943,-0.572 -1.417,-0.861 -0.139,-0.09 -0.273,-0.221 -0.336,-0.359 -0.375,-0.906 -0.952,-1.652 -1.606,-2.365 -0.13,-0.143 -0.187,-0.348 -0.273,-0.527 -0.019,-0.029 -0.015,-0.068 -0.025,-0.102 -0.414,-0.918 -0.628,-1.906 -0.976,-2.852 -0.12,-0.324 0.019,-0.744 0.038,-1.117 0.005,-0.078 0.037,-0.16 0.022,-0.234 -0.165,-1.195 -0.337,-2.389 -0.505,-3.584 -0.007,-0.045 -0.012,-0.09 -0.012,-0.09 -0.507,0.763 -1.027,1.542 -1.534,2.33 -0.062,0.101 -0.062,0.229 -0.09,0.347 -0.021,0.078 -0.039,0.211 -0.087,0.224 -0.368,0.099 -0.298,0.381 -0.303,0.642 -0.002,0.102 -0.021,0.221 -0.071,0.309 -0.26,0.478 -0.543,0.943 -0.794,1.421 -0.193,0.362 -0.391,0.729 -0.527,1.112 -0.355,1.002 -0.977,1.851 -1.606,2.672 -0.649,0.843 -1.417,1.597 -2.133,2.386 -0.018,0.019 -0.031,0.039 -0.053,0.051 -1.032,0.547 -1.906,1.438 -3.188,1.431 -0.131,0 -0.266,0.032 -0.388,0.078 C 8.641,25.35 8.439,25.298 8.238,25.111 8.164,25.046 8.016,25.051 7.903,25.035 7.821,25.021 7.732,25.033 7.656,25.005 7.226,24.845 6.786,24.701 6.375,24.499 5.964,24.298 5.64,23.99 5.546,23.507 5.525,23.403 5.505,23.259 5.432,23.21 4.863,22.816 4.956,22.177 4.834,21.626 4.774,21.355 4.789,21.064 4.705,20.8 4.517,20.208 4.571,19.636 4.759,19.056 c 0.016,-0.03 0.015,-0.079 0.035,-0.1 0.361,-0.302 0.188,-0.642 0.104,-0.99 -0.021,-0.092 0.025,-0.229 0.094,-0.304 0.11,-0.135 0.261,-0.224 0.432,-0.364 z"
   id="path66" />
		<path
   fill="#ed1748"
   d="m 34.384,17.236 c -1.921,0 -3.448,-1.508 -3.442,-3.391 0.005,-1.913 1.536,-3.415 3.476,-3.41 1.896,0.003 3.445,1.529 3.45,3.405 0.005,1.894 -1.536,3.396 -3.484,3.396 z"
   id="path68" />
	</g>
</svg>
