<?xml version="1.0" encoding="UTF-8" standalone="no"?>
<!-- Generator: Adobe Illustrator 16.0.0, SVG Export Plug-In . SVG Version: 6.00 Build 0)  -->

<svg
   xmlns:dc="http://purl.org/dc/elements/1.1/"
   xmlns:cc="http://creativecommons.org/ns#"
   xmlns:rdf="http://www.w3.org/1999/02/22-rdf-syntax-ns#"
   xmlns:svg="http://www.w3.org/2000/svg"
   xmlns="http://www.w3.org/2000/svg"
   xmlns:sodipodi="http://sodipodi.sourceforge.net/DTD/sodipodi-0.dtd"
   xmlns:inkscape="http://www.inkscape.org/namespaces/inkscape"
   version="1.1"
   id="Layer_1"
   x="0px"
   y="0px"
   width="161.311"
   height="29.931999"
   viewBox="0 0 161.311 29.932"
   enable-background="new 0 0 157.311 25.932"
   xml:space="preserve"
   sodipodi:docname="header_logo_unrn_rojo.svg"
   inkscape:export-filename="C:\Users\Martin\Downloads\header_logo_unrn_blanco.Rjo.png"
   inkscape:export-xdpi="159"
   inkscape:export-ydpi="159"
   inkscape:version="0.92.1 r15371"><metadata
     id="metadata73"><rdf:RDF><cc:Work
         rdf:about=""><dc:format>image/svg+xml</dc:format><dc:type
           rdf:resource="http://purl.org/dc/dcmitype/StillImage" /><dc:title></dc:title></cc:Work></rdf:RDF></metadata><defs
     id="defs71" /><sodipodi:namedview
     pagecolor="#ffffff"
     bordercolor="#666666"
     borderopacity="1"
     objecttolerance="10"
     gridtolerance="10"
     guidetolerance="10"
     inkscape:pageopacity="0"
     inkscape:pageshadow="2"
     inkscape:window-width="1920"
     inkscape:window-height="1018"
     id="namedview69"
     showgrid="false"
     inkscape:zoom="5.1602149"
     inkscape:cx="72.297541"
     inkscape:cy="10.837835"
     inkscape:window-x="1042"
     inkscape:window-y="272"
     inkscape:window-maximized="1"
     inkscape:current-layer="Layer_1" /><rect
     x="256.89301"
     y="121.778"
     width="1.318"
     height="27.697001"
     id="rect2"
     style="fill:#5e5e5e" /><g
     style="fill:#eb2141;fill-opacity:1"
     id="g8"
     transform="translate(2.0075023,1.9999379)"
     inkscape:export-xdpi="2137.8206"
     inkscape:export-ydpi="2137.8206"><path
       inkscape:connector-curvature="0"
       style="fill:#eb2141;fill-opacity:1"
       id="path4"
       d="M 5.582,17.39 C 5.384,17.046 5.339,16.733 5.589,16.359 5.721,16.162 5.621,15.821 5.668,15.553 5.734,15.178 5.841,14.811 5.934,14.44 5.947,14.393 5.995,14.351 5.996,14.305 6.025,13.784 6.38,13.353 6.35,12.801 6.329,12.401 6.432,11.98 6.548,11.589 6.877,10.485 6.673,9.351 6.788,8.235 6.825,7.883 6.977,7.543 7.003,7.19 7.068,6.258 7.136,5.324 7.12,4.39 7.11,3.741 6.599,3.422 5.96,3.524 5.165,3.651 4.457,3.967 3.724,4.302 2.973,4.645 2.309,5.106 1.588,5.481 1.067,5.752 0.346,5.636 0,5.244 0.254,5.015 0.491,4.758 0.768,4.554 1.792,3.8 2.814,3.04 3.868,2.326 4.827,1.678 5.813,1.065 6.812,0.478 7.075,0.326 7.421,0.276 7.733,0.265 c 0.495,-0.02 0.992,0.03 1.488,0.06 0.082,0.005 0.214,0.032 0.232,0.082 0.22,0.604 0.831,1.008 0.821,1.744 -0.007,0.515 -0.042,0.984 -0.24,1.475 C 9.896,3.964 9.978,4.388 9.944,4.771 9.896,5.278 9.821,5.782 9.777,6.29 9.735,6.772 9.783,7.273 9.675,7.739 9.509,8.457 9.238,9.151 9.029,9.86 9.001,9.953 9.106,10.078 9.1,10.187 9.082,10.485 9.033,10.782 9.01,11.082 8.995,11.299 9.007,11.518 9.007,11.797 8.582,11.92 8.736,12.369 8.675,12.728 c -0.064,0.38 -0.118,0.763 -0.174,1.144 -0.127,0.858 -0.2,1.731 -0.392,2.576 -0.318,1.409 -0.176,2.813 0.03,4.2 0.146,0.983 0.697,1.802 1.675,2.192 0.25,0.101 0.576,0.013 0.869,0.011 0.21,-0.002 0.421,0 0.631,-0.017 0.078,-0.006 0.163,-0.044 0.229,-0.089 1.128,-0.766 1.998,-1.753 2.581,-2.989 0.08,-0.169 0.163,-0.343 0.273,-0.49 0.791,-1.054 1.176,-2.3 1.701,-3.48 0.409,-0.917 0.979,-1.763 1.447,-2.652 0.16,-0.304 0.314,-0.642 0.345,-0.975 0.083,-0.938 0.602,-1.697 1.006,-2.486 0.658,-1.279 0.806,-2.697 1.254,-4.029 -0.242,-0.779 0.344,-1.358 0.487,-2.043 0.147,-0.693 0.31,-1.383 0.454,-2.076 0.054,-0.25 0.199,-0.305 0.44,-0.35 0.569,-0.106 1.128,-0.284 1.693,-0.417 0.446,-0.105 0.898,-0.188 1.451,-0.303 -0.053,0.694 -0.099,1.323 -0.148,1.953 -0.011,0.123 -0.042,0.245 -0.044,0.368 -0.009,0.596 -0.002,1.19 -0.016,1.785 -0.021,1.061 -0.281,2.126 0.119,3.173 0.051,0.133 0.031,0.296 0.022,0.444 -0.038,0.816 -0.108,1.635 -0.118,2.453 -0.009,0.686 0.052,1.37 0.083,2.057 0.001,0.037 0.014,0.075 0.012,0.112 -0.025,0.413 -0.212,0.786 0.015,1.246 0.204,0.413 0.174,0.945 0.234,1.427 0.074,0.582 0.073,1.181 0.217,1.743 0.187,0.722 0.077,1.509 0.573,2.166 0.853,1.132 1.141,2.562 1.915,3.736 0.163,0.247 0.399,0.468 0.646,0.636 0.623,0.42 1.298,0.594 2.052,0.34 0.26,-0.089 0.566,-0.191 0.773,0.189 -0.26,0.35 -0.49,0.729 -0.996,0.851 -0.615,0.147 -1.206,0.421 -1.826,0.517 -0.42,0.063 -0.892,-0.026 -1.306,-0.155 -0.524,-0.162 -0.994,-0.405 -1.396,-0.864 -0.359,-0.407 -0.971,-0.589 -1.458,-0.891 -0.142,-0.087 -0.283,-0.223 -0.345,-0.368 -0.386,-0.929 -0.982,-1.701 -1.654,-2.434 -0.135,-0.146 -0.193,-0.357 -0.284,-0.542 -0.017,-0.031 -0.013,-0.073 -0.027,-0.106 -0.426,-0.944 -0.646,-1.961 -1.003,-2.933 -0.123,-0.334 0.019,-0.767 0.04,-1.153 0.005,-0.081 0.037,-0.163 0.025,-0.24 -0.171,-1.229 -0.347,-2.458 -0.521,-3.688 -0.006,-0.047 -0.012,-0.094 -0.012,-0.094 -0.519,0.785 -1.056,1.589 -1.58,2.401 -0.062,0.099 -0.06,0.237 -0.091,0.355 -0.023,0.08 -0.041,0.216 -0.088,0.229 -0.379,0.101 -0.306,0.392 -0.312,0.659 -0.002,0.106 -0.021,0.228 -0.073,0.319 -0.268,0.491 -0.559,0.971 -0.819,1.463 -0.199,0.373 -0.401,0.75 -0.543,1.146 -0.367,1.029 -1.003,1.902 -1.654,2.749 -0.668,0.866 -1.458,1.641 -2.194,2.454 -0.018,0.02 -0.033,0.04 -0.055,0.053 -1.061,0.562 -1.962,1.479 -3.28,1.474 -0.135,-10e-4 -0.275,0.03 -0.4,0.079 -0.264,0.104 -0.472,0.05 -0.679,-0.14 C 8.404,25.355 8.251,25.365 8.134,25.345 8.05,25.33 7.958,25.342 7.88,25.313 7.438,25.147 6.984,25.001 6.561,24.792 6.138,24.585 5.803,24.271 5.707,23.771 5.686,23.664 5.665,23.515 5.59,23.463 5.003,23.06 5.101,22.402 4.975,21.834 4.913,21.557 4.928,21.256 4.842,20.985 4.647,20.375 4.704,19.785 4.898,19.191 4.911,19.157 4.91,19.106 4.933,19.087 5.305,18.779 5.126,18.427 5.039,18.069 5.018,17.975 5.067,17.833 5.136,17.757 5.252,17.626 5.405,17.533 5.582,17.39 Z" /><path
       inkscape:connector-curvature="0"
       style="fill:#eb2141;fill-opacity:1"
       id="path6"
       d="m 35.393,17.326 c -1.978,0 -3.55,-1.549 -3.545,-3.489 0.005,-1.966 1.583,-3.514 3.577,-3.509 1.954,0.004 3.548,1.576 3.553,3.504 0.006,1.95 -1.579,3.495 -3.585,3.494 z" /></g><g
     style="fill:#eb2141;fill-opacity:1"
     id="g64"
     transform="translate(2.0075023,1.9999379)"><path
       inkscape:connector-curvature="0"
       style="fill:#eb2141;fill-opacity:1"
       id="path10"
       d="m 50.603,21.466 v -4.213 h 0.818 v 4.16 c 0,1.563 0.827,2.443 2.216,2.443 1.335,0 2.186,-0.81 2.186,-2.391 v -4.213 h 0.815 v 4.149 c 0,2.11 -1.212,3.207 -3.021,3.207 -1.792,0.004 -3.014,-1.093 -3.014,-3.142" /><path
       inkscape:connector-curvature="0"
       style="fill:#eb2141;fill-opacity:1"
       id="path12"
       d="m 58.432,19.149 h 0.798 v 0.93 c 0.352,-0.579 0.91,-1.044 1.833,-1.044 1.293,0 2.05,0.869 2.05,2.144 v 3.32 h -0.797 v -3.127 c 0,-0.993 -0.539,-1.615 -1.479,-1.615 -0.921,0 -1.605,0.675 -1.605,1.679 v 3.062 h -0.797 v -5.349 z" /><path
       inkscape:connector-curvature="0"
       style="fill:#eb2141;fill-opacity:1"
       id="path14"
       d="m 64.824,17.097 h 0.91 v 0.882 h -0.91 z m 0.052,2.052 h 0.796 v 5.349 h -0.796 z" /><polygon
       style="fill:#eb2141;fill-opacity:1"
       id="polygon16"
       points="71.489,19.149 72.346,19.149 70.018,24.539 69.314,24.539 66.997,19.149 67.877,19.149 69.677,23.586 " /><path
       inkscape:connector-curvature="0"
       style="fill:#eb2141;fill-opacity:1"
       id="path18"
       d="m 75.956,23.927 c 0.734,0 1.25,-0.298 1.684,-0.755 l 0.5,0.444 c -0.541,0.601 -1.188,1.004 -2.206,1.004 -1.471,0 -2.672,-1.127 -2.672,-2.795 0,-1.553 1.088,-2.794 2.568,-2.794 1.583,0 2.496,1.265 2.496,2.837 0,0.072 0,0.154 -0.013,0.279 h -4.242 c 0.114,1.131 0.941,1.78 1.885,1.78 m 1.56,-2.421 c -0.092,-0.974 -0.649,-1.803 -1.706,-1.803 -0.921,0 -1.625,0.767 -1.739,1.803 z" /><path
       inkscape:connector-curvature="0"
       style="fill:#eb2141;fill-opacity:1"
       id="path20"
       d="m 79.718,19.149 h 0.796 v 1.396 c 0.396,-0.892 1.17,-1.532 2.187,-1.49 v 0.857 h -0.062 c -1.17,0 -2.122,0.837 -2.122,2.453 v 2.131 h -0.798 v -5.347 z" /><path
       inkscape:connector-curvature="0"
       style="fill:#eb2141;fill-opacity:1"
       id="path22"
       d="m 83.462,23.813 0.404,-0.567 c 0.578,0.437 1.223,0.684 1.852,0.684 0.645,0 1.107,-0.331 1.107,-0.85 v -0.021 c 0,-0.539 -0.63,-0.746 -1.335,-0.941 -0.839,-0.236 -1.77,-0.528 -1.77,-1.511 v -0.022 c 0,-0.921 0.769,-1.529 1.822,-1.529 0.652,0 1.376,0.227 1.923,0.591 l -0.361,0.6 c -0.497,-0.32 -1.065,-0.518 -1.583,-0.518 -0.635,0 -1.032,0.332 -1.032,0.774 v 0.022 c 0,0.508 0.66,0.704 1.373,0.92 0.827,0.248 1.719,0.57 1.719,1.532 v 0.021 c 0,1.015 -0.837,1.605 -1.902,1.605 -0.767,0 -1.619,-0.302 -2.217,-0.79" /><path
       inkscape:connector-curvature="0"
       style="fill:#eb2141;fill-opacity:1"
       id="path24"
       d="m 89.076,17.097 h 0.913 v 0.882 h -0.913 z m 0.053,2.052 h 0.798 v 5.349 h -0.798 z" /><path
       inkscape:connector-curvature="0"
       style="fill:#eb2141;fill-opacity:1"
       id="path26"
       d="m 91.465,21.839 v -0.021 c 0,-1.749 1.273,-2.785 2.557,-2.785 0.992,0 1.639,0.538 2.052,1.138 v -3.229 h 0.798 v 7.555 h -0.798 v -1.075 c -0.438,0.642 -1.067,1.189 -2.052,1.189 -1.283,10e-4 -2.557,-1.015 -2.557,-2.772 m 4.638,-0.013 v -0.021 c 0,-1.232 -0.94,-2.061 -1.936,-2.061 -1.035,0 -1.887,0.767 -1.887,2.061 v 0.021 c 0,1.264 0.873,2.07 1.887,2.07 0.995,0.002 1.936,-0.837 1.936,-2.07" /><path
       inkscape:connector-curvature="0"
       style="fill:#eb2141;fill-opacity:1"
       id="path28"
       d="m 98.242,22.946 v -0.021 c 0,-1.148 0.929,-1.749 2.287,-1.749 0.68,0 1.156,0.094 1.634,0.229 v -0.166 c 0,-0.951 -0.58,-1.448 -1.583,-1.448 -0.633,0 -1.127,0.155 -1.628,0.382 l -0.237,-0.649 c 0.59,-0.271 1.162,-0.456 1.947,-0.456 0.755,0 1.343,0.207 1.725,0.591 0.38,0.372 0.564,0.891 0.564,1.572 v 3.271 h -0.786 V 23.7 c -0.374,0.478 -0.983,0.909 -1.928,0.909 -1.001,0.003 -1.995,-0.568 -1.995,-1.663 m 3.931,-0.415 v -0.497 c -0.394,-0.113 -0.911,-0.228 -1.562,-0.228 -0.995,0 -1.563,0.435 -1.563,1.076 v 0.021 c 0,0.674 0.621,1.065 1.346,1.065 0.982,0 1.779,-0.588 1.779,-1.437" /><path
       inkscape:connector-curvature="0"
       style="fill:#eb2141;fill-opacity:1"
       id="path30"
       d="m 104.324,21.839 v -0.021 c 0,-1.749 1.27,-2.785 2.554,-2.785 0.993,0 1.636,0.538 2.049,1.138 v -3.229 h 0.8 v 7.555 h -0.8 v -1.075 c -0.433,0.642 -1.062,1.189 -2.049,1.189 -1.282,10e-4 -2.554,-1.015 -2.554,-2.772 m 4.635,-0.013 v -0.021 c 0,-1.232 -0.939,-2.061 -1.935,-2.061 -1.036,0 -1.887,0.767 -1.887,2.061 v 0.021 c 0,1.264 0.87,2.07 1.887,2.07 0.994,0.002 1.935,-0.837 1.935,-2.07" /><polygon
       style="fill:#eb2141;fill-opacity:1"
       id="polygon32"
       points="120.067,23.06 120.067,17.253 120.863,17.253 120.863,24.496 120.212,24.496 115.534,18.558 115.534,24.496 114.738,24.496 114.738,17.253 114.736,17.253 115.505,17.253 " /><path
       inkscape:connector-curvature="0"
       style="fill:#eb2141;fill-opacity:1"
       id="path34"
       d="m 122.369,22.946 v -0.021 c 0,-1.148 0.933,-1.749 2.288,-1.749 0.683,0 1.158,0.094 1.635,0.229 v -0.166 c 0,-0.951 -0.578,-1.448 -1.583,-1.448 -0.632,0 -1.129,0.155 -1.625,0.382 l -0.237,-0.649 c 0.592,-0.271 1.16,-0.456 1.944,-0.456 0.758,0 1.348,0.207 1.729,0.591 0.376,0.372 0.56,0.891 0.56,1.572 v 3.271 h -0.785 V 23.7 c -0.37,0.478 -0.983,0.909 -1.927,0.909 -1.003,0.003 -1.999,-0.568 -1.999,-1.663 m 3.933,-0.415 v -0.497 c -0.394,-0.113 -0.907,-0.228 -1.562,-0.228 -0.994,0 -1.565,0.435 -1.565,1.076 v 0.021 c 0,0.674 0.625,1.065 1.35,1.065 0.981,0 1.777,-0.588 1.777,-1.437" /><path
       inkscape:connector-curvature="0"
       style="fill:#eb2141;fill-opacity:1"
       id="path36"
       d="m 128.43,21.848 v -0.021 c 0,-1.511 1.182,-2.794 2.743,-2.794 1.015,0 1.646,0.425 2.146,0.952 l -0.529,0.561 c -0.425,-0.444 -0.901,-0.809 -1.626,-0.809 -1.084,0 -1.916,0.92 -1.916,2.07 v 0.021 c 0,1.16 0.85,2.081 1.967,2.081 0.686,0 1.211,-0.342 1.638,-0.797 l 0.508,0.477 c -0.539,0.602 -1.18,1.035 -2.185,1.035 -1.564,-0.003 -2.746,-1.275 -2.746,-2.776" /><path
       inkscape:connector-curvature="0"
       style="fill:#eb2141;fill-opacity:1"
       id="path38"
       d="m 134.689,17.097 h 0.909 v 0.882 h -0.909 z m 0.051,2.052 h 0.797 v 5.349 h -0.797 z" /><path
       inkscape:connector-curvature="0"
       style="fill:#eb2141;fill-opacity:1"
       id="path40"
       d="m 137.057,21.848 v -0.021 c 0,-1.511 1.18,-2.794 2.795,-2.794 1.603,0 2.782,1.265 2.782,2.774 v 0.021 c 0,1.512 -1.188,2.795 -2.805,2.795 -1.606,-0.002 -2.772,-1.263 -2.772,-2.775 m 4.762,0 v -0.021 c 0,-1.147 -0.86,-2.09 -1.987,-2.09 -1.159,0 -1.955,0.94 -1.955,2.07 v 0.021 c 0,1.149 0.847,2.081 1.976,2.081 1.154,-10e-4 1.966,-0.932 1.966,-2.061" /><path
       inkscape:connector-curvature="0"
       style="fill:#eb2141;fill-opacity:1"
       id="path42"
       d="m 144.068,19.149 h 0.798 v 0.93 c 0.353,-0.579 0.911,-1.044 1.832,-1.044 1.295,0 2.048,0.869 2.048,2.144 v 3.32 h -0.796 v -3.127 c 0,-0.993 -0.537,-1.615 -1.478,-1.615 -0.923,0 -1.604,0.675 -1.604,1.679 v 3.062 h -0.796 z" /><path
       inkscape:connector-curvature="0"
       style="fill:#eb2141;fill-opacity:1"
       id="path44"
       d="m 150.036,22.946 v -0.021 c 0,-1.148 0.931,-1.749 2.285,-1.749 0.686,0 1.162,0.094 1.636,0.229 v -0.166 c 0,-0.951 -0.578,-1.448 -1.581,-1.448 -0.633,0 -1.129,0.155 -1.626,0.382 l -0.235,-0.649 c 0.59,-0.271 1.156,-0.456 1.945,-0.456 0.753,0 1.347,0.207 1.729,0.591 0.372,0.372 0.559,0.891 0.559,1.572 v 3.271 H 153.96 V 23.7 c -0.372,0.478 -0.981,0.909 -1.922,0.909 -1.008,0.003 -2.002,-0.568 -2.002,-1.663 m 3.933,-0.415 v -0.497 c -0.396,-0.113 -0.911,-0.228 -1.562,-0.228 -0.993,0 -1.562,0.435 -1.562,1.076 v 0.021 c 0,0.674 0.619,1.065 1.346,1.065 0.982,0 1.778,-0.588 1.778,-1.437" /><rect
       style="fill:#eb2141;fill-opacity:1"
       id="rect46"
       height="7.5549998"
       width="0.796"
       y="16.943001"
       x="156.5" /><path
       inkscape:connector-curvature="0"
       style="fill:#eb2141;fill-opacity:1"
       id="path48"
       d="m 50.603,4.614 h 3.312 c 0.922,0 1.636,0.259 2.112,0.735 0.404,0.403 0.621,0.973 0.621,1.655 v 0.021 c 0,1.169 -0.633,1.904 -1.553,2.245 l 1.771,2.587 H 55 L 53.447,9.54 h -1.25 v 2.317 H 50.604 V 4.614 Z m 3.21,3.519 c 0.775,0 1.221,-0.416 1.221,-1.025 V 7.087 c 0,-0.686 -0.477,-1.036 -1.254,-1.036 h -1.583 v 2.082 z" /><path
       inkscape:connector-curvature="0"
       style="fill:#eb2141;fill-opacity:1"
       id="path50"
       d="m 57.988,6.31 h 1.571 v 5.548 h -1.571 z m 1.314,-2.443 1.354,0.591 -1.344,1.241 h -1.16 z" /><path
       inkscape:connector-curvature="0"
       style="fill:#eb2141;fill-opacity:1"
       id="path52"
       d="M 60.77,9.116 V 9.095 c 0,-1.592 1.283,-2.888 3.011,-2.888 1.719,0 2.989,1.273 2.989,2.867 v 0.021 c 0,1.596 -1.284,2.89 -3.014,2.89 C 62.041,11.984 60.77,10.71 60.77,9.116 m 4.448,0 V 9.095 c 0,-0.816 -0.589,-1.53 -1.461,-1.53 -0.897,0 -1.434,0.693 -1.434,1.511 v 0.021 c 0,0.817 0.59,1.533 1.458,1.533 0.904,-0.002 1.437,-0.698 1.437,-1.514" /><polygon
       style="fill:#eb2141;fill-opacity:1"
       id="polygon54"
       points="76.041,9.073 76.041,4.614 77.616,4.614 77.616,11.858 76.258,11.858 72.751,7.255 72.751,11.858 71.178,11.858 71.178,4.614 71.175,4.614 72.646,4.614 " /><path
       inkscape:connector-curvature="0"
       style="fill:#eb2141;fill-opacity:1"
       id="path56"
       d="M 78.909,9.116 V 9.095 c 0,-1.584 1.126,-2.888 2.746,-2.888 1.849,0 2.7,1.439 2.7,3.013 0,0.122 -0.012,0.269 -0.023,0.413 h -3.859 c 0.154,0.713 0.65,1.088 1.355,1.088 0.525,0 0.909,-0.166 1.348,-0.568 l 0.897,0.794 c -0.517,0.642 -1.262,1.036 -2.267,1.036 -1.663,10e-4 -2.897,-1.169 -2.897,-2.867 m 3.914,-0.465 c -0.094,-0.705 -0.509,-1.18 -1.168,-1.18 -0.654,0 -1.079,0.464 -1.204,1.18 z" /><path
       inkscape:connector-curvature="0"
       style="fill:#eb2141;fill-opacity:1"
       id="path58"
       d="m 85.551,12.957 0.537,-1.183 c 0.568,0.323 1.143,0.507 1.873,0.507 1.078,0 1.584,-0.517 1.584,-1.511 v -0.269 c -0.463,0.56 -0.973,0.9 -1.812,0.9 -1.29,0 -2.462,-0.941 -2.462,-2.588 V 8.796 c 0,-1.656 1.189,-2.589 2.462,-2.589 0.865,0 1.369,0.362 1.794,0.827 V 6.311 h 1.572 v 4.296 c 0,0.994 -0.239,1.716 -0.704,2.184 -0.521,0.517 -1.314,0.744 -2.393,0.744 -0.897,0 -1.749,-0.207 -2.451,-0.578 M 89.545,8.816 V 8.794 c 0,-0.758 -0.592,-1.285 -1.353,-1.285 -0.773,0 -1.35,0.527 -1.35,1.285 v 0.022 c 0,0.764 0.576,1.282 1.35,1.282 0.763,0 1.353,-0.525 1.353,-1.282" /><path
       inkscape:connector-curvature="0"
       style="fill:#eb2141;fill-opacity:1"
       id="path60"
       d="m 92.501,6.31 h 1.573 v 1.119 c 0.32,-0.766 0.837,-1.263 1.77,-1.224 V 7.851 H 95.76 c -1.044,0 -1.686,0.634 -1.686,1.958 v 2.048 h -1.573 z" /><path
       inkscape:connector-curvature="0"
       style="fill:#eb2141;fill-opacity:1"
       id="path62"
       d="M 96.556,9.116 V 9.095 c 0,-1.592 1.281,-2.888 3.014,-2.888 1.718,0 2.991,1.273 2.991,2.867 v 0.021 c 0,1.596 -1.285,2.89 -3.017,2.89 -1.715,-10e-4 -2.988,-1.275 -2.988,-2.869 m 4.447,0 V 9.095 c 0,-0.816 -0.59,-1.53 -1.459,-1.53 -0.899,0 -1.437,0.693 -1.437,1.511 v 0.021 c 0,0.817 0.59,1.533 1.46,1.533 0.9,-0.002 1.436,-0.698 1.436,-1.514" /></g></svg>